<svg width="368" height="200" viewBox="0 0 368 200" fill="none" xmlns="http://www.w3.org/2000/svg">
<g clip-path="url(#clip0)">
<path d="M185.079 200C284.81 200 365.658 194.648 365.658 188.045C365.658 181.443 284.81 176.091 185.079 176.091C85.3476 176.091 4.49951 181.443 4.49951 188.045C4.49951 194.648 85.3476 200 185.079 200Z" fill="#F2F2F2"/>
<path d="M178.158 57.1725C148.736 57.1725 127.612 76.0484 127.612 120.092C127.612 170.008 148.736 183.221 178.158 183.221C207.579 183.221 229.962 168.75 229.962 120.092C229.961 68.0786 207.579 57.1725 178.158 57.1725ZM178.351 166.653C157.973 166.653 147.327 154.697 147.327 120.124C147.327 89.6186 158.409 73.5316 178.787 73.5316C199.165 73.5316 210.247 84.0986 210.247 120.124C210.247 153.826 198.729 166.653 178.351 166.653Z" fill="#2F2E41"/>
<path d="M109.995 148.406H97.8302V112.585C97.8302 110.682 97.0744 108.857 95.729 107.512C94.3837 106.167 92.559 105.411 90.6564 105.411H87.806C86.8639 105.411 85.9311 105.596 85.0607 105.957C84.1903 106.317 83.3995 106.846 82.7333 107.512C82.0672 108.178 81.5388 108.969 81.1782 109.839C80.8177 110.71 80.6322 111.643 80.6322 112.585V148.406H46.3204C45.6145 148.406 44.9206 148.224 44.306 147.876C43.6915 147.529 43.177 147.029 42.8127 146.424C42.4484 145.82 42.2465 145.131 42.2266 144.426C42.2067 143.72 42.3696 143.021 42.6993 142.397L79.0146 73.6641C79.4673 72.8072 79.7417 71.8674 79.8213 70.9015C79.9008 69.9356 79.7838 68.9636 79.4773 68.0442C79.1707 67.1247 78.6811 66.2769 78.0379 65.5519C77.3947 64.8269 76.6113 64.2398 75.7349 63.826L73.5911 62.8136C71.9265 62.0276 70.0234 61.9115 68.2756 62.4894C66.5278 63.0674 65.0691 64.2951 64.2012 65.9186L19.91 148.774C19.1558 150.185 18.7612 151.76 18.7612 153.36V153.36C18.7612 154.637 19.0128 155.902 19.5017 157.082C19.9906 158.262 20.7071 159.335 21.6104 160.238C22.5137 161.141 23.586 161.858 24.7662 162.347C25.9464 162.836 27.2114 163.087 28.4888 163.087H80.6322V185.738C80.6322 186.867 80.8546 187.986 81.2867 189.029C81.7189 190.072 82.3523 191.02 83.1508 191.819C83.9492 192.617 84.8972 193.251 85.9405 193.683C86.9838 194.115 88.1019 194.337 89.2312 194.337H89.2312C90.3604 194.337 91.4786 194.115 92.5219 193.683C93.5652 193.251 94.5131 192.617 95.3116 191.819C96.1101 191.02 96.7435 190.072 97.1756 189.029C97.6078 187.986 97.8302 186.867 97.8302 185.738V163.087H109.995C111.941 163.087 113.809 162.314 115.185 160.937C116.562 159.561 117.335 157.693 117.335 155.747V155.747C117.335 153.8 116.562 151.933 115.185 150.556C113.809 149.179 111.942 148.406 109.995 148.406V148.406Z" fill="#2790DA"/>
<path d="M335.247 148.406H323.082V112.585C323.082 110.682 322.326 108.857 320.981 107.512C319.636 106.167 317.811 105.411 315.908 105.411H313.058C312.116 105.411 311.183 105.596 310.313 105.957C309.442 106.317 308.651 106.846 307.985 107.512C307.319 108.178 306.791 108.969 306.43 109.839C306.07 110.71 305.884 111.643 305.884 112.585V148.406H271.572C270.866 148.406 270.173 148.224 269.558 147.876C268.943 147.529 268.429 147.029 268.065 146.424C267.7 145.82 267.498 145.131 267.479 144.426C267.459 143.72 267.622 143.021 267.951 142.397L304.266 73.6642C304.719 72.8072 304.994 71.8674 305.073 70.9015C305.153 69.9356 305.036 68.9636 304.729 68.0442C304.423 67.1247 303.933 66.2769 303.29 65.5519C302.647 64.8269 301.863 64.2398 300.987 63.826L298.843 62.8136C297.178 62.0276 295.275 61.9115 293.528 62.4894C291.78 63.0674 290.321 64.2951 289.453 65.9186L245.162 148.774C244.408 150.185 244.013 151.76 244.013 153.36V153.36C244.013 155.939 245.038 158.414 246.862 160.238C248.687 162.062 251.161 163.087 253.741 163.087H305.884V185.738C305.884 188.019 306.79 190.206 308.403 191.819C310.015 193.431 312.203 194.337 314.483 194.337V194.337C316.764 194.337 318.951 193.431 320.564 191.819C322.176 190.206 323.082 188.019 323.082 185.738V163.087H335.247C337.193 163.087 339.061 162.314 340.437 160.937C341.814 159.561 342.587 157.693 342.587 155.747V155.747C342.587 153.8 341.814 151.933 340.437 150.556C339.061 149.179 337.193 148.406 335.247 148.406Z" fill="#2790DA"/>
<path d="M113.35 144.211H101.186V108.39C101.186 107.448 101 106.515 100.64 105.645C100.279 104.774 99.7507 103.984 99.0845 103.317C98.4183 102.651 97.6275 102.123 96.7571 101.762C95.8868 101.402 94.9539 101.216 94.0118 101.216H91.1615C89.2589 101.216 87.4342 101.972 86.0888 103.317C84.7435 104.663 83.9876 106.487 83.9876 108.39V144.211H49.6758C48.97 144.211 48.2761 144.029 47.6615 143.682C47.0469 143.334 46.5325 142.834 46.1682 142.23C45.8038 141.625 45.6019 140.937 45.5821 140.231C45.5622 139.526 45.725 138.827 46.0548 138.203L82.37 69.4695C82.8228 68.6126 83.0972 67.6728 83.1767 66.7069C83.2563 65.741 83.1392 64.769 82.8327 63.8495C82.5262 62.9301 82.0366 62.0823 81.3934 61.3573C80.7502 60.6323 79.9668 60.0452 79.0904 59.6313L76.9466 58.619C75.282 57.8329 73.3789 57.7168 71.6311 58.2948C69.8833 58.8727 68.4246 60.1004 67.5567 61.7239L23.2655 144.579C22.5113 145.99 22.1167 147.565 22.1167 149.165V149.165C22.1167 151.745 23.1416 154.219 24.9658 156.043C26.7901 157.868 29.2644 158.893 31.8443 158.893H83.9876V181.544C83.9876 182.673 84.2101 183.791 84.6422 184.834C85.0743 185.878 85.7077 186.826 86.5062 187.624C87.3047 188.422 88.2527 189.056 89.2959 189.488C90.3392 189.92 91.4574 190.143 92.5866 190.143H92.5866C94.8672 190.143 97.0544 189.237 98.6671 187.624C100.28 186.011 101.186 183.824 101.186 181.544V158.893H113.35C114.314 158.893 115.269 158.703 116.159 158.334C117.05 157.965 117.859 157.424 118.541 156.743C119.222 156.061 119.763 155.252 120.132 154.361C120.501 153.47 120.691 152.516 120.691 151.552V151.552C120.691 150.588 120.501 149.633 120.132 148.743C119.763 147.852 119.222 147.043 118.541 146.361C117.859 145.68 117.05 145.139 116.159 144.77C115.269 144.401 114.314 144.211 113.35 144.211V144.211Z" stroke="#3F3D56" stroke-miterlimit="10"/>
<path d="M341.539 144.211H329.374V108.39C329.374 106.487 328.618 104.663 327.273 103.317C325.928 101.972 324.103 101.216 322.2 101.216H319.35C318.408 101.216 317.475 101.402 316.605 101.762C315.734 102.123 314.943 102.651 314.277 103.317C313.611 103.984 313.083 104.774 312.722 105.645C312.362 106.515 312.176 107.448 312.176 108.39V144.211H277.864C277.158 144.211 276.465 144.029 275.85 143.682C275.235 143.334 274.721 142.834 274.357 142.23C273.992 141.625 273.79 140.937 273.771 140.231C273.751 139.526 273.914 138.827 274.243 138.203L310.558 69.4695C311.011 68.6126 311.286 67.6728 311.365 66.7069C311.445 65.741 311.328 64.769 311.021 63.8495C310.715 62.9301 310.225 62.0823 309.582 61.3573C308.939 60.6323 308.155 60.0452 307.279 59.6313L305.135 58.619C303.47 57.8329 301.567 57.7168 299.82 58.2948C298.072 58.8727 296.613 60.1004 295.745 61.7239L251.454 144.579C250.7 145.99 250.305 147.565 250.305 149.165C250.305 151.745 251.33 154.219 253.154 156.043C254.979 157.868 257.453 158.893 260.033 158.893H312.176V181.544C312.176 183.824 313.082 186.011 314.695 187.624C316.307 189.237 318.494 190.143 320.775 190.143V190.143C323.056 190.143 325.243 189.237 326.855 187.624C328.468 186.011 329.374 183.824 329.374 181.544V158.893H341.539C342.503 158.893 343.457 158.703 344.348 158.334C345.238 157.965 346.047 157.424 346.729 156.743C347.411 156.061 347.951 155.252 348.32 154.361C348.689 153.47 348.879 152.516 348.879 151.552V151.552C348.879 149.605 348.106 147.738 346.729 146.361C345.353 144.985 343.485 144.211 341.539 144.211V144.211Z" stroke="#3F3D56" stroke-miterlimit="10"/>
<path d="M184.869 53.3973C155.447 53.3973 134.323 72.2732 134.323 116.317C134.323 166.233 155.447 179.446 184.869 179.446C214.29 179.446 236.673 164.975 236.673 116.317C236.672 64.3034 214.29 53.3973 184.869 53.3973ZM185.062 162.877C164.684 162.877 154.038 150.922 154.038 116.349C154.038 85.8435 165.12 69.7564 185.498 69.7564C205.876 69.7564 216.958 80.3234 216.958 116.349C216.958 150.051 205.44 162.877 185.062 162.877V162.877Z" stroke="#3F3D56" stroke-miterlimit="10"/>
<path d="M161.286 10.6642C163.725 10.6642 165.703 8.68685 165.703 6.2477C165.703 3.80856 163.725 1.83124 161.286 1.83124C158.847 1.83124 156.87 3.80856 156.87 6.2477C156.87 8.68685 158.847 10.6642 161.286 10.6642Z" fill="#2F2E41"/>
<path d="M172.058 32.1002C178.899 32.1002 184.445 24.9143 184.445 16.0501C184.445 7.18586 178.899 0 172.058 0C165.216 0 159.67 7.18586 159.67 16.0501C159.67 24.9143 165.216 32.1002 172.058 32.1002Z" fill="#2F2E41"/>
<path opacity="0.1" d="M172.058 27.2528C165.852 27.2528 160.712 21.3406 159.81 13.6264C159.717 14.4309 159.67 15.2401 159.67 16.0501C159.67 24.9143 165.216 32.1002 172.058 32.1002C178.899 32.1002 184.445 24.9143 184.445 16.0501C184.445 15.2401 184.399 14.4309 184.305 13.6264C183.403 21.3406 178.263 27.2528 172.058 27.2528Z" fill="black"/>
<path d="M197.265 63.0534C196.999 64.1466 195.852 65.0222 194.582 65.6339C191.911 66.92 188.617 67.3037 185.421 67.4325C184.606 67.4821 183.788 67.467 182.975 67.3874C181.4 67.235 179.923 66.5558 178.782 65.4596C178.7 65.4065 178.634 65.3336 178.588 65.2477C178.542 65.1619 178.519 65.0659 178.521 64.9687C178.522 64.8714 178.548 64.7762 178.596 64.6918C178.645 64.6074 178.714 64.5366 178.797 64.486C180.498 62.6173 183.337 61.4714 186.197 60.6464C188.365 60.0208 192.147 58.4004 194.512 58.6191C196.803 58.8309 197.601 61.6731 197.265 63.0534Z" fill="#3F3D56"/>
<path opacity="0.1" d="M197.265 63.0534C196.999 64.1466 195.852 65.0222 194.582 65.6339C191.911 66.92 188.617 67.3037 185.421 67.4325C184.606 67.4821 183.788 67.467 182.975 67.3874C181.4 67.235 179.923 66.5558 178.782 65.4596C178.7 65.4065 178.634 65.3336 178.588 65.2477C178.542 65.1619 178.519 65.0659 178.521 64.9687C178.522 64.8714 178.548 64.7762 178.596 64.6918C178.645 64.6074 178.714 64.5366 178.797 64.486C180.498 62.6173 183.337 61.4714 186.197 60.6464C188.365 60.0208 192.147 58.4004 194.512 58.6191C196.803 58.8309 197.601 61.6731 197.265 63.0534Z" fill="black"/>
<path d="M163.307 54.8829C162.491 56.4807 162.344 58.3368 162.896 60.0434C163.458 61.7371 164.51 63.226 165.919 64.3215C169.375 67.0915 174.131 67.4727 178.559 67.4342C182.441 67.4004 186.317 67.1348 190.166 66.6387C191.456 66.5244 192.724 66.23 193.932 65.7642C195.378 65.1389 196.648 63.9918 197.163 62.5033C197.677 61.0148 197.312 59.1921 196.09 58.1987C195.016 57.3259 193.535 57.2058 192.154 57.1228L184.25 56.6479C185.031 55.8576 186.071 55.4107 187.022 54.8362C188.283 54.074 189.121 52.7944 190.039 51.6406C191.452 49.9515 192.99 48.3704 194.639 46.9107C194.896 48.3862 195.83 49.5979 196.928 50.616C198.027 51.6342 199.293 52.4538 200.435 53.4232C203.201 55.771 205.192 58.9576 208.101 61.1258C210.101 60.6 211.972 59.6662 213.595 58.383L212.464 56.3353C212.37 56.1246 212.223 55.9416 212.038 55.8038C211.718 55.6069 211.306 55.7083 210.934 55.6526C209.941 55.5037 209.507 54.3573 209.118 53.4318C208.048 50.8911 206 48.9199 204.25 46.7893C202.959 45.2165 201.814 43.5295 200.829 41.7492C200.241 40.6875 199.703 39.5819 198.906 38.6672C198.108 37.7524 196.991 37.0332 195.777 37.0306C194.705 37.0284 193.716 37.5727 192.794 38.1203C189.986 39.7882 187.285 41.6288 184.705 43.6315C183.355 44.6796 182.013 45.7869 180.429 46.4297C179.763 46.7002 179.06 46.8851 178.42 47.2144C177.3 47.791 176.449 48.7666 175.534 49.6326C172.269 52.7215 167.799 54.7228 163.307 54.8829Z" fill="#3F3D56"/>
<path d="M179.833 32.8973C179.796 33.8415 179.596 34.772 179.24 35.6473C179.059 36.0839 178.791 36.4786 178.451 36.8068C178.111 37.135 177.708 37.3897 177.265 37.555C176.637 37.7234 175.978 37.7447 175.34 37.6175C174.784 37.5594 174.248 37.3768 173.772 37.0832C173.031 36.5737 172.661 35.6646 172.527 34.7748C172.392 33.8861 172.452 32.9781 172.366 32.0829C172.282 31.3599 172.145 30.6441 171.955 29.9415C171.896 29.7077 171.837 29.4751 171.779 29.2424C171.722 29.0097 171.666 28.777 171.614 28.5444C171.567 28.3257 171.523 28.1059 171.485 27.8851C171.454 27.6988 171.426 27.5113 171.405 27.3228C171.386 26.764 171.293 26.2101 171.128 25.6758C170.974 25.3293 170.78 25.0015 170.551 24.6988C170.453 24.5588 170.358 24.4187 170.271 24.2733C170.019 23.8954 169.901 23.4433 169.938 22.9904C169.948 22.9204 169.965 22.8515 169.989 22.7847C169.997 22.7588 170.007 22.733 170.018 22.7082C170.115 22.6819 170.204 22.6323 170.277 22.5638C170.351 22.4953 170.406 22.4099 170.439 22.315C170.476 22.1112 170.459 21.9012 170.388 21.7064C170.308 21.4341 170.198 21.1715 170.06 20.9233C169.969 20.7595 169.662 20.4644 169.66 20.2769C169.656 19.8999 170.393 19.5962 170.691 19.4475C171.602 18.9914 172.617 18.7855 173.634 18.8507C174.286 18.8949 174.992 19.0953 175.352 19.6414C175.675 20.1337 175.632 20.7714 175.77 21.3434C175.784 21.4265 175.82 21.5047 175.872 21.5706C175.943 21.6347 176.031 21.6753 176.125 21.687C176.285 21.7187 176.449 21.7253 176.61 21.7064H176.611C176.654 21.703 176.696 21.6969 176.738 21.688C176.99 21.6416 177.228 21.5389 177.434 21.3875C177.568 21.352 177.702 21.3229 177.838 21.3003C177.844 21.2997 177.849 21.2986 177.854 21.297C178.394 23.0001 178.464 24.8259 178.906 26.5602C179.124 27.423 179.438 28.275 179.482 29.1626C179.485 29.2014 179.486 29.2413 179.487 29.2811C179.494 29.5666 179.471 29.8542 179.483 30.1386C179.487 30.2666 179.502 30.3941 179.526 30.5199C179.574 30.7221 179.635 30.9214 179.706 31.1167L179.709 31.1264C179.73 31.1888 179.749 31.2524 179.765 31.3159C179.777 31.3623 179.788 31.4075 179.797 31.4538L179.798 31.457C179.877 31.933 179.889 32.4179 179.833 32.8973V32.8973Z" fill="#FBBEBE"/>
<path d="M172.273 21.7592C175.783 21.7592 178.629 18.9138 178.629 15.4038C178.629 11.8938 175.783 9.0484 172.273 9.0484C168.763 9.0484 165.918 11.8938 165.918 15.4038C165.918 18.9138 168.763 21.7592 172.273 21.7592Z" fill="#FBBEBE"/>
<path d="M212.622 50.031C212.438 48.2971 211.822 46.6371 210.83 45.2031C210.995 46.1833 211.16 47.1632 211.325 48.1427C211.12 48.2023 210.901 48.2005 210.696 48.1375C210.491 48.0745 210.309 47.9532 210.173 47.7883C209.905 47.4542 209.7 47.0743 209.568 46.667C208.846 44.8745 207.902 43.1798 206.758 41.6225C202.712 41.2854 198.713 39.6082 195.155 37.6531C191.596 35.6991 188.265 33.3562 184.753 31.3192C184.145 30.9512 183.51 30.6272 182.855 30.3498C181.757 29.9092 180.523 29.6808 179.482 29.1627C179.412 29.1282 179.342 29.0916 179.273 29.0539C179.037 28.9259 178.814 28.7763 178.607 28.6069C178.495 28.5158 178.388 28.4179 178.288 28.3139C177.768 27.7092 177.356 27.0199 177.07 26.2758C176.511 25.0392 176.311 23.5473 175.753 22.3107C176.01 22.071 176.298 21.8677 176.61 21.7064H176.611C176.656 21.6827 176.701 21.6601 176.748 21.6385C176.968 21.5346 177.198 21.4506 177.434 21.3876C177.567 21.352 177.702 21.3229 177.838 21.3003C177.843 21.2997 177.849 21.2987 177.854 21.2971C178.483 21.1945 179.128 21.2455 179.734 21.4457C180.619 21.7452 181.366 22.343 182.11 22.9085C183.319 23.7605 184.479 24.6804 185.584 25.664C186.198 26.2521 186.758 26.8984 187.418 27.4327C187.967 27.8562 188.545 28.2396 189.149 28.5799C192.722 30.7085 196.296 32.8366 199.869 34.9644C201.079 35.6851 202.29 36.4057 203.473 37.1683C205.269 38.3274 207.001 39.5834 208.733 40.8383C209.753 41.5773 210.772 42.3166 211.792 43.0562C212.126 43.2696 212.42 43.541 212.659 43.8577C212.87 44.2172 213.001 44.6181 213.043 45.0329C213.299 46.7088 213.155 48.4215 212.622 50.031V50.031Z" fill="#FBBEBE"/>
<path d="M181.409 37.6767C180.98 39.5995 179.037 40.7618 178.021 42.4508C176.759 44.547 177.274 46.9836 177.747 49.3847C176.881 50.1312 176.015 50.8777 175.148 51.6241C174.67 52.0346 174.192 52.4471 173.677 52.8101C172.926 53.3132 172.141 53.7638 171.329 54.1588C170.562 54.553 169.795 54.9476 169.028 55.3426C168.315 55.7435 167.559 56.0636 166.775 56.297C165.264 56.6848 163.659 56.4133 162.164 55.9641C161.988 55.9179 161.818 55.8487 161.66 55.7584C161.566 55.7028 161.485 55.6292 161.421 55.5419C161.273 55.2776 161.22 54.9712 161.269 54.6726C161.421 52.1563 162.036 49.6928 162.649 47.2475C162.976 45.7806 163.417 44.3411 163.966 42.942C164.505 41.7432 165.124 40.5822 165.82 39.467C166.588 38.0639 167.497 36.7432 168.534 35.5256C169.039 35.057 169.464 34.509 169.792 33.9034C170.175 33.0308 170.027 32.0301 170.105 31.08C170.164 30.3662 170.354 29.6693 170.664 29.0237V29.0226C170.83 28.6749 171.03 28.3444 171.261 28.0359C171.365 28.2794 171.47 28.5225 171.574 28.7652C171.643 28.9246 171.711 29.0837 171.779 29.2424C171.867 29.4471 171.955 29.651 172.042 29.8542C172.293 30.4381 172.543 31.0215 172.794 31.6047C173.064 32.3391 173.449 33.0259 173.935 33.6395C174.157 33.9536 174.457 34.2048 174.805 34.3685C175.154 34.5322 175.538 34.6028 175.922 34.5734C176.306 34.5439 176.675 34.4155 176.994 34.2007C177.313 33.9859 177.572 33.6919 177.743 33.3475C178.105 32.7048 178.367 32.0107 178.521 31.289C178.734 30.4104 178.763 29.4973 178.607 28.6069C178.347 26.892 177.618 25.1405 177.088 23.5473C176.873 23.0161 176.748 22.4524 176.719 21.8798C176.72 21.8155 176.726 21.7513 176.738 21.6881C176.741 21.6719 176.745 21.6547 176.748 21.6385C176.969 21.5346 177.198 21.4506 177.434 21.3875C177.568 21.352 177.702 21.3229 177.838 21.3003C178.304 23.8252 178.772 26.3501 179.239 28.8751C179.25 28.9343 179.262 28.9936 179.273 29.0539C179.34 29.4158 179.407 29.7778 179.483 30.1386C179.551 30.4661 179.624 30.7925 179.706 31.1167L179.709 31.1264C179.737 31.2363 179.766 31.3451 179.796 31.4539L179.797 31.4571C179.88 31.7544 179.973 32.0495 180.077 32.3404C180.711 34.0929 181.815 35.8574 181.409 37.6767Z" fill="#2790DA"/>
<path d="M207.202 64.6979C207.182 65.0683 207.253 65.4379 207.41 65.7739C207.808 66.5009 208.762 66.6661 209.588 66.7341C214.413 67.1306 219.266 66.9827 224.057 66.2932C224.317 66.2755 224.569 66.1972 224.794 66.0647C225.475 65.5871 225.055 64.4232 224.311 64.0506C223.567 63.678 222.685 63.7678 221.869 63.6064C221.058 63.4023 220.286 63.0675 219.582 62.615C217.927 61.6641 216.296 60.6727 214.69 59.6408C213.733 59.0264 212.604 58.3708 211.526 58.735C208.608 59.7223 207.182 61.5497 207.202 64.6979Z" fill="#3F3D56"/>
<path d="M171.639 28.4097V28.4108C171.631 28.456 171.624 28.5002 171.614 28.5444C171.602 28.6176 171.588 28.6919 171.574 28.7652C171.44 29.4492 171.277 30.13 171.088 30.8064C170.571 32.6753 169.879 34.5141 169.191 36.3259C167.347 41.184 165.503 46.0425 163.658 50.9013C163.192 52.125 162.728 53.3498 162.199 54.5487C162.023 54.9483 161.841 55.3512 161.66 55.7584C161.011 57.2158 160.389 58.7206 160.182 60.2718C159.989 61.2926 159.967 62.3384 160.116 63.3665C160.323 64.3834 160.94 65.3766 161.906 65.7525C162.378 65.9367 163.053 66.1834 162.924 66.6735C162.854 66.9428 162.548 67.0742 162.274 67.1194C161.911 67.1772 161.54 67.1545 161.187 67.0529C160.834 66.9512 160.508 66.7732 160.231 66.5313C159.715 66.0735 159.319 65.3615 158.633 65.285C158.158 65.2333 157.72 65.5177 157.285 65.717C155.51 66.5281 153.442 65.9604 151.577 65.3841C151.724 64.629 152.482 64.1313 153.235 63.9805C153.988 63.8287 154.767 63.9364 155.535 63.9159C155.781 63.929 156.025 63.8662 156.234 63.736C156.421 63.564 156.553 63.3395 156.611 63.0919C157.106 61.6259 157.474 60.1202 157.711 58.5914C157.958 56.9939 158.062 55.3717 158.415 53.7936C158.69 52.5624 159.114 51.3699 159.478 50.1613C160.182 47.6729 160.76 45.1505 161.21 42.6038C161.438 41.5457 161.601 40.4748 161.698 39.397C161.76 38.5029 161.731 37.6046 161.817 36.7137C161.961 35.5547 162.203 34.41 162.54 33.2915C162.869 32.0711 163.199 30.8513 163.527 29.6323C164.015 27.828 164.539 25.9537 165.776 24.5512C166.205 24.0575 166.731 23.6572 167.322 23.3752C167.912 23.0932 168.555 22.9354 169.209 22.9117C169.454 22.9114 169.698 22.9378 169.938 22.9904C169.978 23.0001 170.017 23.0098 170.057 23.0205C170.318 23.0888 170.569 23.1924 170.802 23.3286C171.183 23.0862 171.377 23.1713 171.63 23.5451C171.852 23.9407 171.957 24.3913 171.932 24.8442C171.953 26.0395 171.855 27.2339 171.639 28.4097Z" fill="#FBBEBE"/>
<path d="M172.058 29.838L172.041 29.8542L171.954 29.9414L171.088 30.8064L170.664 29.0237L169.208 22.9117C169.454 22.9114 169.698 22.9378 169.938 22.9903C169.948 22.9203 169.965 22.8514 169.988 22.7846L170.057 23.0205L170.551 24.6988L171.485 27.8851L171.639 28.4097V28.4108L172.058 29.838Z" fill="#2790DA"/>
<path d="M177.553 10.3393C177.553 10.9053 177.44 11.4655 177.223 11.9881C177.006 12.5106 176.687 12.9852 176.286 13.3846C176.141 13.53 175.986 13.6646 175.821 13.7873C175.078 14.3477 174.172 14.651 173.241 14.6514H168.073C166.931 14.6497 165.837 14.1948 165.03 13.3867C164.223 12.5786 163.77 11.4834 163.77 10.3414C163.77 9.1995 164.223 8.10424 165.03 7.29615C165.837 6.48806 166.931 6.0332 168.073 6.03143H173.241C174.383 6.03441 175.478 6.48909 176.286 7.29622C177.093 8.10335 177.549 9.19734 177.553 10.3393V10.3393Z" fill="#2F2E41"/>
<path d="M182.399 10.6642C184.838 10.6642 186.815 8.68685 186.815 6.2477C186.815 3.80856 184.838 1.83124 182.399 1.83124C179.96 1.83124 177.982 3.80856 177.982 6.2477C177.982 8.68685 179.96 10.6642 182.399 10.6642Z" fill="#2F2E41"/>
<path opacity="0.1" d="M182.291 1.83124C182.237 1.83124 182.183 1.83339 182.129 1.83532C183.272 1.87686 184.354 2.35991 185.147 3.18286C185.941 4.0058 186.384 5.10447 186.384 6.24771C186.384 7.39094 185.941 8.48961 185.147 9.31255C184.354 10.1355 183.272 10.6185 182.129 10.6601C182.183 10.662 182.237 10.6642 182.291 10.6642C183.462 10.6642 184.586 10.1989 185.414 9.37061C186.242 8.54237 186.707 7.41902 186.707 6.24771C186.707 5.07639 186.242 3.95304 185.414 3.12479C184.586 2.29654 183.462 1.83124 182.291 1.83124V1.83124Z" fill="black"/>
<path opacity="0.1" d="M161.286 1.83124C161.34 1.83124 161.394 1.83339 161.448 1.83532C160.305 1.87686 159.223 2.35991 158.43 3.18286C157.636 4.0058 157.193 5.10447 157.193 6.24771C157.193 7.39094 157.636 8.48961 158.43 9.31255C159.223 10.1355 160.305 10.6185 161.448 10.6601C161.394 10.662 161.34 10.6642 161.286 10.6642C160.115 10.6631 158.993 10.1974 158.166 9.36924C157.338 8.5411 156.874 7.41835 156.874 6.24771C156.874 5.07706 157.338 3.9543 158.166 3.12617C158.993 2.29803 160.115 1.83227 161.286 1.83124Z" fill="black"/>
<path opacity="0.1" d="M175.821 13.7874C175.078 14.3477 174.173 14.651 173.242 14.6514H168.074C167.143 14.651 166.237 14.3477 165.494 13.7874H175.821Z" fill="black"/>
<path d="M209.193 45.7887C209.193 45.7887 210.307 48.9969 211.326 48.1427L210.514 43.9492L209.193 45.7887Z" fill="#FBBEBE"/>
<path d="M344.68 143.625C345.717 144.002 346.828 144.133 347.924 144.007C349.02 143.882 350.072 143.504 350.997 142.902C351.923 142.301 352.695 141.493 353.255 140.542C353.815 139.591 354.146 138.523 354.222 137.422C354.298 136.321 354.118 135.218 353.695 134.199C353.273 133.179 352.619 132.272 351.786 131.549C350.953 130.825 349.963 130.305 348.894 130.03C347.826 129.754 346.708 129.73 345.629 129.96L345.807 133.628L344.072 130.485C342.37 131.285 341.054 132.728 340.415 134.498C340.188 135.118 340.05 135.766 340.005 136.425C339.896 137.97 340.293 139.509 341.136 140.808C341.98 142.107 343.224 143.096 344.68 143.625V143.625Z" fill="#57B894"/>
<path d="M353.265 186.157C352.652 183.038 355.306 180.273 357.927 178.476C360.549 176.679 363.612 174.913 364.506 171.863C365.792 167.48 361.963 163.466 358.983 160.005C356.771 157.436 354.873 154.614 353.326 151.598C352.706 150.388 352.136 149.124 351.973 147.775C351.738 145.832 352.362 143.899 352.991 142.046C355.086 135.872 357.326 129.75 359.711 123.68" stroke="#3F3D56" stroke-miterlimit="10"/>
<path d="M344.974 142.68C346.011 143.057 347.121 143.188 348.217 143.063C349.314 142.938 350.366 142.559 351.291 141.958C352.216 141.357 352.989 140.549 353.548 139.598C354.108 138.647 354.439 137.579 354.515 136.478C354.592 135.377 354.412 134.274 353.989 133.255C353.566 132.235 352.912 131.328 352.079 130.605C351.246 129.881 350.256 129.361 349.188 129.086C348.119 128.81 347.002 128.786 345.922 129.016L346.101 132.683L344.366 129.541C342.663 130.341 341.347 131.784 340.708 133.554C340.481 134.173 340.343 134.822 340.299 135.481C340.189 137.026 340.586 138.565 341.43 139.864C342.273 141.163 343.518 142.152 344.974 142.68V142.68Z" stroke="#3F3D56" stroke-miterlimit="10"/>
<path d="M352.394 122.413C352.801 121.29 353.484 120.288 354.38 119.498C355.276 118.709 356.357 118.158 357.522 117.895L358.109 121.382L359.196 117.72C360.706 117.742 362.17 118.244 363.377 119.153C364.583 120.061 365.469 121.33 365.908 122.775C366.346 124.22 366.314 125.767 365.816 127.193C365.318 128.619 364.379 129.849 363.136 130.707C361.893 131.565 360.41 132.005 358.9 131.965C357.39 131.924 355.933 131.405 354.737 130.482C353.542 129.559 352.671 128.28 352.249 126.83C351.828 125.38 351.879 123.833 352.394 122.413H352.394Z" fill="#57B894"/>
<path d="M352.785 121.154C353.192 120.032 353.875 119.029 354.771 118.24C355.668 117.45 356.748 116.899 357.913 116.636L358.5 120.123L359.587 116.461C361.097 116.484 362.561 116.985 363.768 117.894C364.974 118.803 365.86 120.071 366.299 121.516C366.737 122.961 366.705 124.508 366.207 125.934C365.709 127.36 364.77 128.59 363.527 129.448C362.284 130.306 360.801 130.746 359.291 130.706C357.781 130.665 356.324 130.146 355.128 129.223C353.933 128.3 353.062 127.021 352.641 125.571C352.219 124.121 352.27 122.574 352.785 121.154H352.785Z" stroke="#3F3D56" stroke-miterlimit="10"/>
<path d="M357.732 160.075C359.377 160.672 361.183 160.642 362.808 159.992C364.432 159.343 365.76 158.118 366.539 156.551C367.319 154.985 367.494 153.187 367.033 151.499C366.571 149.812 365.505 148.353 364.037 147.401L363.202 150.215L362.609 146.688C362.603 146.685 362.597 146.683 362.591 146.681C361.711 146.361 360.777 146.218 359.842 146.259C358.907 146.301 357.99 146.526 357.142 146.922C356.294 147.318 355.532 147.878 354.9 148.568C354.269 149.259 353.779 150.067 353.46 150.947C353.141 151.827 352.998 152.761 353.04 153.696C353.082 154.631 353.308 155.548 353.705 156.396C354.102 157.244 354.661 158.005 355.352 158.636C356.043 159.268 356.852 159.757 357.732 160.075H357.732Z" fill="#57B894"/>
<path d="M358.071 158.8C359.716 159.397 361.522 159.367 363.146 158.717C364.771 158.068 366.099 156.843 366.878 155.276C367.658 153.71 367.833 151.912 367.372 150.224C366.91 148.537 365.844 147.078 364.376 146.126L363.541 148.94L362.948 145.413C362.942 145.41 362.936 145.407 362.93 145.406C362.05 145.086 361.116 144.943 360.181 144.984C359.246 145.026 358.328 145.251 357.481 145.647C356.633 146.043 355.871 146.603 355.239 147.293C354.608 147.984 354.118 148.792 353.799 149.672C353.48 150.552 353.337 151.486 353.379 152.421C353.421 153.356 353.647 154.273 354.044 155.121C354.44 155.969 355 156.73 355.691 157.361C356.382 157.993 357.191 158.481 358.071 158.8H358.071Z" stroke="#3F3D56" stroke-miterlimit="10"/>
<path d="M350.315 171.907C350.597 173.516 351.425 174.979 352.658 176.05C353.891 177.122 355.456 177.736 357.088 177.791C358.721 177.846 360.323 177.338 361.626 176.352C362.928 175.366 363.852 173.962 364.243 172.376C364.633 170.79 364.466 169.117 363.77 167.64C363.074 166.162 361.89 164.968 360.418 164.259C358.947 163.55 357.276 163.369 355.686 163.745C354.096 164.122 352.685 165.034 351.687 166.328L354.862 171.106L350.524 168.57C350.188 169.649 350.116 170.794 350.315 171.907V171.907Z" fill="#57B894"/>
<path d="M350.608 170.963C350.891 172.572 351.719 174.035 352.952 175.106C354.185 176.177 355.75 176.792 357.382 176.847C359.015 176.902 360.617 176.394 361.92 175.408C363.222 174.422 364.146 173.018 364.537 171.432C364.927 169.846 364.76 168.173 364.064 166.695C363.367 165.217 362.184 164.024 360.712 163.315C359.241 162.606 357.57 162.425 355.98 162.801C354.39 163.178 352.979 164.09 351.981 165.384L355.156 170.162L350.818 167.626C350.482 168.705 350.41 169.85 350.608 170.963V170.963Z" stroke="#3F3D56" stroke-miterlimit="10"/>
<path d="M3.08376 160.98C3.7651 161.228 4.49466 161.314 5.21493 161.232C5.9352 161.149 6.6265 160.901 7.23434 160.506C7.84218 160.111 8.34994 159.58 8.7176 158.955C9.08526 158.33 9.30277 157.628 9.35299 156.905C9.40321 156.182 9.28476 155.457 9.00699 154.787C8.72921 154.118 8.2997 153.522 7.7523 153.046C7.2049 152.571 6.55459 152.229 5.85261 152.048C5.15063 151.867 4.41618 151.852 3.70715 152.003L3.82432 154.412L2.6844 152.347C1.56564 152.873 0.701347 153.821 0.28146 154.984C0.13234 155.391 0.0416863 155.817 0.012203 156.25C-0.059749 157.265 0.201178 158.276 0.755443 159.13C1.30971 159.983 2.1271 160.633 3.08376 160.98V160.98Z" fill="#57B894"/>
<path d="M8.72365 188.925C8.32126 186.876 10.0649 185.059 11.7872 183.879C13.5095 182.698 15.522 181.538 16.1096 179.534C16.9542 176.654 14.4385 174.017 12.4804 171.742C11.0277 170.054 9.78023 168.2 8.76399 166.219C8.32218 165.441 8.02125 164.59 7.87507 163.707C7.72068 162.431 8.13079 161.161 8.54396 159.943C9.92033 155.887 11.3919 151.865 12.9587 147.876" stroke="#3F3D56" stroke-miterlimit="10"/>
<path d="M3.27615 160.36C3.95749 160.608 4.68704 160.694 5.40732 160.611C6.12759 160.529 6.81888 160.281 7.42672 159.886C8.03456 159.49 8.54231 158.959 8.90997 158.335C9.27764 157.71 9.49515 157.008 9.54536 156.285C9.59558 155.562 9.47714 154.837 9.19936 154.167C8.92159 153.497 8.49207 152.901 7.94468 152.426C7.39728 151.951 6.74697 151.609 6.04499 151.428C5.34301 151.247 4.60857 151.231 3.89953 151.382L4.0167 153.792L2.87678 151.727C1.75802 152.253 0.89373 153.201 0.473843 154.364C0.324725 154.771 0.234072 155.197 0.204587 155.63C0.132631 156.645 0.393556 157.656 0.947822 158.51C1.50209 159.363 2.31948 160.013 3.27615 160.36V160.36Z" stroke="#3F3D56" stroke-miterlimit="10"/>
<path d="M8.15179 147.044C8.41917 146.306 8.86794 145.648 9.45675 145.129C10.0456 144.61 10.7555 144.248 11.521 144.076L11.9065 146.366L12.621 143.961C13.6132 143.975 14.575 144.305 15.3675 144.902C16.1601 145.499 16.7425 146.332 17.0305 147.282C17.3186 148.231 17.2975 149.248 16.9702 150.185C16.6429 151.121 16.0264 151.93 15.2096 152.493C14.3929 153.057 13.4183 153.346 12.4264 153.32C11.4345 153.293 10.4767 152.952 9.69128 152.346C8.90588 151.739 8.3335 150.899 8.05679 149.946C7.78007 148.993 7.81334 147.977 8.15179 147.044V147.044Z" fill="#57B894"/>
<path d="M8.40862 146.217C8.67601 145.479 9.12478 144.821 9.71359 144.302C10.3024 143.783 11.0123 143.421 11.7779 143.249L12.1633 145.539L12.8779 143.134C13.87 143.148 14.8318 143.478 15.6244 144.075C16.417 144.672 16.9993 145.505 17.2874 146.455C17.5754 147.404 17.5543 148.421 17.227 149.358C16.8997 150.294 16.2832 151.103 15.4665 151.666C14.6498 152.23 13.6751 152.519 12.6832 152.492C11.6913 152.466 10.7335 152.125 9.94812 151.518C9.16271 150.912 8.59034 150.072 8.31362 149.119C8.03691 148.166 8.07018 147.15 8.40862 146.217V146.217Z" stroke="#3F3D56" stroke-miterlimit="10"/>
<path d="M11.6588 171.789C12.7393 172.181 13.9263 172.161 14.9935 171.734C16.0607 171.307 16.9334 170.503 17.4454 169.474C17.9574 168.444 18.0728 167.263 17.7696 166.154C17.4665 165.045 16.7659 164.087 15.8015 163.462L15.2525 165.31L14.8631 162.993C14.8593 162.991 14.8553 162.989 14.8512 162.988C14.2732 162.778 13.6595 162.684 13.0451 162.711C12.4307 162.738 11.8277 162.886 11.2705 163.146C10.7133 163.407 10.2129 163.774 9.79778 164.228C9.38269 164.682 9.0611 165.213 8.85138 165.791C8.64165 166.369 8.54792 166.983 8.57552 167.597C8.60312 168.212 8.75152 168.815 9.01224 169.372C9.27296 169.929 9.64089 170.429 10.095 170.844C10.5491 171.258 11.0805 171.579 11.6588 171.789V171.789Z" fill="#57B894"/>
<path d="M11.8814 170.951C12.962 171.343 14.149 171.324 15.2161 170.897C16.2833 170.47 17.1561 169.665 17.6681 168.636C18.1801 167.607 18.2955 166.425 17.9923 165.316C17.6891 164.208 16.9886 163.249 16.0242 162.624L15.4751 164.473L15.0858 162.155C15.0819 162.153 15.078 162.152 15.0739 162.151C14.496 161.941 13.8826 161.847 13.2685 161.875C12.6544 161.902 12.0518 162.05 11.4949 162.311C10.3704 162.837 9.5008 163.788 9.07745 164.955C8.65411 166.122 8.7117 167.409 9.23755 168.533C9.7634 169.658 10.7144 170.528 11.8814 170.951V170.951Z" stroke="#3F3D56" stroke-miterlimit="10"/>
<path d="M6.78578 179.562C6.97157 180.62 7.5152 181.581 8.32551 182.285C9.13582 182.989 10.1635 183.392 11.2363 183.429C12.309 183.465 13.3616 183.131 14.2174 182.483C15.0732 181.835 15.6803 180.913 15.9368 179.871C16.1933 178.828 16.0836 177.73 15.6261 176.759C15.1686 175.788 14.3912 175.004 13.4242 174.538C12.4572 174.072 11.3594 173.953 10.315 174.2C9.27056 174.448 8.34298 175.047 7.68782 175.897L9.7734 179.036L6.92371 177.37C6.70276 178.079 6.65545 178.831 6.78578 179.562V179.562Z" fill="#57B894"/>
<path d="M6.97865 178.942C7.16444 179.999 7.70807 180.96 8.51838 181.664C9.32869 182.368 10.3564 182.772 11.4291 182.808C12.5019 182.844 13.5544 182.511 14.4103 181.863C15.2661 181.215 15.8732 180.293 16.1296 179.25C16.3861 178.208 16.2764 177.109 15.819 176.138C15.3615 175.167 14.5841 174.383 13.6171 173.917C12.6501 173.452 11.5523 173.332 10.5079 173.58C9.46343 173.827 8.53585 174.426 7.88069 175.277L9.96627 178.416L7.11658 176.75C6.89563 177.459 6.84833 178.211 6.97865 178.942V178.942Z" stroke="#3F3D56" stroke-miterlimit="10"/>
<path d="M164.642 116.774C167.856 116.774 170.462 113.402 170.462 109.243C170.462 105.084 167.856 101.712 164.642 101.712C161.428 101.712 158.823 105.084 158.823 109.243C158.823 113.402 161.428 116.774 164.642 116.774Z" fill="#2F2E41"/>
<path d="M196.308 116.945C199.522 116.945 202.128 113.573 202.128 109.414C202.128 105.255 199.522 101.883 196.308 101.883C193.094 101.883 190.488 105.255 190.488 109.414C190.488 113.573 193.094 116.945 196.308 116.945Z" fill="#2F2E41"/>
<path d="M191.858 131.666C191.858 135.068 187.106 137.828 181.246 137.828C175.385 137.828 170.633 135.068 170.633 131.666C170.633 128.718 174.197 126.253 178.959 125.651C179.717 125.551 180.481 125.502 181.246 125.504C182.527 125.499 183.805 125.637 185.056 125.914C189.034 126.801 191.858 129.043 191.858 131.666Z" fill="#2F2E41"/>
<path d="M166.012 115.063C169.226 115.063 171.831 111.691 171.831 107.531C171.831 103.372 169.226 100 166.012 100C162.797 100 160.192 103.372 160.192 107.531C160.192 111.691 162.797 115.063 166.012 115.063Z" stroke="#3F3D56" stroke-miterlimit="10"/>
<path d="M197.677 115.234C200.891 115.234 203.497 111.862 203.497 107.702C203.497 103.543 200.891 100.171 197.677 100.171C194.463 100.171 191.857 103.543 191.857 107.702C191.857 111.862 194.463 115.234 197.677 115.234Z" stroke="#3F3D56" stroke-miterlimit="10"/>
<path d="M182.615 136.116C188.476 136.116 193.227 133.357 193.227 129.954C193.227 126.551 188.476 123.792 182.615 123.792C176.754 123.792 172.002 126.551 172.002 129.954C172.002 133.357 176.754 136.116 182.615 136.116Z" stroke="#3F3D56" stroke-miterlimit="10"/>
<path d="M185.182 126.428C185.185 126.858 185.023 127.274 184.73 127.589C184.592 127.74 184.424 127.861 184.236 127.944C184.049 128.027 183.847 128.07 183.642 128.071H180.218C179.797 128.056 179.398 127.875 179.109 127.567C178.82 127.26 178.665 126.85 178.678 126.428C178.676 126.094 178.774 125.767 178.959 125.49C179.716 125.383 180.48 125.33 181.245 125.332C182.528 125.328 183.807 125.475 185.056 125.771C185.14 125.979 185.183 126.203 185.182 126.428V126.428Z" fill="white"/>
<path d="M166.012 107.189C166.957 107.189 167.724 106.423 167.724 105.477C167.724 104.532 166.957 103.766 166.012 103.766C165.067 103.766 164.3 104.532 164.3 105.477C164.3 106.423 165.067 107.189 166.012 107.189Z" fill="white"/>
<path d="M197.848 107.189C198.794 107.189 199.56 106.423 199.56 105.477C199.56 104.532 198.794 103.766 197.848 103.766C196.903 103.766 196.137 104.532 196.137 105.477C196.137 106.423 196.903 107.189 197.848 107.189Z" fill="white"/>
<path opacity="0.3" d="M199.56 123.278C200.506 123.278 201.272 122.512 201.272 121.567C201.272 120.621 200.506 119.855 199.56 119.855C198.615 119.855 197.849 120.621 197.849 121.567C197.849 122.512 198.615 123.278 199.56 123.278Z" fill="#2790DA"/>
<path opacity="0.3" d="M157.796 123.278C158.741 123.278 159.507 122.512 159.507 121.567C159.507 120.621 158.741 119.855 157.796 119.855C156.85 119.855 156.084 120.621 156.084 121.567C156.084 122.512 156.85 123.278 157.796 123.278Z" fill="#2790DA"/>
</g>
<defs>
<clipPath id="clip0">
<rect width="367.797" height="200" fill="white"/>
</clipPath>
</defs>
</svg>
