<svg width="165" height="200" viewBox="0 0 165 200" fill="none" xmlns="http://www.w3.org/2000/svg">
<g clip-path="url(#clip0)">
<path d="M77.0997 154.114L77.0996 153.6C78.121 153.6 79.1578 153.579 80.1816 153.538L80.2022 154.051C79.1716 154.092 78.1279 154.114 77.0997 154.114ZM73.9981 154.054C72.9712 154.014 71.9292 153.953 70.9013 153.872L70.9417 153.36C71.963 153.44 72.998 153.501 74.0182 153.541L73.9981 154.054ZM83.299 153.865L83.2581 153.353C84.2775 153.271 85.3092 153.168 86.3243 153.045L86.386 153.555C85.364 153.679 84.3254 153.783 83.299 153.865V153.865ZM67.8139 153.565C66.7896 153.443 65.7559 153.298 64.7413 153.135L64.8228 152.628C65.8305 152.79 66.8574 152.934 67.8748 153.055L67.8139 153.565ZM89.4579 153.121L89.3759 152.614C90.3834 152.452 91.4034 152.265 92.4076 152.061L92.51 152.564C91.4991 152.77 90.4722 152.957 89.4579 153.122V153.121ZM61.6886 152.581C60.6776 152.377 59.6589 152.149 58.6606 151.904L58.7828 151.405C59.7744 151.648 60.7863 151.875 61.7904 152.078L61.6886 152.581ZM95.5373 151.884L95.4144 151.385C96.4091 151.14 97.4107 150.872 98.3915 150.588L98.5344 151.081C97.5469 151.367 96.5385 151.637 95.5373 151.884V151.884ZM55.6625 151.105C54.6719 150.819 53.675 150.51 52.6993 150.185L52.8616 149.698C53.8308 150.02 54.821 150.328 55.805 150.612L55.6625 151.105ZM101.496 150.158L101.334 149.67C102.303 149.346 103.28 148.998 104.236 148.635L104.419 149.115C103.456 149.481 102.473 149.832 101.496 150.158V150.158ZM49.7679 149.142C48.8042 148.777 47.8335 148.387 46.8826 147.982L47.0839 147.509C48.0284 147.912 48.9927 148.299 49.9501 148.662L49.7679 149.142ZM107.288 147.958L107.087 147.485C108.026 147.084 108.969 146.659 109.889 146.221L110.11 146.685C109.183 147.126 108.234 147.554 107.288 147.958V147.958ZM44.0472 146.706C43.1141 146.263 42.1786 145.795 41.2669 145.316L41.5059 144.861C42.4115 145.337 43.3406 145.802 44.2675 146.242L44.0472 146.706ZM112.879 145.299L112.639 144.845C113.544 144.369 114.451 143.868 115.333 143.358L115.59 143.802C114.702 144.316 113.79 144.82 112.879 145.299V145.299ZM38.5458 143.815C37.6506 143.297 36.7564 142.756 35.8882 142.206L36.1631 141.772C37.0255 142.318 37.9137 142.856 38.8029 143.37L38.5458 143.815ZM118.24 142.197L117.965 141.763C118.827 141.218 119.69 140.646 120.532 140.064L120.824 140.486C119.977 141.072 119.107 141.648 118.24 142.197L118.24 142.197ZM33.2982 140.492C32.4487 139.905 31.6014 139.294 30.7796 138.676L31.0884 138.265C31.9048 138.879 32.7464 139.487 33.5901 140.07L33.2982 140.492ZM123.338 138.673L123.029 138.262C123.844 137.65 124.659 137.01 125.453 136.362L125.778 136.759C124.979 137.412 124.158 138.056 123.338 138.673V138.673ZM28.3365 136.76C27.539 136.108 26.7437 135.431 25.9727 134.748L26.3134 134.364C27.0793 135.042 27.8693 135.715 28.6616 136.362L28.3365 136.76ZM128.14 134.749L127.8 134.365C128.565 133.687 129.327 132.984 130.064 132.276L130.42 132.646C129.678 133.359 128.911 134.067 128.14 134.75L128.14 134.749ZM23.6918 132.644C22.9508 131.932 22.2124 131.194 21.4974 130.451L21.8677 130.095C22.578 130.833 23.3115 131.567 24.0477 132.273L23.6918 132.644ZM132.615 130.453L132.244 130.097C132.952 129.36 133.656 128.598 134.336 127.832L134.72 128.173C134.036 128.944 133.327 129.711 132.615 130.453V130.453ZM19.3929 128.172C18.708 127.4 18.0314 126.606 17.3816 125.811L17.7794 125.486C18.4247 126.275 19.0969 127.065 19.7772 127.831L19.3929 128.172ZM136.733 125.811L136.335 125.486C136.984 124.692 137.625 123.876 138.24 123.06L138.65 123.369C138.031 124.19 137.386 125.012 136.733 125.811V125.811ZM15.4669 123.373C14.8479 122.551 14.2372 121.705 13.652 120.86L14.0744 120.567C14.6557 121.407 15.2623 122.247 15.8773 123.064L15.4669 123.373ZM140.468 120.851L140.045 120.559C140.629 119.715 141.202 118.85 141.749 117.987L142.183 118.262C141.632 119.131 141.055 120.002 140.468 120.851ZM11.9397 118.277C11.3892 117.409 10.8487 116.517 10.333 115.627L10.7774 115.37C11.2897 116.254 11.8267 117.139 12.3734 118.001L11.9397 118.277ZM143.794 115.605L143.349 115.348C143.864 114.459 144.366 113.55 144.841 112.646L145.296 112.885C144.817 113.795 144.312 114.711 143.794 115.605V115.605ZM8.83471 112.916C8.35611 112.007 7.88931 111.076 7.44733 110.148L7.91113 109.927C8.35022 110.849 8.81389 111.774 9.28922 112.677L8.83471 112.916ZM146.687 110.106L146.223 109.885C146.663 108.96 147.09 108.013 147.492 107.069L147.965 107.271C147.56 108.221 147.13 109.174 146.687 110.106ZM6.17321 107.328C5.76861 106.381 5.37881 105.416 5.01447 104.458L5.49457 104.276C5.85653 105.227 6.2437 106.186 6.64555 107.125L6.17321 107.328ZM149.127 104.386L148.647 104.204C149.011 103.243 149.36 102.263 149.684 101.293L150.171 101.455C149.846 102.433 149.494 103.419 149.127 104.386V104.386ZM3.96999 101.537C3.6429 100.56 3.33161 99.5637 3.04478 98.5751L3.53817 98.4321C3.82312 99.4139 4.13228 100.404 4.45711 101.374L3.96999 101.537ZM151.093 98.4923L150.6 98.3499C150.883 97.3696 151.151 96.368 151.395 95.3724L151.894 95.4948C151.648 96.4972 151.379 97.5058 151.093 98.4923V98.4923ZM2.2406 95.5784C1.99378 94.578 1.76439 93.5599 1.55845 92.5518L2.06189 92.4489C2.26632 93.4503 2.49421 94.4619 2.73927 95.4555L2.2406 95.5784ZM152.573 92.4678L152.069 92.3654C152.272 91.3648 152.458 90.3447 152.621 89.3335L153.128 89.4153C152.964 90.4332 152.777 91.4601 152.573 92.4678ZM0.999458 89.4999C0.834784 88.4857 0.688295 87.4523 0.564131 86.4281L1.07408 86.3664C1.19749 87.3838 1.34298 88.4102 1.50665 89.4176L0.999458 89.4999ZM153.56 86.3423L153.05 86.2811C153.172 85.2642 153.275 84.2325 153.356 83.2148L153.868 83.2554C153.787 84.2801 153.683 85.3187 153.56 86.3423V86.3423ZM0.252718 83.3416C0.169815 82.3155 0.106606 81.2735 0.0648412 80.2445L0.578052 80.2237C0.619566 81.2458 0.682401 82.2809 0.764675 83.3002L0.252718 83.3416ZM154.053 80.1588L153.54 80.1385C153.58 79.1149 153.6 78.0781 153.6 77.0571L153.6 76.8869H154.114L154.114 77.056C154.114 78.0848 154.093 79.1283 154.053 80.1588ZM0.513713 77.1423H0L0.000125418 77.056C0.000125418 76.0539 0.0195711 75.039 0.0580765 74.0408L0.571272 74.0606C0.533144 75.0523 0.513831 76.0604 0.513831 77.0571L0.513713 77.1423ZM153.532 73.8063C153.49 72.7862 153.426 71.7512 153.342 70.73L153.855 70.6881C153.939 71.7162 154.003 72.758 154.046 73.785L153.532 73.8063ZM0.751255 70.984L0.239047 70.9439C0.319818 69.9152 0.422408 68.8765 0.543813 67.8563L1.05401 67.917C0.933361 68.9304 0.831523 69.9623 0.751255 70.984ZM153.03 67.664C152.906 66.6509 152.759 65.6245 152.594 64.6134L153.101 64.5305C153.267 65.5484 153.415 66.5817 153.54 67.6018L153.03 67.664ZM1.47945 64.8648L0.972258 64.7836C1.13505 63.7664 1.32079 62.7391 1.5246 61.7305L2.02804 61.8321C1.82572 62.8341 1.64121 63.8543 1.47943 64.8648L1.47945 64.8648ZM152.035 61.5825C151.829 60.5787 151.6 59.5676 151.354 58.5769L151.853 58.4532C152.1 59.4505 152.331 60.4687 152.538 61.4792L152.035 61.5825ZM2.69862 58.8242L2.19958 58.7023C2.4439 57.7024 2.71229 56.6936 2.99724 55.7035L3.49089 55.8456C3.20782 56.829 2.94131 57.8311 2.69862 58.8242ZM150.552 55.6012C150.266 54.62 149.956 53.6306 149.63 52.6605L150.117 52.497C150.446 53.4736 150.758 54.4697 151.046 55.4575L150.552 55.6012ZM4.40319 52.9019L3.91567 52.7399C4.24076 51.7618 4.59093 50.7754 4.95653 49.8081L5.43712 49.9897C5.07392 50.9506 4.72601 51.9303 4.40319 52.9019ZM148.589 49.7596C148.224 48.804 147.836 47.8457 147.435 46.9111L147.907 46.7087C148.311 47.6496 148.702 48.6143 149.069 49.5762L148.589 49.7596ZM6.58834 47.1228L6.11552 46.9216C6.51924 45.9726 6.94817 45.0184 7.39027 44.0859L7.85444 44.3059C7.41523 45.2322 6.98931 46.18 6.58834 47.1228ZM146.167 44.1105C145.727 43.1897 145.262 42.2651 144.786 41.3625L145.24 41.1225C145.72 42.0313 146.188 42.962 146.63 43.8893L146.167 44.1105ZM9.23354 41.5433L8.77852 41.3048C9.25737 40.3921 9.7618 39.4763 10.2776 38.5827L10.7226 38.8396C10.2102 39.7271 9.70913 40.6369 9.23354 41.5433ZM143.294 38.6715C142.78 37.7872 142.243 36.9025 141.695 36.0417L142.129 35.7661C142.68 36.6326 143.221 37.5233 143.738 38.4134L143.294 38.6715ZM12.3193 36.1989L11.8851 35.9242C12.4362 35.0529 13.0125 34.1811 13.5979 33.3332L14.0205 33.625C13.4391 34.4674 12.8668 35.3332 12.3193 36.1989ZM139.991 33.4776C139.409 32.6379 138.801 31.7986 138.186 30.9834L138.596 30.6738C139.215 31.4946 139.827 32.3394 140.413 33.1848L139.991 33.4776ZM15.8235 31.1222L15.4129 30.8137C16.032 29.9897 16.676 29.1674 17.327 28.3695L17.7251 28.6944C17.0783 29.4869 16.4386 30.3037 15.8235 31.1222V31.1222ZM136.281 28.5628C135.633 27.7723 134.96 26.984 134.281 26.22L134.665 25.8786C135.349 26.6478 136.026 27.4413 136.679 28.2372L136.281 28.5628ZM19.7221 26.345L19.3376 26.0046C20.0196 25.2341 20.7271 24.4663 21.4405 23.7225L21.8112 24.0782C21.1026 24.8169 20.3998 25.5797 19.7221 26.345L19.7221 26.345ZM132.188 23.9583C131.477 23.2207 130.743 22.4885 130.005 21.7819L130.361 21.4109C131.103 22.1223 131.842 22.8594 132.558 23.6019L132.188 23.9583ZM23.9888 21.8971L23.6326 21.5268C24.3738 20.8136 25.1402 20.1052 25.9103 19.4212L26.2514 19.8052C25.4864 20.4847 24.7251 21.1886 23.9888 21.8971ZM127.738 19.6941C126.97 19.0154 126.179 18.344 125.387 17.6984L125.712 17.3002C126.509 17.9501 127.305 18.626 128.078 19.3093L127.738 19.6941ZM28.5955 17.806L28.2699 17.4087C29.0669 16.7559 29.8872 16.1114 30.7076 15.4928L31.0169 15.9029C30.2018 16.5174 29.3871 17.1578 28.5955 17.806ZM122.958 15.7982C122.138 15.1832 121.296 14.577 120.454 13.9966L120.746 13.5737C121.593 14.158 122.441 14.7682 123.266 15.3873L122.958 15.7982ZM33.5125 14.0983L33.2198 13.6761C34.0666 13.0893 34.9353 12.5128 35.802 11.9624L36.0774 12.3961C35.2166 12.9427 34.3535 13.5154 33.5125 14.0983H33.5125ZM117.879 12.2965C117.013 11.7495 116.125 11.2128 115.238 10.7015L115.494 10.2565C116.387 10.7712 117.282 11.3115 118.154 11.8622L117.879 12.2965ZM38.7079 10.7989L38.4502 10.3544C39.3384 9.83935 40.2502 9.33467 41.16 8.85469L41.3998 9.30895C40.4959 9.7858 39.5903 10.2871 38.7079 10.7989ZM112.533 9.21376C111.626 8.73843 110.697 8.27501 109.77 7.83642L109.99 7.37212C110.923 7.81359 111.859 8.28015 112.772 8.75874L112.533 9.21376ZM44.1485 7.92948L43.9274 7.46568C44.8537 7.02408 45.8025 6.5949 46.7475 6.19005L46.9497 6.66225C46.011 7.06435 45.0685 7.49064 44.1485 7.92948L44.1485 7.92948ZM106.953 6.57183C106.008 6.17088 105.044 5.78421 104.085 5.42225L104.267 4.94165C105.232 5.30599 106.203 5.69541 107.153 6.09901L106.953 6.57183ZM49.7989 5.50966L49.6159 5.02956C50.5771 4.66309 51.5599 4.31117 52.5369 3.98345L52.7002 4.47057C51.7299 4.79603 50.7537 5.1457 49.7989 5.50966ZM101.172 4.3898C100.201 4.06786 99.2107 3.76146 98.2277 3.47914L98.3696 2.9855C99.3592 3.26969 100.356 3.5781 101.334 3.90218L101.172 4.3898ZM55.6417 3.54975L55.4982 3.05661C56.4861 2.76915 57.4942 2.49799 58.4944 2.25054L58.6178 2.74921C57.6243 2.99503 56.6229 3.26443 55.6417 3.54975V3.54975ZM95.2489 2.68876C94.257 2.44682 93.2448 2.2217 92.2404 2.01964L92.3418 1.51597C93.3529 1.7194 94.3719 1.94615 95.3705 2.18959L95.2489 2.68876ZM61.6237 2.07032L61.5206 1.56714C62.5277 1.36095 63.5544 1.17232 64.5722 1.00639L64.655 1.51333C63.6438 1.67826 62.6241 1.86563 61.6237 2.07032ZM89.2076 1.47283C88.1973 1.31178 87.1703 1.16906 86.1549 1.04891L86.2154 0.538712C87.2375 0.65974 88.2715 0.803344 89.2884 0.965636L89.2076 1.47283ZM67.7059 1.07914L67.6437 0.569188C68.6656 0.444774 69.7041 0.339301 70.7302 0.256018L70.7719 0.767976C69.7525 0.850869 68.7209 0.955477 67.7059 1.07914ZM83.0879 0.747908C82.0695 0.668519 81.0343 0.608569 80.0112 0.569815L80.0307 0.0563583C81.0607 0.0954879 82.1026 0.155816 83.1278 0.235706L83.0879 0.747908ZM73.8482 0.579724L73.8272 0.0665251C74.8544 0.0241437 75.898 0.00179746 76.929 5.34058e-05L76.9298 0.513766C75.9056 0.51551 74.8688 0.537707 73.8482 0.579724V0.579724Z" fill="#3F3D56"/>
<path d="M164.125 52.6662V38.683C159.781 37.6853 155.691 35.796 152.116 33.1347C148.541 30.4733 145.558 27.0981 143.355 23.2231L143.355 23.2233C142.299 24.0066 141.018 24.4282 139.703 24.4254H128.599C131.562 31.81 136.395 38.2967 142.624 43.2481C148.852 48.1995 156.262 51.4452 164.125 52.6662Z" fill="#3F3D56"/>
<path d="M164.125 37.8814V24.4484C164.125 23.4657 163.932 22.4926 163.556 21.5847C163.18 20.6768 162.629 19.8518 161.934 19.157C161.239 18.4621 160.414 17.911 159.506 17.5351C158.598 17.1592 157.625 16.9658 156.643 16.9661H145.862V18.2633C145.863 19.0952 145.696 19.9187 145.369 20.6838C145.042 21.4489 144.564 22.1397 143.962 22.7143C146.092 26.4988 148.983 29.8006 152.454 32.4111C155.924 35.0217 159.898 36.8843 164.125 37.8814V37.8814Z" fill="#3F3D56"/>
<path d="M112.268 24.4252H105.325C103.691 24.4247 102.124 23.7753 100.969 22.6197C99.8142 21.4642 99.1654 19.8971 99.1656 18.2632V16.9661H89.0506C88.068 16.966 87.095 17.1595 86.1872 17.5355C85.2793 17.9115 84.4545 18.4626 83.7597 19.1574C83.0649 19.8522 82.5137 20.6771 82.1377 21.5849C81.7618 22.4927 81.5683 23.4657 81.5684 24.4483V190.943C81.5673 191.925 81.7602 192.899 82.1359 193.806C82.5116 194.714 83.0628 195.539 83.7578 196.234C84.4529 196.929 85.2782 197.479 86.1864 197.854C87.0946 198.229 88.068 198.421 89.0506 198.42H156.642C156.951 198.42 157.259 198.402 157.564 198.363C159.374 198.138 161.039 197.259 162.247 195.893C163.455 194.527 164.123 192.766 164.125 190.943V68.3779C139.541 65.5294 119.057 47.9889 112.268 24.4252Z" fill="#3F3D56"/>
<path d="M127.758 24.4252H113.081C119.837 47.5522 139.969 64.7588 164.126 67.5945V53.4622C156.053 52.2279 148.446 48.8966 142.064 43.8011C135.682 38.7056 130.749 32.0244 127.758 24.4252V24.4252Z" fill="#3F3D56"/>
<path opacity="0.1" d="M106.045 195.846C106.231 195.661 110.65 191.186 114.395 180.568C117.832 170.826 121.299 153.839 118.303 128.23C112.626 79.7162 141.735 48.7981 142.03 48.4914L141.169 47.664C141.094 47.7417 133.61 55.6094 126.951 69.4213C118.136 87.7365 114.725 108.185 117.116 128.369C122.783 176.8 105.379 194.823 105.202 194.999L106.045 195.846Z" fill="black"/>
<path opacity="0.1" d="M150.968 47.6789C155.256 47.6789 158.731 44.2034 158.731 39.9161C158.731 35.6289 155.256 32.1534 150.968 32.1534C146.681 32.1534 143.206 35.6289 143.206 39.9161C143.206 44.2034 146.681 47.6789 150.968 47.6789Z" fill="black"/>
<path opacity="0.1" d="M120.385 69.7162C124.672 69.7162 128.148 66.2407 128.148 61.9535C128.148 57.6662 124.672 54.1907 120.385 54.1907C116.098 54.1907 112.622 57.6662 112.622 61.9535C112.622 66.2407 116.098 69.7162 120.385 69.7162Z" fill="black"/>
<path opacity="0.1" d="M132.095 92.2457C136.383 92.2457 139.858 88.7702 139.858 84.4829C139.858 80.1956 136.383 76.7201 132.095 76.7201C127.808 76.7201 124.333 80.1956 124.333 84.4829C124.333 88.7702 127.808 92.2457 132.095 92.2457Z" fill="black"/>
<path opacity="0.1" d="M108.548 103.093C112.835 103.093 116.311 99.617 116.311 95.3297C116.311 91.0425 112.835 87.5669 108.548 87.5669C104.261 87.5669 100.785 91.0425 100.785 95.3297C100.785 99.617 104.261 103.093 108.548 103.093Z" fill="black"/>
<path opacity="0.1" d="M128.124 133.688C132.411 133.688 135.887 130.213 135.887 125.926C135.887 121.638 132.411 118.163 128.124 118.163C123.837 118.163 120.361 121.638 120.361 125.926C120.361 130.213 123.837 133.688 128.124 133.688Z" fill="black"/>
<path opacity="0.1" d="M101.421 195.011C101.421 195.011 113.495 178.29 94.2705 158.843L101.421 195.011Z" fill="black"/>
<path opacity="0.1" d="M110.778 196.939C110.778 196.939 119.03 178.037 145.553 184.692L110.778 196.939Z" fill="black"/>
<path d="M155.585 129.952H90.3438V142.795H155.585V129.952Z" fill="#EB5757"/>
<path d="M110.271 102.733C107.654 98.8434 106.518 94.1451 107.069 89.4899C107.619 84.8347 109.819 80.5309 113.271 77.3589C116.722 74.1869 121.196 72.3568 125.881 72.2004C130.566 72.0441 135.152 73.5718 138.807 76.5066C142.462 79.4415 144.945 83.589 145.804 88.1971C146.664 92.8053 145.844 97.5689 143.492 101.624C141.141 105.679 137.414 108.758 132.988 110.301C128.561 111.844 123.728 111.75 119.366 110.035C119.083 111.045 118.554 111.968 117.827 112.723C117.099 113.479 116.196 114.042 115.198 114.362C114.199 114.682 113.137 114.75 112.106 114.559C111.075 114.369 110.108 113.925 109.29 113.269C108.473 112.612 107.831 111.763 107.422 110.798C107.013 109.833 106.85 108.781 106.947 107.737C107.044 106.693 107.398 105.69 107.978 104.816C108.559 103.943 109.346 103.227 110.271 102.733V102.733Z" fill="#F2F2F2"/>
<path d="M130.69 84.7808C130.223 84.5114 128.455 86.6722 126.503 89.8169C124.551 86.6722 122.783 84.5114 122.317 84.7808C121.798 85.0801 123.074 88.2701 125.193 92.0325C123.074 95.7948 121.798 98.9849 122.317 99.2842C122.783 99.5536 124.551 97.3928 126.503 94.248C128.455 97.3928 130.223 99.5536 130.69 99.2842C131.208 98.9849 129.933 95.7948 127.813 92.0325C129.933 88.2701 131.208 85.0801 130.69 84.7808Z" fill="#EB5757"/>
<path d="M36.7694 118.065C36.7694 118.065 34.68 127.02 36.4709 127.02C38.2619 127.02 41.8437 122.841 41.8437 122.841V120.453L36.7694 118.065Z" fill="#A0616A"/>
<path d="M41.098 110.155L35.7251 118.513H39.6054L41.098 110.155Z" fill="#D0CDE1"/>
<path d="M44.9787 182.986H37.8149V188.956H44.9787V182.986Z" fill="#A0616A"/>
<path d="M60.7979 182.091L62.2904 188.956L69.7526 187.165L67.9616 181.195L60.7979 182.091Z" fill="#A0616A"/>
<path d="M38.4125 120.303C38.4125 120.303 36.0246 121.497 35.7261 126.87C35.4276 132.243 36.6216 146.272 36.6216 146.272C36.6216 146.272 35.4276 152.54 36.6216 158.211C37.8156 163.882 35.4276 184.478 36.9201 184.478C38.4125 184.478 46.1732 185.374 46.4717 184.478C46.7702 183.583 47.0687 170.151 47.0687 170.151C47.0687 170.151 49.4566 163.286 47.0687 159.107C47.0687 159.107 52.4415 163.584 52.4415 164.778C52.4415 165.972 58.1128 184.478 60.7992 184.777C63.4856 185.075 70.9478 184.478 69.4553 181.792C67.9629 179.105 64.381 166.867 64.381 166.867C64.381 166.867 61.6946 157.913 56.9188 154.032L59.3067 134.929C59.3067 134.929 64.381 122.094 61.3961 120.303C58.4113 118.512 38.4125 120.303 38.4125 120.303Z" fill="#2F2E41"/>
<path d="M47.3662 71.6503C51.6523 71.6503 55.1269 68.1757 55.1269 63.8896C55.1269 59.6035 51.6523 56.1289 47.3662 56.1289C43.0801 56.1289 39.6055 59.6035 39.6055 63.8896C39.6055 68.1757 43.0801 71.6503 47.3662 71.6503Z" fill="#A0616A"/>
<path d="M43.4854 68.6646C43.4854 68.6646 46.4703 78.5148 45.5748 79.7087C44.6793 80.9027 55.1264 73.142 55.1264 73.142C55.1264 73.142 51.2461 70.4556 52.7385 66.5752L43.4854 68.6646Z" fill="#A0616A"/>
<path d="M56.0231 72.2465C56.0231 72.2465 52.4412 73.4405 50.6503 75.5299C48.8594 77.6193 44.6805 77.9178 44.6805 77.9178C44.6805 77.9178 40.9864 79.9983 39.6062 83.5891C38.1352 87.4161 38.9902 92.8043 39.6062 94.0362C40.8002 96.4241 40.8002 102.394 40.8002 102.394L39.3077 116.124C39.3077 116.124 33.9349 121.199 38.1138 121.796C42.2926 122.393 49.7548 121.497 54.2321 121.796C58.7095 122.094 63.7838 122.691 62.2913 119.706C60.7989 116.721 59.008 114.632 60.7989 108.662C62.2004 103.991 62.1396 86.5244 62.0468 79.1486C62.0341 78.1356 61.7625 77.1428 61.2577 76.2644C60.7529 75.3861 60.0318 74.6515 59.163 74.1305L56.0231 72.2465Z" fill="#D0CDE1"/>
<path d="M44.3819 117.916C44.3819 117.916 43.0239 120.906 42.8895 122.692C41.8448 136.572 49.4562 122.692 49.4562 122.692V120.304L44.3819 117.916Z" fill="#A0616A"/>
<path d="M65.2761 186.568C65.2761 186.568 60.7988 183.284 60.7988 185.075C60.7988 186.866 55.7245 194.03 55.7245 194.03C55.7245 194.03 47.3668 200 54.2321 200C61.0973 200 64.0822 198.806 64.0822 198.806L71.2459 194.03C71.2459 194.03 73.0368 191.941 72.4398 189.553C71.8429 187.165 69.7535 183.881 69.7535 183.881C69.7535 183.881 67.3656 187.165 65.2761 186.568Z" fill="#2F2E41"/>
<path d="M39.0093 187.463C39.0093 187.463 38.4123 184.478 36.3229 185.971C34.2335 187.463 28.5622 191.94 28.5622 191.94C28.5622 191.94 18.1151 194.328 24.6819 197.313C31.2486 200.298 46.1731 196.119 46.1731 196.119C46.1731 196.119 46.77 186.568 46.1731 186.866C45.5761 187.165 39.3078 188.06 39.0093 187.463Z" fill="#2F2E41"/>
<path opacity="0.1" d="M51.6937 81.6494L52.5891 99.8572L43.9122 117.431L42.4404 116.871L51.3952 100.454L51.6937 81.6494Z" fill="black"/>
<path d="M58.7086 76.1272L60.9472 75.6795C60.9472 75.6795 67.6632 80.6046 65.5738 90.4547C63.4844 100.305 54.2312 115.229 54.2312 115.229C54.2312 115.229 52.1418 117.916 51.5448 118.513C50.9479 119.11 49.7539 118.513 50.3509 119.408C50.9479 120.304 49.4554 120.901 49.4554 120.901C49.4554 120.901 42.8887 120.901 43.4856 118.513C44.0826 116.125 54.2312 99.1109 54.2312 99.1109L52.7388 83.291C52.7388 83.291 51.5448 75.5302 58.7086 76.1272Z" fill="#D0CDE1"/>
<path opacity="0.1" d="M61.5452 103.738V101.648L51.3965 118.364L61.5452 103.738Z" fill="black"/>
<path d="M41.8597 56.6999L40.5767 56.1863C40.5767 56.1863 43.2593 53.2329 46.9916 53.4897L45.9419 52.334C45.9419 52.334 48.5079 51.3068 50.8406 54.0033C52.0668 55.4209 53.4856 57.0871 54.3701 58.9641H55.7441L55.1706 60.2267L57.1777 61.4894L55.1176 61.2626C55.3127 62.3527 55.246 63.4736 54.9228 64.5328L54.978 65.5308C54.978 65.5308 52.5901 61.8362 52.5901 61.3226V62.6067C52.5901 62.6067 51.3071 61.451 51.3071 60.6806L50.6073 61.5794L50.2574 60.1669L45.9419 61.5794L46.6417 60.4238L43.9591 60.809L45.0088 59.3965C45.0088 59.3965 41.9763 61.0658 41.8597 62.4783C41.743 63.8908 40.2268 65.6885 40.2268 65.6885L39.527 64.4044C39.527 64.4044 38.4773 58.626 41.8597 56.6999Z" fill="#2F2E41"/>
</g>
<defs>
<clipPath id="clip0">
<rect width="164.125" height="200" fill="white"/>
</clipPath>
</defs>
</svg>
