<svg width="275" height="200" viewBox="0 0 275 200" fill="none" xmlns="http://www.w3.org/2000/svg">
<g clip-path="url(#clip0)">
<path opacity="0.1" d="M270.252 159.8C263.442 173.851 249.609 183.247 235.278 189.443C223.804 194.371 211.676 197.608 199.272 199.051C196.896 199.333 194.513 199.552 192.122 199.708C186.012 200.106 179.883 200.099 173.774 199.687C170.099 199.443 166.438 199.052 162.789 198.516C150.11 196.666 137.749 193.067 126.059 187.82C122.686 186.301 119.38 184.642 116.143 182.844C110.737 179.847 105.556 176.46 100.643 172.708C99.5565 171.877 98.4832 171.028 97.4235 170.162L96.9877 169.805C96.1545 169.118 95.3291 168.416 94.4907 167.734C93.0973 166.567 91.6182 165.506 90.0659 164.56C89.9608 164.499 89.8557 164.437 89.748 164.378C89.4609 164.212 89.1686 164.055 88.8712 163.907C88.2586 163.598 87.6305 163.32 86.9895 163.076C84.0285 161.948 80.8573 161.538 77.6425 161.607C77.1092 161.607 76.576 161.643 76.0402 161.679C75.2916 161.73 74.5405 161.807 73.7919 161.904L73.515 161.943C71.1296 162.28 68.7711 162.787 66.4573 163.458C62.8836 164.483 59.374 165.765 55.8413 166.921C54.3415 167.416 52.8392 167.888 51.3241 168.311L50.9909 168.403C48.836 169.009 46.6424 169.468 44.4254 169.777C39.3872 170.421 34.27 170.009 29.3999 168.567L29.2307 168.519L28.9179 168.426L28.4898 168.293C27.7719 168.067 27.0601 167.82 26.3542 167.552L25.9261 167.388C25.2425 167.125 24.5734 166.842 23.9188 166.539L23.4907 166.345C22.807 166.027 22.1379 165.691 21.4833 165.337C21.2475 165.214 21.0142 165.081 20.7834 164.955C20.0861 164.565 19.4025 164.157 18.7325 163.73C18.0216 163.277 17.326 162.804 16.6457 162.312C16.3313 162.086 16.0202 161.855 15.7126 161.617C13.9392 160.261 12.2785 158.763 10.7468 157.139C10.6622 157.054 10.5827 156.967 10.5032 156.882C10.0956 156.441 9.6957 155.993 9.30859 155.534C9.16502 155.364 9.02146 155.195 8.88046 155.021C8.42071 154.46 7.9772 153.887 7.54993 153.301C7.48584 153.216 7.42431 153.129 7.36278 153.044C5.61114 150.622 4.15897 147.996 3.03792 145.225C3.00203 145.141 2.9687 145.053 2.93793 144.969C2.59612 144.089 2.2842 143.194 2.0022 142.285C1.88684 141.905 1.7766 141.516 1.67918 141.136C1.64586 141.023 1.61509 140.908 1.58689 140.795C0.171763 135.224 0.0102539 129.433 0.0102539 123.675C0.0102539 123.004 0.0102539 122.333 0.0102539 121.663C0.0512722 112.349 0.194836 102.876 1.56895 93.6909C1.56895 93.6268 1.58689 93.5627 1.59715 93.5012C2.05706 90.4089 2.68263 87.3435 3.47117 84.3182C4.29646 81.1439 5.35118 78.0337 6.62702 75.0122C9.78799 67.5776 14.3846 60.8122 19.4888 54.5415C25.6416 46.9967 32.6916 40.0339 40.544 34.2887C41.672 33.4633 42.8154 32.6617 43.9742 31.8841L44.51 31.5328C44.6971 31.4072 44.8843 31.2765 45.0714 31.1662C45.4559 30.9099 45.8405 30.6689 46.2302 30.4253L46.666 30.1536L47.4966 29.6409L47.753 29.4947L48.1965 29.2384L48.6349 28.982C49.1476 28.6795 49.6663 28.3838 50.191 28.095C52.4316 26.8456 54.7252 25.704 57.0718 24.67C57.764 24.364 58.4605 24.0692 59.1612 23.7855C62.3425 22.4898 65.6106 21.4182 68.9415 20.5784C70.172 20.2673 71.4103 19.9939 72.6562 19.758C74.126 19.4743 75.6035 19.2393 77.0887 19.053C79.4521 18.7557 81.8291 18.5785 84.2105 18.5223C100.956 18.1147 117.871 23.565 130.994 34.0119C136.224 38.1752 140.923 43.1051 146.797 46.2969C151.924 49.0758 157.926 50.2269 163.417 48.0401C167.954 46.2328 170.908 45.3355 176.004 45.6098C186.55 46.2038 196.947 48.3781 206.847 52.0599C207.247 52.206 207.647 52.3573 208.045 52.5086C233.863 62.3914 256.062 82.0161 267.593 107.235C267.897 107.901 268.194 108.573 268.483 109.25C275.361 125.311 277.842 144.141 270.252 159.8Z" fill="#2790DA"/>
<path opacity="0.1" d="M51.3163 71.1129V168.316L50.983 168.408C48.8282 169.014 46.6346 169.473 44.4175 169.782C39.3793 170.426 34.2622 170.014 29.392 168.572L29.2228 168.524L28.9101 168.431L28.4819 168.298C27.7641 168.072 27.0523 167.825 26.3464 167.557L25.9183 167.393C25.2347 167.13 24.5656 166.847 23.911 166.544L23.4828 166.35C22.7992 166.032 22.1301 165.696 21.4755 165.342C21.2397 165.219 21.0064 165.086 20.7756 164.96C20.0783 164.57 19.3947 164.162 18.7247 163.735C18.0137 163.282 17.3181 162.809 16.6379 162.317C16.3234 162.091 16.0124 161.86 15.7047 161.622C13.9313 160.266 12.2707 158.768 10.739 157.144C10.6544 157.059 10.5749 156.972 10.4954 156.887C10.0878 156.446 9.68788 155.998 9.30077 155.539C9.15721 155.37 9.01364 155.2 8.87264 155.026C8.4129 154.465 7.96939 153.892 7.54211 153.306C7.47802 153.221 7.41649 153.134 7.35497 153.049C5.60333 150.627 4.15116 148.002 3.0301 145.23C2.99421 145.146 2.96089 145.059 2.93012 144.974C2.5883 144.094 2.27639 143.199 1.99439 142.29C1.87903 141.91 1.76879 141.521 1.67137 141.141C1.63804 141.029 1.60728 140.913 1.57908 140.8C0.16395 135.23 0.00244141 129.438 0.00244141 123.68C0.00244141 123.009 0.00244141 122.338 0.00244141 121.668C0.0434597 112.354 0.187023 102.882 1.56114 93.696C1.56114 93.6319 1.57908 93.5678 1.58934 93.5063C2.04924 90.414 2.67482 87.3486 3.46336 84.3233H29.6433V71.1129H34.8629V60.502H46.0967V71.1129H51.3163Z" fill="#2790DA"/>
<path opacity="0.1" d="M270.251 159.8C263.442 173.851 249.609 183.247 235.278 189.443C223.804 194.371 211.676 197.608 199.272 199.051C196.896 199.333 194.513 199.552 192.122 199.708C186.012 200.106 179.883 200.099 173.774 199.687C170.099 199.443 166.437 199.052 162.788 198.516C150.11 196.666 137.749 193.066 126.059 187.82C122.685 186.301 119.38 184.642 116.143 182.844C110.736 179.847 105.556 176.459 100.643 172.707C99.5562 171.877 98.4829 171.028 97.4233 170.162L96.9875 169.805C96.1543 169.118 95.3288 168.416 94.4905 167.734C93.0971 166.567 91.618 165.506 90.0656 164.56C89.9605 164.499 89.8554 164.437 89.7477 164.378C89.4606 164.212 89.1684 164.055 88.871 163.906C88.2583 163.598 87.6303 163.32 86.9893 163.076V123.311H134.568V132.163H155.449V67.411H180.026V93.3038H192.183V77.9732H202.228V61.5966H206.842V52.0599C207.242 52.206 207.642 52.3573 208.039 52.5085V61.5966H212.531V77.9834H222.568V93.314H237.367V151.721H260.891V109.244H268.472C275.361 125.311 277.842 144.141 270.251 159.8Z" fill="#2790DA"/>
<path opacity="0.1" d="M173.779 77.1554H162.794V88.1406H173.779V77.1554Z" fill="#2790DA"/>
<path opacity="0.1" d="M173.779 99.9257H162.794V110.911H173.779V99.9257Z" fill="#2790DA"/>
<path opacity="0.1" d="M173.779 122.698H162.794V133.684H173.779V122.698Z" fill="#2790DA"/>
<path opacity="0.1" d="M173.779 145.471H162.794V156.457H173.779V145.471Z" fill="#2790DA"/>
<path opacity="0.1" d="M173.779 168.242H162.794V179.227H173.779V168.242Z" fill="#2790DA"/>
<path opacity="0.1" d="M173.779 191.009V199.685C170.105 199.44 166.443 199.05 162.794 198.513V191.009H173.779Z" fill="#2790DA"/>
<path opacity="0.1" d="M129.064 137.509H90.6118V142.485H129.064V137.509Z" fill="#2790DA"/>
<path opacity="0.1" d="M129.064 152.621H90.6118V157.597H129.064V152.621Z" fill="#2790DA"/>
<path opacity="0.1" d="M129.064 167.734V172.707H100.649C99.5619 171.877 98.4885 171.028 97.4289 170.162L96.9931 169.805C96.1599 169.118 95.3344 168.416 94.4961 167.734H129.064Z" fill="#2790DA"/>
<path opacity="0.1" d="M129.064 182.844V187.82H126.065C122.691 186.301 119.385 184.642 116.148 182.844H129.064Z" fill="#2790DA"/>
<path opacity="0.1" d="M199.277 106.901H192.127V114.051H199.277V106.901Z" fill="#2790DA"/>
<path opacity="0.1" d="M44.4332 73.5791H37.2832V80.7291H44.4332V73.5791Z" fill="#2790DA"/>
<path opacity="0.1" d="M44.4332 90.1915H37.2832V97.3415H44.4332V90.1915Z" fill="#2790DA"/>
<path opacity="0.1" d="M44.4332 106.801H37.2832V113.951H44.4332V106.801Z" fill="#2790DA"/>
<path opacity="0.1" d="M44.4332 123.414H37.2832V130.564H44.4332V123.414Z" fill="#2790DA"/>
<path opacity="0.1" d="M44.4332 140.026H37.2832V147.176H44.4332V140.026Z" fill="#2790DA"/>
<path opacity="0.1" d="M44.4332 156.636H37.2832V163.786H44.4332V156.636Z" fill="#2790DA"/>
<path opacity="0.1" d="M226.577 106.901H219.427V114.051H226.577V106.901Z" fill="#2790DA"/>
<path opacity="0.1" d="M199.277 124.539H192.127V131.689H199.277V124.539Z" fill="#2790DA"/>
<path opacity="0.1" d="M226.577 124.539H219.427V131.689H226.577V124.539Z" fill="#2790DA"/>
<path opacity="0.1" d="M199.277 142.18H192.127V149.33H199.277V142.18Z" fill="#2790DA"/>
<path opacity="0.1" d="M226.577 142.18H219.427V149.33H226.577V142.18Z" fill="#2790DA"/>
<path opacity="0.1" d="M199.277 159.82H192.127V166.97H199.277V159.82Z" fill="#2790DA"/>
<path opacity="0.1" d="M226.577 159.82H219.427V166.97H226.577V159.82Z" fill="#2790DA"/>
<path opacity="0.1" d="M199.277 177.458H192.127V184.608H199.277V177.458Z" fill="#2790DA"/>
<path opacity="0.1" d="M226.577 177.458H219.427V184.608H226.577V177.458Z" fill="#2790DA"/>
<path opacity="0.1" d="M192.127 199.708V195.096H199.277V199.051L192.127 199.708Z" fill="#2790DA"/>
<path opacity="0.1" d="M1.56396 93.5089V97.6107H28.9103V93.5089H1.56396ZM3.99942 97.3543H1.99209V93.7652H3.99942V97.3543ZM6.43489 97.3543H4.42755V93.7652H6.43489V97.3543ZM8.87035 97.3543H6.86301V93.7652H8.87035V97.3543ZM11.3058 97.3543H9.29847V93.7652H11.3058V97.3543ZM13.7413 97.3543H11.7339V93.7652H13.7413V97.3543ZM16.1767 97.3543H14.1694V93.7652H16.1767V97.3543ZM18.6122 97.3543H16.6049V93.7652H18.6122V97.3543ZM21.0476 97.3543H19.0403V93.7652H21.0476V97.3543ZM23.4831 97.3543H21.4758V93.7652H23.4831V97.3543ZM25.9186 97.3543H23.9112V93.7652H25.9186V97.3543ZM28.4822 97.3543H26.3467V93.7652H28.4822V97.3543Z" fill="#2790DA"/>
<path opacity="0.1" d="M1.56396 105.42V109.509H28.9103V105.42H1.56396ZM3.99942 109.252H1.99209V105.676H3.99942V109.252ZM6.43489 109.252H4.42755V105.676H6.43489V109.252ZM8.87035 109.252H6.86301V105.676H8.87035V109.252ZM11.3058 109.252H9.29847V105.676H11.3058V109.252ZM13.7413 109.252H11.7339V105.676H13.7413V109.252ZM16.1767 109.252H14.1694V105.676H16.1767V109.252ZM18.6122 109.252H16.6049V105.676H18.6122V109.252ZM21.0476 109.252H19.0403V105.676H21.0476V109.252ZM23.4831 109.252H21.4758V105.676H23.4831V109.252ZM25.9186 109.252H23.9112V105.676H25.9186V109.252ZM28.4822 109.252H26.3467V105.676H28.4822V109.252Z" fill="#2790DA"/>
<path opacity="0.1" d="M1.56396 117.328V121.417H28.9103V117.328H1.56396ZM3.99942 121.16H1.99209V117.584H3.99942V121.16ZM6.43489 121.16H4.42755V117.584H6.43489V121.16ZM8.87035 121.16H6.86301V117.584H8.87035V121.16ZM11.3058 121.16H9.29847V117.584H11.3058V121.16ZM13.7413 121.16H11.7339V117.584H13.7413V121.16ZM16.1767 121.16H14.1694V117.584H16.1767V121.16ZM18.6122 121.16H16.6049V117.584H18.6122V121.16ZM21.0476 121.16H19.0403V117.584H21.0476V121.16ZM23.4831 121.16H21.4758V117.584H23.4831V121.16ZM25.9186 121.16H23.9112V117.584H25.9186V121.16ZM28.4822 121.16H26.3467V117.584H28.4822V121.16Z" fill="#2790DA"/>
<path opacity="0.1" d="M1.56396 129.225V133.327H28.9103V129.225H1.56396ZM3.99942 133.071H1.99209V129.482H3.99942V133.071ZM6.43489 133.071H4.42755V129.482H6.43489V133.071ZM8.87035 133.071H6.86301V129.482H8.87035V133.071ZM11.3058 133.071H9.29847V129.482H11.3058V133.071ZM13.7413 133.071H11.7339V129.482H13.7413V133.071ZM16.1767 133.071H14.1694V129.482H16.1767V133.071ZM18.6122 133.071H16.6049V129.482H18.6122V133.071ZM21.0476 133.071H19.0403V129.482H21.0476V133.071ZM23.4831 133.071H21.4758V129.482H23.4831V133.071ZM25.9186 133.071H23.9112V129.482H25.9186V133.071ZM28.4822 133.071H26.3467V129.482H28.4822V133.071Z" fill="#2790DA"/>
<path opacity="0.1" d="M1.66895 141.144C1.76636 141.528 1.8766 141.913 1.99196 142.292V141.4H3.9993V144.989H2.92769C2.95846 145.074 2.99179 145.161 3.02768 145.246H28.9205V141.144H1.66895ZM6.43476 144.989H4.42742V141.4H6.43476V144.989ZM8.87022 144.989H6.86289V141.4H8.87022V144.989ZM11.3057 144.989H9.29835V141.4H11.3057V144.989ZM13.7411 144.989H11.7338V141.4H13.7411V144.989ZM16.1766 144.989H14.1693V141.4H16.1766V144.989ZM18.6121 144.989H16.6047V141.4H18.6121V144.989ZM21.0475 144.989H19.0402V141.4H21.0475V144.989ZM23.483 144.989H21.4756V141.4H23.483V144.989ZM25.9184 144.989H23.9111V141.4H25.9184V144.989ZM28.4821 144.989H26.3466V141.4H28.4821V144.989Z" fill="#2790DA"/>
<path opacity="0.1" d="M7.35254 153.052C7.41407 153.137 7.47559 153.224 7.53968 153.308H8.87021V155.029C9.01122 155.2 9.15478 155.37 9.29834 155.541V153.311H11.3057V156.9H10.493C10.5725 156.985 10.6519 157.072 10.7365 157.156H28.9102V153.055L7.35254 153.052ZM13.7411 156.897H11.7338V153.308H13.7411V156.897ZM16.1766 156.897H14.1693V153.308H16.1766V156.897ZM18.6121 156.897H16.6047V153.308H18.6121V156.897ZM21.0475 156.897H19.0402V153.308H21.0475V156.897ZM23.483 156.897H21.4756V153.308H23.483V156.897ZM25.9184 156.897H23.9111V153.308H25.9184V156.897ZM28.4821 156.897H26.3466V153.308H28.4821V156.897Z" fill="#2790DA"/>
<path opacity="0.1" d="M20.7759 164.96C21.0066 165.091 21.2399 165.217 21.4758 165.342V165.217H23.4831V166.35L23.9112 166.545V165.217H25.9185V167.393L26.3467 167.557V165.217H28.4822V168.293L28.9103 168.426V164.96H20.7759Z" fill="#2790DA"/>
<path opacity="0.1" d="M105.099 57.9999C105.099 57.9999 98.9874 57.6307 99.7155 61.912C99.6782 62.1296 99.7106 62.3534 99.8083 62.5514C99.9059 62.7494 100.064 62.9115 100.259 63.0144C100.259 63.0144 100.259 62.6965 100.885 62.8041C101.104 62.8402 101.327 62.8505 101.549 62.8349C101.848 62.8152 102.134 62.6981 102.361 62.5016V62.5016C102.361 62.5016 104.079 61.7915 104.748 58.9843C104.748 58.9843 105.24 58.3716 105.222 58.2152L104.197 58.6562C104.197 58.6562 104.551 59.3996 104.274 60.0175C104.274 60.0175 104.24 58.6844 104.04 58.7151C104.002 58.7151 103.505 58.9715 103.505 58.9715C103.505 58.9715 104.112 60.2687 103.653 61.2095C103.653 61.2095 103.828 59.615 103.317 59.0663L102.574 59.4945C102.574 59.4945 103.284 60.8327 102.802 61.9248C102.802 61.9248 102.928 60.2507 102.423 59.5996L101.764 60.1123C101.764 60.1123 102.43 61.43 102.02 62.3375C102.02 62.3375 101.966 60.3866 101.618 60.2379C101.368 60.4488 101.145 60.6899 100.954 60.9557C100.954 60.9557 101.41 61.912 101.128 62.417C101.128 62.417 100.954 61.1198 100.81 61.1121C100.81 61.1121 100.238 61.9735 100.18 62.5632C100.206 62.0161 100.376 61.4857 100.672 61.025C100.341 61.0874 100.037 61.2452 99.795 61.4787C99.795 61.4787 99.8847 60.8711 100.82 60.8173C100.82 60.8173 101.295 60.1661 101.423 60.1251C101.423 60.1251 100.497 60.0482 99.936 60.2969C99.936 60.2969 100.431 59.7226 101.592 59.9841L102.241 59.4535C102.241 59.4535 101.023 59.2868 100.508 59.4714C100.508 59.4714 101.1 58.9587 102.415 59.333L103.123 58.91C102.579 58.7909 102.022 58.7427 101.466 58.7664C101.466 58.7664 102.118 58.4152 103.33 58.7972L103.843 58.569C103.843 58.569 103.074 58.4203 102.861 58.3972C102.648 58.3742 102.625 58.3126 102.625 58.3126C103.107 58.2323 103.601 58.2874 104.053 58.4716C104.053 58.4716 105.117 58.0665 105.099 57.9999Z" fill="#2790DA"/>
<path opacity="0.1" d="M89.0559 78.8346C89.0559 78.8346 86.9665 84.5874 91.2785 85.1129C91.476 85.2101 91.6991 85.2423 91.916 85.205C92.1328 85.1677 92.3323 85.0628 92.486 84.9053C92.486 84.9053 92.1861 84.8053 92.4629 84.2439C92.5599 84.0444 92.6339 83.8346 92.6834 83.6183C92.7482 83.3246 92.7158 83.0178 92.5911 82.7441V82.7441C92.5911 82.7441 92.3988 80.8958 89.8967 79.4576C89.8967 79.4576 89.4507 78.809 89.2943 78.7833L89.4225 79.8985C89.4225 79.8985 90.2351 79.7703 90.7504 80.2113C90.7504 80.2113 89.4686 79.8652 89.4353 80.0651C89.4353 80.1036 89.5301 80.6522 89.5301 80.6522C89.5301 80.6522 90.9453 80.4369 91.7169 81.1444C91.7169 81.1444 90.2351 80.524 89.566 80.8599L89.766 81.6751C89.766 81.6751 91.2503 81.3777 92.1604 82.1468C92.1604 82.1468 90.5915 81.5546 89.8224 81.852L90.1275 82.6211C90.1275 82.6211 91.581 82.3647 92.3347 83.0031C92.3347 83.0031 90.4479 82.4903 90.2095 82.7929C90.3408 83.0914 90.5078 83.3728 90.7068 83.6312C90.7068 83.6312 91.7554 83.4671 92.1579 83.8875C92.1579 83.8875 90.8632 83.685 90.8171 83.8183C90.8171 83.8183 91.4811 84.613 92.0297 84.8438C91.5145 84.6614 91.0558 84.3477 90.6992 83.9337C90.6652 84.2689 90.7303 84.6067 90.8863 84.9053C90.8863 84.9053 90.3274 84.6489 90.5402 83.7388C90.5402 83.7388 90.048 83.1005 90.048 82.9697C90.048 82.9697 89.7096 83.8337 89.7916 84.4438C89.7916 84.4438 89.3814 83.8055 89.9608 82.7672L89.6378 81.9981C89.6378 81.9981 89.1251 83.1184 89.161 83.6671C89.161 83.6671 88.8431 82.9518 89.5712 81.7956L89.3686 80.9983C89.1003 81.4826 88.8961 81.9996 88.7611 82.5365C88.7611 82.5365 88.6072 81.811 89.3174 80.7573L89.243 80.2087C89.243 80.2087 88.8841 80.8958 88.7995 81.1034C88.7149 81.3111 88.6508 81.3034 88.6508 81.3034C88.7099 80.8186 88.9025 80.3597 89.2071 79.978C89.2071 79.978 89.1251 78.8346 89.0559 78.8346Z" fill="#2790DA"/>
<path opacity="0.1" d="M129.569 73.9841C129.569 73.9841 127.482 79.7472 131.792 80.2599C131.99 80.357 132.214 80.3889 132.431 80.3511C132.648 80.3134 132.848 80.2079 133.002 80.0497C133.002 80.0497 132.699 79.9497 132.979 79.3909C133.077 79.1911 133.15 78.9802 133.197 78.7628C133.262 78.4693 133.231 78.1625 133.107 77.8886C133.107 77.8886 132.915 76.0402 130.413 74.602C130.413 74.602 129.964 73.9559 129.808 73.9303L129.938 75.0429C129.938 75.0429 130.751 74.9173 131.266 75.3582C131.266 75.3582 129.984 75.0122 129.949 75.2096C129.949 75.2506 130.043 75.7966 130.043 75.7966C130.043 75.7966 131.459 75.5839 132.233 76.2889C132.233 76.2889 130.751 75.671 130.079 76.0043L130.282 76.8221C130.282 76.8221 131.766 76.5221 132.676 77.2938C132.676 77.2938 131.105 76.699 130.336 76.9964L130.641 77.7655C130.641 77.7655 132.094 77.5091 132.848 78.1475C132.848 78.1475 130.964 77.6348 130.723 77.9398C130.858 78.2395 131.03 78.5211 131.235 78.7781C131.235 78.7781 132.281 78.6115 132.687 79.0345C132.687 79.0345 131.392 78.832 131.346 78.9679C131.346 78.9679 132.007 79.76 132.556 79.9933C132.041 79.8118 131.583 79.4979 131.228 79.0832C131.194 79.4181 131.258 79.7557 131.412 80.0548C131.412 80.0548 130.856 79.7985 131.069 78.8909C131.069 78.8909 130.577 78.25 130.574 78.1219C130.574 78.1219 130.238 78.9884 130.318 79.596C130.318 79.596 129.907 78.9602 130.487 77.9193L130.164 77.1502C130.164 77.1502 129.651 78.2705 129.687 78.8166C129.687 78.8166 129.369 78.1039 130.097 76.9477L129.892 76.1478C129.624 76.6321 129.42 77.1492 129.285 77.686C129.285 77.686 129.133 76.9605 129.843 75.9069L129.769 75.3582C129.769 75.3582 129.41 76.0453 129.323 76.253C129.236 76.4606 129.174 76.4529 129.174 76.4529C129.235 75.9681 129.428 75.5094 129.733 75.1275C129.733 75.1275 129.641 73.9867 129.569 73.9841Z" fill="#2790DA"/>
<path opacity="0.1" d="M71.6565 121.022C71.6565 121.022 69.5671 126.777 73.8791 127.303C74.0768 127.4 74.3001 127.432 74.5171 127.394C74.7341 127.356 74.9335 127.251 75.0866 127.093C75.0866 127.093 74.7867 126.993 75.0636 126.434C75.1621 126.234 75.2361 126.023 75.284 125.806C75.3502 125.512 75.3178 125.205 75.1917 124.931V124.931C75.1917 124.931 74.9995 123.083 72.4973 121.647C72.4973 121.647 72.0513 120.999 71.8949 120.973L72.0231 122.086C72.0231 122.086 72.8383 121.96 73.351 122.401C73.351 122.401 72.0692 122.055 72.0359 122.252C72.0359 122.293 72.1307 122.839 72.1307 122.839C72.1307 122.839 73.5459 122.627 74.3175 123.332C74.3175 123.332 72.8357 122.714 72.1666 123.047L72.3666 123.865C72.3666 123.865 73.8509 123.565 74.761 124.337C74.761 124.337 73.1921 123.742 72.423 124.039L72.7281 124.808C72.7281 124.808 74.1817 124.552 74.9354 125.19C74.9354 125.19 73.0511 124.678 72.8101 124.983C72.9414 125.281 73.1084 125.563 73.3074 125.821C73.3074 125.821 74.356 125.654 74.761 126.077C74.761 126.077 73.4638 125.875 73.4177 126.011C73.4177 126.011 74.0817 126.803 74.6303 127.036C74.115 126.855 73.6562 126.542 73.2998 126.129C73.2658 126.463 73.3309 126.8 73.4869 127.098C73.4869 127.098 72.928 126.841 73.1408 125.934C73.1408 125.934 72.6512 125.293 72.6486 125.165C72.6486 125.165 72.3102 126.031 72.3922 126.639C72.3922 126.639 71.982 126.003 72.5614 124.962L72.2384 124.193C72.2384 124.193 71.7257 125.313 71.7641 125.859C71.7641 125.859 71.4462 125.147 72.1743 123.991L71.9692 123.193C71.7004 123.677 71.4962 124.194 71.3616 124.731C71.3616 124.731 71.2078 124.003 71.9179 122.952L71.8436 122.401C71.8436 122.401 71.4847 123.088 71.4001 123.296C71.3155 123.503 71.2514 123.496 71.2514 123.496C71.3107 123.011 71.5042 122.552 71.8103 122.17C71.8103 122.17 71.7257 121.022 71.6565 121.022Z" fill="#2790DA"/>
<path opacity="0.1" d="M63.3655 66.7777C63.3655 66.7777 61.2787 72.5305 65.5882 73.0561C65.7861 73.153 66.0095 73.1851 66.2267 73.1479C66.444 73.1106 66.6439 73.0058 66.7982 72.8484C66.7982 72.8484 66.4957 72.7484 66.7751 72.187C66.8718 71.9868 66.9449 71.776 66.993 71.5589C67.0587 71.2663 67.0272 70.9603 66.9033 70.6873C66.9033 70.6873 66.711 68.8389 64.2063 67.4007C64.2063 67.4007 63.7603 66.7521 63.6039 66.7264L63.7346 67.8416C63.7346 67.8416 64.5473 67.7134 65.06 68.1544C65.06 68.1544 63.7782 67.8083 63.7449 68.0083C63.7449 68.0467 63.8397 68.5953 63.8397 68.5953C63.8397 68.5953 65.2549 68.38 66.0291 69.0876C66.0291 69.0876 64.5473 68.4672 63.8756 68.803L64.0756 69.6182C64.0756 69.6182 65.5599 69.3183 66.4726 70.0899C66.4726 70.0899 64.9011 69.4952 64.132 69.7951L64.4371 70.5642C64.4371 70.5642 65.8907 70.3078 66.6444 70.9488C66.6444 70.9488 64.7601 70.436 64.5191 70.7385C64.6504 71.037 64.8174 71.3185 65.0165 71.5769C65.0165 71.5769 66.065 71.4128 66.47 71.8332C66.47 71.8332 65.1754 71.6307 65.1293 71.764C65.1293 71.764 65.7907 72.5587 66.3393 72.7894C65.8244 72.6065 65.3659 72.2929 65.0088 71.8794C64.9748 72.2146 65.0399 72.5524 65.1959 72.851C65.1959 72.851 64.637 72.5946 64.8524 71.6845C64.8524 71.6845 64.3602 71.0462 64.3576 70.9154C64.3576 70.9154 64.0218 71.7794 64.1012 72.3895C64.1012 72.3895 63.6885 71.7512 64.2704 70.7129L63.9449 69.9438C63.9449 69.9438 63.4321 71.0641 63.4706 71.6127C63.4706 71.6127 63.1527 70.8975 63.8808 69.7413L63.6757 68.944C63.4074 69.4282 63.2031 69.9453 63.0681 70.4822C63.0681 70.4822 62.9168 69.7567 63.6244 68.703L63.5526 68.1544C63.5526 68.1544 63.1911 68.8414 63.1065 69.0465C63.0219 69.2516 62.9579 69.2491 62.9579 69.2491C63.0171 68.7638 63.2107 68.3048 63.5167 67.9237C63.5167 67.9237 63.4373 66.7777 63.3655 66.7777Z" fill="#2790DA"/>
<path opacity="0.1" d="M78.8604 98.1054C78.8604 98.1054 80.4729 104.002 84.2978 101.951C84.5152 101.916 84.7161 101.814 84.8717 101.658C85.0273 101.503 85.1298 101.302 85.1643 101.084C85.1643 101.084 84.8618 101.177 84.767 100.559C84.7308 100.34 84.6689 100.125 84.5824 99.9205C84.4688 99.6422 84.2658 99.4095 84.0056 99.2591C84.0056 99.2591 82.7827 97.8593 79.9038 98.126C79.9038 98.126 79.1654 97.8568 79.0219 97.926L79.7704 98.7592C79.7704 98.7592 80.3626 98.1875 81.0369 98.2464C81.0369 98.2464 79.7833 98.7079 79.8756 98.8848C79.8961 98.9207 80.2909 99.3104 80.2909 99.3104C80.2909 99.3104 81.3163 98.3182 82.3623 98.449C82.3623 98.449 80.7959 98.7976 80.4421 99.4591L81.0753 100.01C81.0753 100.01 82.1162 98.9104 83.3057 99.013C83.3057 99.013 81.6778 99.4334 81.2215 100.12L81.9188 100.579C81.9188 100.579 82.9442 99.5257 83.944 99.6206C83.944 99.6206 82.1136 100.295 82.0854 100.674C82.3654 100.843 82.6651 100.976 82.9776 101.072C82.9776 101.072 83.7467 100.333 84.3081 100.438C84.3081 100.438 83.1314 101.02 83.1724 101.156C83.1724 101.156 84.1722 101.413 84.749 101.29C84.2238 101.438 83.6688 101.447 83.1391 101.315C83.304 101.609 83.5519 101.847 83.8518 102C83.8518 102 83.2467 102.11 82.8981 101.246C82.8981 101.246 82.129 101.008 82.047 100.9C82.047 100.9 82.2726 101.802 82.6879 102.253C82.6879 102.253 81.9854 101.969 81.8598 100.784L81.1497 100.341C81.1497 100.341 81.383 101.548 81.7214 101.977C81.7214 101.977 81.0497 101.577 80.9779 100.213L80.3524 99.6795C80.4133 100.233 80.546 100.776 80.7472 101.295C80.7472 101.295 80.2063 100.782 80.1781 99.5206L79.8012 99.113C79.8012 99.113 79.9038 99.8821 79.9525 100.1C80.0012 100.318 79.9525 100.356 79.9525 100.356C79.7215 99.9257 79.615 99.4392 79.6448 98.9515C79.6448 98.9515 78.9193 98.067 78.8604 98.1054Z" fill="#2790DA"/>
<path opacity="0.1" d="M122.606 103.371C122.606 103.371 124.219 109.268 128.041 107.217C128.259 107.183 128.461 107.081 128.617 106.925C128.773 106.769 128.876 106.568 128.91 106.35C128.91 106.35 128.605 106.442 128.511 105.837C128.476 105.618 128.415 105.404 128.328 105.199C128.213 104.921 128.009 104.689 127.749 104.538V104.538C127.749 104.538 126.526 103.138 123.647 103.407C123.647 103.407 122.909 103.135 122.768 103.205L123.514 104.038C123.514 104.038 124.106 103.466 124.78 103.525C124.78 103.525 123.527 103.986 123.622 104.163C123.64 104.199 124.037 104.589 124.037 104.589C124.037 104.589 125.062 103.597 126.108 103.728C126.108 103.728 124.539 104.076 124.186 104.738L124.821 105.289C124.821 105.289 125.847 104.189 127.049 104.292C127.049 104.292 125.424 104.712 124.968 105.399L125.665 105.858C125.665 105.858 126.69 104.804 127.688 104.899C127.688 104.899 125.857 105.573 125.831 105.953C126.111 106.121 126.409 106.255 126.721 106.35C126.721 106.35 127.49 105.612 128.052 105.717C128.052 105.717 126.877 106.299 126.916 106.435C126.916 106.435 127.916 106.691 128.495 106.568C127.969 106.717 127.413 106.726 126.883 106.594C127.048 106.886 127.296 107.124 127.595 107.278C127.595 107.278 126.99 107.388 126.642 106.524C126.642 106.524 125.873 106.286 125.793 106.178C125.793 106.178 126.016 107.081 126.431 107.532C126.431 107.532 125.729 107.247 125.603 106.063L124.893 105.614C124.893 105.614 125.126 106.822 125.467 107.25C125.467 107.25 124.796 106.85 124.724 105.486L124.096 104.953C124.157 105.506 124.29 106.049 124.493 106.568C124.493 106.568 123.95 106.055 123.922 104.794L123.545 104.386C123.545 104.386 123.647 105.155 123.696 105.373C123.745 105.591 123.696 105.63 123.696 105.63C123.465 105.199 123.359 104.713 123.388 104.225C123.388 104.225 122.665 103.333 122.606 103.371Z" fill="#2790DA"/>
<path d="M106.194 162.586C106.194 162.586 119.494 158.108 116.741 142.239L99.8462 137.852L95.9238 150.873L106.194 162.586Z" fill="#CED7E7"/>
<path opacity="0.1" d="M95.9238 150.873L106.191 162.586C106.191 162.586 119.491 158.107 116.738 142.239L95.9238 150.873Z" fill="black"/>
<path d="M40.0363 33.6376C40.0363 33.6376 41.8309 36.5576 44.2843 35.0989C46.7377 33.6401 44.3843 29.6101 44.3843 29.6101C44.3843 29.6101 39.6851 28.9666 40.0363 33.6376Z" fill="#FED253"/>
<path opacity="0.1" d="M44.2844 35.0988C43.995 35.2861 43.6704 35.4122 43.3305 35.4695C42.9906 35.5269 42.6426 35.5141 42.3078 35.4321C41.408 35.2039 40.7158 34.5118 40.344 34.058C40.2331 33.9251 40.1304 33.7855 40.0364 33.6401C39.9108 31.9738 40.4286 30.9816 41.1465 30.3971C42.1335 29.5947 43.4999 29.5614 44.0895 29.587C44.2715 29.587 44.3766 29.6126 44.3766 29.6126L44.4254 29.6947C44.4946 29.8254 44.6458 30.1151 44.8073 30.5022C45.356 31.7712 46.0097 34.0708 44.2844 35.0988Z" fill="black"/>
<path d="M107.501 141.493L116.73 142.239L133.907 142.38L120.373 159.043C120.373 159.043 116.079 159.277 115.195 159.882C114.31 160.487 101.892 160.164 101.892 160.164L99.8872 151.622L107.501 141.493Z" fill="#FFA2A2"/>
<path opacity="0.05" d="M107.501 141.493L116.73 142.239L133.907 142.38L120.373 159.043C120.373 159.043 116.079 159.277 115.195 159.882C114.31 160.487 101.892 160.164 101.892 160.164L99.8872 151.622L107.501 141.493Z" fill="black"/>
<path d="M98.1672 96.6903L100.313 100.331L100.78 106.678C100.78 106.678 102.274 112.09 103.394 113.677C104.515 115.264 104.981 119.466 104.981 119.466C104.981 119.466 105.448 123.386 106.007 124.224C106.566 125.062 107.314 131.146 107.314 131.146C107.314 131.146 112.262 141.039 116.741 142.251C116.741 142.251 94.5269 149.532 106.194 162.599C106.194 162.599 97.8878 164.65 95.9266 162.32C93.9654 159.989 88.833 125.452 88.833 125.452L90.4199 96.3289L98.1672 96.6903Z" fill="#CED7E7"/>
<path opacity="0.05" d="M98.1672 96.6903L100.313 100.331L100.78 106.678C100.78 106.678 102.274 112.09 103.394 113.677C104.515 115.264 104.981 119.466 104.981 119.466C104.981 119.466 105.448 123.386 106.007 124.224C106.566 125.062 107.314 131.146 107.314 131.146C107.314 131.146 112.262 141.039 116.741 142.251C116.741 142.251 94.5269 149.532 106.194 162.599C106.194 162.599 97.8878 164.65 95.9266 162.32C93.9654 159.989 88.833 125.452 88.833 125.452L90.4199 96.3289L98.1672 96.6903Z" fill="black"/>
<path d="M71.2156 61.2121C70.5922 64.4458 70.7772 67.7833 71.754 70.9283L68.2982 80.8214C68.2982 80.8214 41.9772 66.1676 44.2179 62.6195C45.4869 60.6071 45.6484 55.2824 45.5458 51.0524C45.4715 47.8376 45.2433 45.2585 45.2433 45.2585C45.2433 45.2585 77.5452 48.4349 73.246 55.8079C72.2731 57.4837 71.5868 59.3102 71.2156 61.2121V61.2121Z" fill="#FFA2A2"/>
<path opacity="0.1" d="M73.2458 55.8079C72.2729 57.4837 71.5867 59.3102 71.2154 61.2121C66.4217 62.7456 61.2449 62.5715 56.565 60.7193C51.8852 58.8671 47.9914 55.4512 45.5457 51.0524C45.4713 47.8376 45.2432 45.2585 45.2432 45.2585C45.2432 45.2585 77.5374 48.4349 73.2458 55.8079Z" fill="black"/>
<path d="M86.3129 39.939C86.3151 43.3611 85.5098 46.7355 83.9624 49.7878C82.415 52.8401 80.1692 55.4842 77.4076 57.5052C74.646 59.5262 71.4464 60.867 68.069 61.4186C64.6916 61.9703 61.2318 61.7172 57.9706 60.68C54.7094 59.6427 51.7391 57.8506 49.3009 55.4493C46.8627 53.0479 45.0256 50.1052 43.9389 46.8602C42.8521 43.6152 42.5464 40.1596 43.0466 36.7742C43.5467 33.3888 44.8387 30.1692 46.8174 27.3771C47.125 26.9447 47.4489 26.5226 47.789 26.1107C49.727 23.7553 52.1385 21.8337 54.8672 20.4707V20.4707C56.3477 19.73 57.9091 19.1639 59.5202 18.7838C62.4293 18.0946 65.4491 18.0114 68.3918 18.5394C71.3344 19.0673 74.1369 20.1951 76.625 21.8526C79.113 23.5102 81.2334 25.6619 82.8542 28.174C84.475 30.6862 85.5616 33.5049 86.0462 36.455C86.2273 37.6074 86.3165 38.7724 86.3129 39.939Z" fill="#FFA2A2"/>
<path d="M94.8984 129.361C94.5728 131.1 94.9804 134.276 95.5983 137.509C95.6239 137.65 95.6521 137.791 95.6803 137.932C95.7085 138.073 95.7495 138.291 95.7854 138.467C96.07 139.857 96.3802 141.234 96.6827 142.485C96.9852 143.736 97.2569 144.807 97.4877 145.689C97.8363 147.009 98.0747 147.84 98.0747 147.84C98.0747 147.84 98.1055 148.655 98.1465 149.953C98.1696 150.701 98.1952 151.614 98.2209 152.621C98.2209 152.914 98.2388 153.211 98.2465 153.519C98.2593 154.054 98.2721 154.611 98.2849 155.18C98.2849 155.364 98.285 155.549 98.2978 155.736C98.2978 156.349 98.3208 156.974 98.3311 157.597C98.3439 158.454 98.3542 159.31 98.3593 160.14C98.3593 160.458 98.3593 160.771 98.3593 161.079C98.3593 161.873 98.3593 162.635 98.3593 163.335C98.3311 165.322 98.2516 166.821 98.0824 167.255C98.0235 167.403 97.9696 167.565 97.9183 167.734C97.6961 168.53 97.5349 169.341 97.4364 170.162L97.0006 169.805C96.1674 169.118 95.3419 168.416 94.5036 167.734C93.1102 166.567 91.6311 165.506 90.0787 164.56C89.9736 164.499 89.8685 164.437 89.7608 164.378C89.4737 164.212 89.1815 164.055 88.8841 163.906C88.2714 163.598 87.6434 163.32 87.0024 163.076C84.0414 161.948 80.8701 161.538 77.6553 161.607C76.3735 162.097 75.5403 162.448 75.5403 162.448L73.9098 162.94L73.6381 163.022C71.8717 163.56 69.3876 164.324 68.4929 164.642C67.047 165.155 54.4928 167.767 54.4928 167.767C53.3459 168.08 52.1743 168.295 50.9909 168.408C48.836 169.014 46.6425 169.473 44.4254 169.782C39.3872 170.426 34.2701 170.014 29.3999 168.572C29.2545 168.581 29.1087 168.577 28.9641 168.559C29.0538 168.559 29.141 168.539 29.2204 168.524L28.9077 168.431L28.4795 168.298C27.7617 168.072 27.0499 167.825 26.344 167.557L25.9159 167.393C25.2323 167.13 24.5631 166.847 23.9086 166.544L23.4804 166.35C22.7968 166.032 22.1277 165.696 21.4731 165.342C21.2372 165.219 21.004 165.086 20.7732 164.96C20.0759 164.57 19.3923 164.162 18.7223 163.735C18.6095 162.768 18.5505 162.122 18.5505 162.122L17.5507 157.144L17.4995 156.887L16.7816 153.298L16.7304 153.042L15.1691 145.233L15.1178 144.977L14.4 141.387L14.3487 141.131L12.767 133.327L12.7157 133.071L11.9979 129.482L11.9466 129.226L10.3777 121.406L10.3264 121.15L9.60856 117.574L9.55729 117.317L9.27273 115.907L8.8446 113.772C8.8446 113.772 7.47818 111.818 5.93999 109.509L5.76823 109.252C5.32984 108.604 4.87864 107.929 4.44026 107.268C4.29413 107.05 4.15313 106.835 4.01213 106.622C3.7985 106.299 3.59169 105.984 3.39173 105.676L3.25329 105.463L3.22509 105.42C1.01523 102 2.49445 100.513 2.49445 100.513C2.49445 100.513 3.42249 99.2565 4.61971 97.5953C4.67868 97.5107 4.74021 97.4261 4.8043 97.3389C5.31703 96.6211 5.88103 95.8366 6.43477 95.0522L6.8629 94.442C7.02441 94.2138 7.18336 93.9857 7.33717 93.7601C7.3987 93.6755 7.45767 93.5883 7.51407 93.5037C8.69591 91.7963 9.67009 90.3069 9.87005 89.7787C10.1828 88.9456 12.1773 86.4819 14.1642 84.3207C15.7305 82.6134 17.2892 81.0957 17.9891 80.7317C19.576 79.8933 20.2297 77.1836 20.2297 77.1836C20.2297 77.1836 23.683 75.9735 24.1495 75.0404C24.6161 74.1072 31.1508 69.9131 31.1508 69.9131C31.1508 69.9131 33.794 68.2108 34.863 67.1854C35.0143 67.0513 35.1463 66.8968 35.2552 66.7265C35.627 66.0599 38.0547 65.5113 39.0417 65.3139C39.2981 65.2626 39.4571 65.2344 39.4571 65.2344C39.8555 64.5104 40.3592 63.8495 40.9517 63.2732C41.3541 62.9169 41.8566 61.6889 42.2796 60.4994C42.7385 59.2022 43.0949 57.9537 43.0949 57.9537C43.8434 55.4336 45.3355 56.1797 45.3355 56.1797C45.3334 56.5239 45.3661 56.8674 45.4329 57.2051C46.0559 60.2815 49.4399 61.5633 51.2165 63.0015C53.1777 64.5858 56.2566 68.6954 58.6844 69.5337C60.6943 70.2284 63.0246 72.8485 63.7629 73.7227L63.8193 73.7893C63.9424 73.9329 64.0039 74.0149 64.0039 74.0149C64.0039 74.0149 65.3806 73.9431 66.2189 73.9277H66.524C66.6945 73.9106 66.8565 73.8448 66.9906 73.738C67.8238 73.1715 69.0646 71.5102 69.6055 71.1282C70.2566 70.6591 70.9129 63.0989 70.9129 63.0989L70.9463 63.0835C73.2715 61.994 75.7659 72.8997 75.7659 72.8997C75.7659 72.8997 80.1523 74.2072 80.5266 75.1403C80.5984 75.3249 80.9291 75.6531 81.4264 76.0504C83.691 77.7811 86.1013 79.3122 88.6303 80.6265C88.6867 80.6547 88.7405 80.6829 88.7969 80.706C88.8477 80.7334 88.8999 80.7582 88.9533 80.7804C89.0481 80.8265 89.1404 80.8675 89.2276 80.906C89.366 80.9675 89.4942 81.0188 89.6121 81.0598L89.766 81.1136C90.1334 81.2359 90.4794 81.4149 90.7914 81.6443C90.8837 81.711 90.976 81.7802 91.0657 81.8545C91.4148 82.1451 91.7359 82.4678 92.0245 82.8185C92.0681 82.8697 92.1091 82.9236 92.1502 82.9748C92.345 83.2184 92.5193 83.4594 92.6629 83.6824C92.8985 84.0265 93.1134 84.3843 93.3064 84.754C93.3064 84.754 97.1313 91.2887 98.3465 92.0322C99.5616 92.7756 100.308 100.341 100.308 100.341L96.2058 115.546C96.2058 115.546 96.0136 119.391 95.6547 123.314C95.4547 125.513 95.2009 127.751 94.8984 129.361Z" fill="#CED7E7"/>
<path d="M64.0038 74.4764C64.0038 74.4764 61.253 75.9684 59.1047 76.1094C58.8234 76.1225 58.5416 76.1062 58.2638 76.0607C56.0129 75.7198 52.7109 73.8688 52.7109 73.8688L56.5846 69.6208L61.2966 71.9563L63.0296 73.5689L64.0038 74.4764Z" fill="#63667E"/>
<path opacity="0.1" d="M86.0359 36.455C85.9384 36.5928 85.8277 36.7208 85.7052 36.837C84.3567 38.1188 81.9623 37.5881 80.1241 37.2907C78.5269 37.0296 76.9665 36.5786 75.4762 35.9474C74.179 35.3936 72.6229 34.7168 71.4565 35.5116C71.0078 35.8141 70.7002 36.2986 70.2336 36.5652C69.767 36.8318 69.1723 36.8498 68.6211 36.8575C66.8265 36.8575 65.032 36.878 63.281 36.4729C60.6687 35.8628 57.9666 34.3272 55.4824 35.3398C53.5392 36.1294 52.4855 38.2444 51.96 40.2774C51.7036 41.2746 51.5139 42.3283 50.9345 43.1743C50.3551 44.0203 49.2348 44.6202 48.2811 44.2228C46.8737 43.6357 46.666 41.2464 44.9689 41.1259C43.1051 40.9952 43.1282 42.9205 43.6717 44.3126C44.4767 46.3635 45.5303 48.4144 45.5765 50.5525C43.5734 46.9648 42.627 42.8834 42.8465 38.7804C43.0661 34.6773 44.4428 30.7202 46.8173 27.3669C47.2305 27.111 47.5539 26.7329 47.7428 26.285C47.7618 26.2245 47.7772 26.1628 47.7889 26.1004C47.9299 25.3852 47.5325 24.634 47.5095 23.8855C47.4197 22.0576 49.3989 20.7834 51.2139 20.5527C52.4214 20.3989 53.6571 20.5168 54.8671 20.4784C55.4766 20.4649 56.0828 20.3841 56.6745 20.2374C57.6953 19.9315 58.6512 19.4405 59.4945 18.7889C62.4036 18.0998 65.4234 18.0166 68.366 18.5445C71.3086 19.0725 74.1112 20.2003 76.5992 21.8578C79.0873 23.5153 81.2077 25.667 82.8285 28.1792C84.4493 30.6913 85.5358 33.5101 86.0205 36.4601L86.0359 36.455Z" fill="black"/>
<path d="M86.4743 34.945C86.3465 35.4521 86.0802 35.9136 85.7052 36.2781C84.3567 37.5599 81.9622 37.0267 80.1241 36.7293C78.5268 36.4739 76.9661 36.0262 75.4762 35.3962C74.179 34.845 72.6229 34.1682 71.4564 34.9629C71.0078 35.2655 70.7002 35.75 70.2336 36.0166C69.767 36.2832 69.1722 36.3012 68.6211 36.3063C66.8265 36.3191 65.032 36.3294 63.281 35.9243C60.6686 35.3116 57.9666 33.7785 55.4824 34.7886C53.5391 35.5782 52.4855 37.6958 51.9599 39.7288C51.7036 40.726 51.5139 41.7797 50.9345 42.6231C50.3551 43.4666 49.2348 44.0716 48.2811 43.6742C46.8737 43.0871 46.666 40.6978 44.9689 40.5773C43.1051 40.4466 43.1282 42.3719 43.6717 43.7639C44.6254 46.1917 45.9226 48.6067 45.497 51.1806C45.074 51.1806 44.3741 51.1652 43.9588 51.1549C44.2818 50.6037 43.6666 49.9474 43.0539 49.7603C42.4411 49.5731 41.7259 49.5757 41.2593 49.1296C40.7927 48.6836 40.7902 47.9939 40.8389 47.3761C40.9452 46.0556 41.2683 44.7616 41.7951 43.546C42.1309 42.7769 42.5642 41.9437 42.3078 41.1388C42.1539 40.7739 41.9687 40.4231 41.7541 40.0902C41.2208 39.0648 41.3465 37.783 41.8028 36.7242C41.9976 36.273 42.1386 35.8474 42.3001 35.4423C42.5041 34.8666 42.7993 34.3273 43.1743 33.8452C43.7614 33.1146 44.3357 32.0148 43.6871 31.3354C43.523 31.1636 43.8511 31.0457 43.746 30.8227C43.7275 30.7846 43.7145 30.744 43.7076 30.7022C43.6774 30.4321 43.7427 30.16 43.8922 29.9331C43.9224 29.8741 43.9558 29.8168 43.9921 29.7613C44.0216 29.7027 44.055 29.6462 44.0921 29.5921C44.6598 28.6443 45.4143 27.8218 46.3097 27.1746C46.866 26.7721 47.5171 26.385 47.7376 25.7338C47.994 24.9647 47.5428 24.1469 47.5043 23.3343C47.4146 21.5064 49.3937 20.2323 51.2088 20.0015C53.0239 19.7708 54.9056 20.1528 56.6745 19.6836C59.1843 19.0222 60.9481 16.8072 63.2271 15.5639C64.4739 14.8972 65.8566 14.5243 67.2695 14.4737C68.6824 14.423 70.0882 14.6959 71.3795 15.2716C74.0406 16.4868 76.0479 18.9427 78.8269 19.8657C79.8113 20.1938 80.8778 20.3246 81.7648 20.868C82.7903 21.4987 83.4133 22.6011 83.9465 23.6881C84.7592 25.3365 84.9233 26.9926 85.4847 28.7384C85.9308 30.1228 86.5486 31.9327 86.5999 33.5273C86.6287 34.0035 86.5864 34.4813 86.4743 34.945V34.945Z" fill="#896363"/>
<g opacity="0.1">
<path opacity="0.1" d="M44.0205 31.7327C44.0616 31.5687 44.0656 31.3975 44.0323 31.2317C43.9991 31.0659 43.9294 30.9095 43.8282 30.7739C43.8949 30.9739 43.6052 31.0893 43.7642 31.2559C43.8908 31.389 43.9793 31.5537 44.0205 31.7327Z" fill="black"/>
<path opacity="0.1" d="M43.8204 30.1869C43.7902 30.2764 43.7721 30.3695 43.7666 30.4638C43.8153 30.3817 43.8819 30.2971 43.8204 30.1869Z" fill="black"/>
<path opacity="0.1" d="M85.7768 35.6526C84.4258 36.9344 82.0339 36.4037 80.1906 36.1038C78.5944 35.8468 77.0354 35.3965 75.5479 34.763C74.2481 34.2092 72.6945 33.5324 71.5255 34.3272C71.0795 34.6297 70.7718 35.1142 70.3027 35.3808C69.8335 35.6474 69.2413 35.6654 68.6901 35.6705C66.8956 35.6705 65.101 35.6936 63.3475 35.286C60.7377 34.6758 58.0356 33.1453 55.5515 34.1528C53.6082 34.945 52.5546 37.06 52.029 39.093C51.7727 40.0902 51.5855 41.1439 51.0036 41.9899C50.4216 42.8359 49.3013 43.4358 48.3502 43.041C46.9428 42.4513 46.7351 40.0646 45.038 39.9441C43.7126 39.8492 43.3434 40.7978 43.4331 41.8514C43.51 41.0465 43.9459 40.4261 45.038 40.503C46.7351 40.6235 46.9428 43.0128 48.3502 43.5998C49.3013 43.9972 50.4242 43.3999 51.0036 42.5488C51.583 41.6976 51.7727 40.6491 52.029 39.6544C52.5546 37.6214 53.6082 35.5039 55.5515 34.7143C58.0356 33.7042 60.7377 35.227 63.3475 35.8474C65.0908 36.255 66.9007 36.2422 68.6901 36.2294C69.2413 36.2294 69.8233 36.214 70.3027 35.9422C70.7821 35.6705 71.0718 35.1911 71.5255 34.886C72.6945 34.0939 74.2481 34.7707 75.5479 35.3218C77.0357 35.9551 78.5946 36.4061 80.1906 36.6652C82.0339 36.9626 84.4258 37.4984 85.7768 36.2114C86.51 35.5116 86.7305 34.4989 86.6818 33.3914C86.6408 34.2707 86.3844 35.068 85.7768 35.6526Z" fill="black"/>
<path opacity="0.1" d="M47.5938 22.8702C47.5796 22.9979 47.5745 23.1264 47.5784 23.2548C47.6041 23.788 47.8066 24.3213 47.8707 24.8417C47.9655 24.2033 47.6707 23.5368 47.5938 22.8702Z" fill="black"/>
<path opacity="0.1" d="M42.3846 41.0593C42.4058 41.136 42.4221 41.2139 42.4334 41.2926C42.4749 41.0282 42.4583 40.7578 42.3846 40.5005C42.2318 40.1343 42.0465 39.7825 41.8309 39.4494C41.6383 39.0701 41.5241 38.656 41.4951 38.2316C41.4429 38.8442 41.5591 39.4594 41.8309 40.0108C42.047 40.3427 42.2323 40.6937 42.3846 41.0593Z" fill="black"/>
<path opacity="0.1" d="M45.5664 50.5397L44.0667 50.5166C44.1016 50.6072 44.1157 50.7045 44.1077 50.8013C44.0997 50.8981 44.0699 50.9918 44.0205 51.0754C44.4435 51.0754 45.146 51.0908 45.5587 51.1011C45.6304 50.6623 45.6553 50.2172 45.6331 49.7731C45.6272 50.0298 45.605 50.2858 45.5664 50.5397Z" fill="black"/>
<path opacity="0.1" d="M43.1128 49.1219C42.5001 48.9373 41.7874 48.9348 41.3311 48.4861C41.0625 48.1923 40.911 47.8101 40.9055 47.412C40.8671 48.0016 40.9055 48.6374 41.3311 49.0476C41.7874 49.4962 42.5001 49.4988 43.1128 49.6834C43.3122 49.7414 43.4976 49.8395 43.6576 49.9717C43.8176 50.104 43.9489 50.2676 44.0434 50.4525C44.3024 49.9218 43.7076 49.2988 43.1128 49.1219Z" fill="black"/>
</g>
<path opacity="0.1" d="M89.753 164.378C89.4659 164.212 89.1736 164.055 88.8763 163.907C88.2636 163.598 87.6356 163.32 86.9946 163.076C84.0335 161.948 80.8623 161.538 77.6475 161.607C76.3657 162.097 75.5325 162.448 75.5325 162.448L73.902 162.94L73.6303 163.022C73.6123 162.843 73.5918 162.663 73.5739 162.481C73.5559 162.299 73.5354 162.125 73.5149 161.945C72.9406 156.508 72.4894 150.922 72.4894 150.922V146.097V145.535L72.4587 131.32L72.2023 126.634L72.0818 124.56L72.0588 124.165L72.0126 123.355L71.987 122.873C71.9304 122.72 71.8825 122.564 71.8434 122.406C71.8255 122.342 71.8075 122.27 71.7921 122.196C71.728 121.94 71.6588 121.609 71.587 121.25C71.1179 118.892 70.5308 114.915 70.4949 114.108C70.4488 113.031 69.5156 106.591 69.5156 106.591C69.4208 103.046 66.4392 96.3699 65.6881 95.1112C64.9369 93.8524 64.0986 86.2897 64.3806 85.8821C64.5268 85.6642 64.6216 84.3747 64.6806 83.1851C64.6806 83.0493 64.6934 82.9159 64.6985 82.7852C64.737 81.8546 64.7549 81.0778 64.7549 81.0778L67.6877 80.4984L68.4748 80.3446L68.5363 80.3318L68.5619 80.3831C68.6465 80.5394 68.9106 81.0394 69.2208 81.6956C69.2567 81.7649 69.29 81.8392 69.3259 81.9136C69.3413 81.9494 69.3592 81.9853 69.3772 82.0212C69.9514 83.2774 70.6154 84.931 70.5872 85.8821C70.5411 87.5638 72.4561 91.6246 72.4561 91.6246C72.6407 92.5578 76.7015 101.843 76.7015 101.843C76.7015 101.843 80.0163 110.944 79.8292 112.439C79.642 113.933 81.4161 123.827 81.4161 123.827L83.2362 134.002C84.1207 136.006 85.2872 140.626 85.2872 140.626L85.7307 143.246L85.8153 143.746L86.9971 150.737L87.5765 154.162C87.5765 154.162 87.82 155.982 88.1892 158.008C88.22 158.19 88.2559 158.374 88.2918 158.559C88.5192 159.892 88.8422 161.207 89.2582 162.494C89.4646 163.11 89.6299 163.74 89.753 164.378V164.378Z" fill="black"/>
<path d="M90.0708 164.56C89.9657 164.499 89.8606 164.437 89.7529 164.378C89.4658 164.212 89.1736 164.055 88.8762 163.906C88.2635 163.598 87.6355 163.32 86.9945 163.076C84.0335 161.948 80.8622 161.538 77.6474 161.607C76.3656 162.097 75.5324 162.448 75.5324 162.448L73.9019 162.94C73.8814 162.761 73.8635 162.581 73.843 162.399C73.8225 162.217 73.8071 162.071 73.7917 161.907C73.2175 156.482 72.7663 150.922 72.7663 150.922V146.051V145.489L72.7355 131.31L72.4791 126.834L72.4278 125.906L72.392 125.277L72.3458 124.447L72.2997 123.603L72.2663 122.996V122.863C72.2663 122.85 72.2663 122.834 72.2484 122.819C72.1997 122.681 72.1407 122.47 72.0766 122.204L72.0459 122.076C72.033 122.017 72.0177 121.952 72.0048 121.888C71.5229 119.702 70.8153 114.987 70.7769 114.103C70.7307 113.026 69.7975 106.586 69.7975 106.586C69.7027 103.04 66.7212 96.3647 65.97 95.106C65.2189 93.8472 64.3831 86.2845 64.6626 85.8769C64.8241 85.6205 64.9189 84.0644 64.9805 82.78C64.9805 82.6775 64.9805 82.5775 64.9805 82.4826C65.0138 81.6905 65.0266 81.0726 65.0266 81.0726L67.7543 80.5343L68.4465 80.3984L68.5542 80.3779L68.8105 80.3266C68.8105 80.3266 69.1464 80.947 69.5489 81.8007L69.6002 81.9084C70.1872 83.1748 70.882 84.8976 70.8615 85.8769C70.8153 87.5586 72.7304 91.6194 72.7304 91.6194C72.9149 92.5526 76.9757 101.838 76.9757 101.838C76.9757 101.838 80.2905 110.939 80.1034 112.434C79.9162 113.928 81.6903 123.821 81.6903 123.821L83.5105 133.996C84.3949 136.001 85.5614 140.621 85.5614 140.621L85.9741 143.061L86.0587 143.556L86.9893 149.073L87.8482 154.157C87.8482 154.157 88.1045 155.969 88.4583 158.002C88.4916 158.187 88.525 158.372 88.5608 158.559C88.7879 159.898 89.1109 161.219 89.5273 162.512C89.7546 163.182 89.9362 163.866 90.0708 164.56V164.56Z" fill="#63667E"/>
<path d="M87.7587 32.8941C87.7587 32.8941 86.7794 34.1554 85.8949 34.1554C85.0105 34.1554 81.5675 34.0144 79.7729 33.4555C77.9784 32.8966 69.18 32.4737 69.18 32.4737C69.18 32.4737 56.7207 32.5198 56.3002 32.0994C55.8798 31.6789 48.5529 29.4383 47.8069 29.5793C47.6505 29.6101 47.2685 29.6767 46.7583 29.7613L46.1738 29.8562C45.2894 29.9972 44.1844 30.1612 43.1744 30.2817C41.9259 30.4279 40.8286 30.5022 40.48 30.374V29.2999C40.48 29.2999 41.9259 27.1977 42.0182 26.5952C42.1105 25.9928 43.3256 17.2584 46.4994 14.1334C47.8106 11.6269 49.9325 9.63878 52.5188 8.49334C56.813 6.62445 61.1071 5.04012 61.1071 5.04012L61.8582 4.93244L64.2808 4.57353C64.3545 4.50022 64.4342 4.43333 64.5193 4.37357C65.1909 3.86084 67.2265 2.74566 69.8798 5.14266L70.349 5.89125C70.349 5.89125 78.5142 7.80372 82.293 14.4769C86.0718 21.15 86.2615 27.6848 86.541 30.6714C86.541 30.6714 86.3538 31.5123 86.7281 31.8379C86.8636 31.9576 86.9928 32.0842 87.1152 32.2173C87.1485 32.2506 87.1819 32.2839 87.2126 32.3198C87.3203 32.4275 87.4203 32.5403 87.5023 32.6326C87.5121 32.6398 87.5208 32.6484 87.528 32.6582C87.548 32.6825 87.5694 32.7056 87.592 32.7274L87.7587 32.8941Z" fill="#FED253"/>
<path opacity="0.05" d="M87.7588 32.8941C87.7588 32.8941 86.7795 34.1554 85.895 34.1554C85.0105 34.1554 81.5676 34.0144 79.773 33.4556C77.9785 32.8967 69.18 32.4737 69.18 32.4737C69.18 32.4737 56.7207 32.5198 56.3003 32.0994C55.8799 31.679 48.553 29.4383 47.807 29.5793C47.6506 29.6101 47.2686 29.6768 46.7584 29.7614L46.6251 28.941L46.5918 28.7385C46.5918 28.7385 60.7328 25.7057 70.1594 27.2951C79.5859 28.8846 86.541 30.6535 86.541 30.6535C86.541 30.6535 86.3539 31.4944 86.7282 31.82C86.8637 31.9397 86.9929 32.0663 87.1153 32.1994C87.1486 32.2327 87.1819 32.266 87.2127 32.3019C87.3204 32.4096 87.4204 32.5224 87.5024 32.6147C87.5122 32.6219 87.5208 32.6305 87.528 32.6403C87.5481 32.6646 87.5695 32.6877 87.5921 32.7095L87.7588 32.8941Z" fill="black"/>
<path opacity="0.1" d="M86.4743 34.945C84.7284 35.0809 81.511 34.6553 80.1036 34.4477C79.7037 34.3887 79.3114 34.3169 78.9166 34.2298C77.4066 33.9016 72.7639 32.9813 69.9439 33.4068C66.5368 33.9196 56.9231 32.9864 56.9231 32.9864C56.9231 32.9864 50.996 31.7738 48.6144 30.7945C47.7402 30.433 46.2789 30.3202 44.8253 30.4997C44.4546 30.5459 44.0866 30.6118 43.7229 30.6971C41.7387 31.1662 40.0646 32.2353 40.3543 34.058C40.2434 33.9251 40.1407 33.7855 40.0467 33.6401C39.921 31.9738 40.4389 30.9816 41.1567 30.3971L41.3259 30.3279C42.2028 30.0787 43.0952 29.8878 43.9972 29.7562C44.1382 29.7331 44.2844 29.7126 44.4331 29.6947C46.9839 29.3512 50.673 29.2742 53.7852 30.8406C53.7852 30.8406 56.677 32.1968 58.6382 32.1968C60.5994 32.1968 76.5581 32.3378 80.2933 33.4094C81.0369 33.6242 81.7952 33.7845 82.5621 33.8888C83.9239 34.0644 85.3077 33.9339 86.6127 33.5068C86.6394 33.9905 86.5927 34.4754 86.4743 34.945V34.945Z" fill="black"/>
<path opacity="0.1" d="M87.7587 32.8941C87.7587 32.8941 86.7794 34.1554 85.8949 34.1554C85.0105 34.1554 81.5675 34.0144 79.7729 33.4556C77.9784 32.8967 69.18 32.4737 69.18 32.4737C69.18 32.4737 56.7207 32.5198 56.3002 32.0994C55.8798 31.679 48.5529 29.4383 47.8069 29.5793C47.6505 29.6101 47.2685 29.6768 46.7583 29.7614L46.1738 29.8562C45.1586 29.851 44.1481 29.9944 43.1744 30.2818C41.9259 30.4279 40.8286 30.5022 40.48 30.3741V30.1613C40.7488 30.0053 41.029 29.8699 41.3183 29.7562C43.0483 29.2718 44.8297 28.9947 46.625 28.9307C48.8631 28.8487 51.4806 29.1102 53.7802 30.269C53.7802 30.269 56.672 31.6251 58.6331 31.6251C60.5943 31.6251 76.553 31.7636 80.2882 32.8377C81.0322 33.0505 81.7904 33.2099 82.557 33.3146C84.2393 33.5266 85.9477 33.2812 87.5023 32.6044C87.5121 32.6116 87.5208 32.6203 87.528 32.6301C87.548 32.6543 87.5694 32.6774 87.592 32.6993L87.7587 32.8941Z" fill="black"/>
<path d="M40.3902 34.0144C40.3902 34.0144 37.2625 31.6328 41.3234 30.0459C41.3234 30.0459 48.417 27.854 53.7852 30.5586C53.7852 30.5586 56.677 31.9096 58.6382 31.9096C60.5994 31.9096 76.5581 32.0506 80.2933 33.1248C81.0372 33.3379 81.7954 33.4973 82.5621 33.6016C84.5493 33.8426 86.5623 33.4601 88.3226 32.507C88.579 32.366 88.8097 32.2942 88.8789 32.3762C89.1122 32.6582 88.9276 34.2913 86.8742 34.6169C85.2719 34.8732 81.6315 34.3887 80.101 34.1657C79.7037 34.1067 79.3089 34.0323 78.9166 33.9477C77.4066 33.6196 72.7639 32.6992 69.931 33.1248C66.5265 33.6375 56.9103 32.7044 56.9103 32.7044C56.9103 32.7044 50.9857 31.4918 48.6041 30.5099C46.2225 29.528 39.5032 30.374 40.3902 34.0144Z" fill="#FED253"/>
<path opacity="0.1" d="M66.7573 8.99072C66.5009 8.62155 63.2066 5.98356 61.8633 4.91709L64.2859 4.55818C64.3596 4.48487 64.4393 4.41797 64.5243 4.35822C66.2856 6.2066 66.7573 8.99072 66.7573 8.99072Z" fill="black"/>
<path opacity="0.1" d="M56.0717 23.1394L54.9976 24.7263L59.1045 24.5879L59.1968 22.8138L56.0717 23.1394Z" fill="black"/>
<path opacity="0.1" d="M81.1318 25.0545L81.5984 26.5004L84.2133 26.9208L83.093 25.1929L81.1318 25.0545Z" fill="black"/>
<path opacity="0.1" d="M36.2373 73.5945C36.5167 74.0611 45.71 86.1563 48.1377 85.8205C50.5655 85.4846 36.2373 73.5945 36.2373 73.5945Z" fill="black"/>
<path opacity="0.1" d="M67.0391 84.6489C67.0391 84.6489 69.2797 86.7973 68.9515 87.6356C68.6234 88.4739 67.0391 84.6489 67.0391 84.6489Z" fill="black"/>
<path opacity="0.1" d="M42.5847 99.3976C42.5847 99.3976 40.6236 108.591 41.6516 108.883C42.6796 109.175 42.5847 99.3976 42.5847 99.3976Z" fill="black"/>
<path opacity="0.1" d="M67.7852 135.099C68.1107 136.032 70.8179 142.1 71.4255 142.426C72.0331 142.751 67.7852 135.099 67.7852 135.099Z" fill="black"/>
<path opacity="0.1" d="M99.241 110.178C99.1461 110.503 96.8133 112.418 97.326 113.118C97.8387 113.818 99.241 110.178 99.241 110.178Z" fill="black"/>
<path opacity="0.1" d="M81.1314 127.211C81.0852 127.446 80.6187 132.338 81.5057 133.279C82.3927 134.22 81.1314 127.211 81.1314 127.211Z" fill="black"/>
<path opacity="0.1" d="M105.045 152.621C104.368 152.998 103.669 153.362 102.956 153.711C102.187 154.085 101.418 154.441 100.633 154.777C100.32 154.913 100.008 155.047 99.6975 155.175C99.2258 155.37 98.7592 155.557 98.2978 155.736C96.8955 156.285 95.5444 156.762 94.3421 157.164C93.8755 157.32 93.4294 157.464 93.0141 157.597C90.9222 158.261 89.5327 158.623 89.5327 158.623C89.2153 158.555 88.8904 158.528 88.5662 158.543C88.4765 158.543 88.3842 158.543 88.2893 158.543C87.8551 158.575 87.423 158.63 86.9947 158.707C84.1311 159.22 80.0857 160.658 77.6476 161.599C76.3658 162.089 75.5326 162.44 75.5326 162.44L73.9022 162.932L73.6304 163.014C71.8641 163.553 69.3799 164.317 68.4852 164.635C67.0393 165.147 54.4851 167.76 54.4851 167.76C53.3382 168.073 52.1666 168.287 50.9832 168.401C48.067 168.668 45.1358 168.735 42.2104 168.601C39.2725 168.79 34.5195 168.144 31.7533 167.708L31.3124 167.639C30.2433 167.465 29.564 167.339 29.564 167.339L29.9229 166.844L37.2831 156.69L37.3267 156.628L44.1844 147.171L44.4408 146.827L45.0637 145.969C45.0637 145.969 45.438 145.456 46.8788 145.423C47.048 145.423 47.2326 145.423 47.4351 145.423C48.6453 145.52 49.8393 145.764 50.9909 146.148L51.3242 146.248C56.2899 147.671 63.9655 147.315 63.9655 147.315C63.9655 147.315 68.7415 146.545 72.4947 146.084L72.7742 146.048C74.0006 145.875 75.2355 145.768 76.4735 145.728C78.7603 145.774 83.7081 144.561 83.7081 144.561C84.772 144.333 85.2206 144.141 85.8205 143.713C85.9 143.656 85.9846 143.595 86.0769 143.528C86.3333 143.336 86.6281 143.1 87.0075 142.808C87.6997 142.277 88.6713 141.557 90.1992 140.547C90.3325 140.459 90.4735 140.372 90.6248 140.29C90.776 140.208 90.9683 140.098 91.1529 140.006C92.6326 139.305 94.1927 138.788 95.7982 138.467C97.13 138.181 98.4814 137.995 99.8411 137.911H100.044C103.889 137.706 107.817 138.365 110.114 140.526C110.515 140.906 110.865 141.337 111.154 141.808C111.295 142.032 111.42 142.265 111.529 142.505C111.738 142.964 111.894 143.446 111.993 143.941C112.012 144.033 112.027 144.125 112.039 144.218C112.039 144.246 112.039 144.272 112.039 144.3C112.039 144.374 112.054 144.448 112.059 144.523C112.264 147.591 109.08 150.365 105.045 152.621Z" fill="black"/>
<path d="M29.564 166.788C29.564 166.788 37.8702 168.326 42.2104 168.047C42.2104 168.047 50.191 168.467 54.4851 167.208C54.4851 167.208 67.047 164.594 68.4852 164.081C69.9234 163.568 75.5326 161.886 75.5326 161.886C75.5326 161.886 86.4538 157.313 89.5327 158.059C89.5327 158.059 113.708 151.806 111.98 143.359C110.252 134.912 94.9932 136.827 90.189 139.998C85.3847 143.169 86.0871 143.5 83.703 144.013C83.703 144.013 78.7551 145.225 76.4684 145.179C74.1816 145.133 63.9604 146.766 63.9604 146.766C63.9604 146.766 55.9336 147.14 50.9883 145.6C46.0431 144.059 45.0612 145.412 45.0612 145.412L29.564 166.788Z" fill="#FFA2A2"/>
<path opacity="0.1" d="M47.5761 144.864C47.5774 144.874 47.5774 144.884 47.5761 144.894C47.5583 145.085 47.5089 145.271 47.43 145.446C46.4456 147.861 40.8568 154.375 40.8568 154.375C40.602 155.149 40.2945 155.904 39.9365 156.636C39.1664 158.2 38.2794 159.704 37.2831 161.135C35.8063 163.276 34.1939 165.32 32.4558 167.255H32.443C32.2218 167.419 31.9916 167.57 31.7534 167.708C31.1509 168.067 30.2459 168.511 29.3922 168.565C29.2469 168.573 29.101 168.569 28.9564 168.552C29.0461 168.552 29.1333 168.531 29.2128 168.516L28.9 168.424L28.4719 168.29C27.7541 168.065 27.0422 167.818 26.3364 167.549L25.9082 167.385C25.2246 167.122 24.5555 166.839 23.9009 166.537L23.4728 166.342C22.7891 166.024 22.12 165.688 21.4655 165.334C21.2296 165.211 20.9963 165.078 20.7656 164.952C20.0683 164.563 19.3846 164.154 18.7147 163.727C18.0037 163.274 17.3081 162.802 16.6279 162.309C16.1151 161.358 15.6921 160.515 15.4614 160.061C15.041 159.218 15.0051 158.01 15.0563 157.136C15.0563 157.046 15.0564 156.962 15.0717 156.88C15.1153 156.331 15.182 155.954 15.182 155.954C14.8021 155.446 14.4594 154.912 14.1565 154.354C13.9825 154.078 13.8835 153.761 13.8694 153.434C13.881 153.303 13.8688 153.171 13.8335 153.044C13.6361 152.234 12.7875 150.842 12.0031 149.968C11.4185 149.324 11.3827 146.92 11.4391 145.215C11.4724 144.189 11.5365 143.436 11.5365 143.436C11.4216 143.362 11.3356 143.25 11.2929 143.12C11.0868 142.559 10.9474 141.976 10.8776 141.382C10.8776 141.298 10.8545 141.213 10.8417 141.126C10.6777 139.949 10.6033 138.767 10.6033 138.767C8.70621 137.386 7.80381 135.23 7.38337 133.307L7.32953 133.05C7.09863 131.869 7.00061 130.665 7.03728 129.461C7.03728 129.346 7.03728 129.259 7.03728 129.205C7.03728 129.151 7.03728 129.141 7.03728 129.141C7.03728 129.141 7.28852 123.585 7.99095 121.417C8.01915 121.324 8.04992 121.24 8.08068 121.16C8.13243 121.024 8.19952 120.894 8.28064 120.773C8.53701 120.432 8.71903 119.789 8.87028 119.027C8.97539 118.499 9.06256 117.912 9.12665 117.328C9.18561 116.841 9.23176 116.356 9.26765 115.907C9.36763 114.708 9.39839 113.772 9.39839 113.772L8.92412 111.434C8.79337 110.795 8.69339 110.152 8.62417 109.509C8.62417 109.424 8.60366 109.339 8.59341 109.252C8.47351 108.064 8.45207 106.868 8.52932 105.676C8.52932 105.589 8.52932 105.504 8.5447 105.42C8.74487 102.705 9.45455 100.052 10.6366 97.6004L10.7648 97.3441C10.9357 97.0022 11.1152 96.6664 11.3032 96.3365C11.4391 96.093 11.5826 95.852 11.7313 95.6136C12.1255 94.9752 12.5534 94.3582 13.0131 93.7652C13.0798 93.678 13.149 93.5934 13.2182 93.5088C14.0182 92.5171 14.9072 91.6006 15.8742 90.7709C18.4634 88.5456 20.8399 87.5791 22.9985 87.5048C32.4378 87.1715 37.7318 103.866 38.588 106.791C38.6701 107.073 38.7111 107.227 38.7111 107.227C38.7111 107.227 42.536 111.054 41.4157 112.734C41.1985 113.103 41.0663 113.517 41.0286 113.944C40.721 116.202 41.6029 119.922 41.6029 119.922C41.6029 119.922 41.9156 120.948 42.8283 123.403L43.0975 124.121C43.6692 125.659 43.8025 128.241 43.4743 130.553C43.159 132.768 42.4181 134.727 41.2311 135.23C38.8034 136.255 39.4571 137.28 40.016 138.124C40.3481 138.729 40.6252 139.362 40.844 140.016C41.1952 140.962 41.5208 141.957 41.6439 142.344C41.6798 142.451 41.6977 142.51 41.6977 142.51C42.0378 142.379 42.391 142.284 42.7514 142.228C43.2103 142.164 43.664 142.21 43.7512 142.603C43.7973 142.813 44.0614 143.061 44.4331 143.31C45.5355 144.069 47.5761 144.864 47.5761 144.864Z" fill="black"/>
<path d="M47.0173 144.864C47.0016 145.059 46.9522 145.25 46.8712 145.428C45.8919 147.845 40.298 154.375 40.298 154.375C40.0421 155.148 39.7346 155.904 39.3776 156.636C38.759 157.899 38.0594 159.121 37.2831 160.294C35.6761 162.719 33.8957 165.023 31.9559 167.191L31.8969 167.255C31.8969 167.255 31.6713 167.426 31.3124 167.647C30.6711 168.056 29.9644 168.353 29.2231 168.524L28.9103 168.431L28.4822 168.298C27.7643 168.072 27.0525 167.825 26.3466 167.557L25.9185 167.393C25.2349 167.13 24.5658 166.847 23.9112 166.544L23.4831 166.35C22.7994 166.032 22.1303 165.696 21.4757 165.342C21.2399 165.219 21.0066 165.086 20.7758 164.96C20.0785 164.57 19.3949 164.162 18.7249 163.735C18.0139 163.282 17.3183 162.809 16.6381 162.317C16.3237 162.091 16.0126 161.86 15.705 161.622C15.3589 160.966 15.082 160.412 14.9102 160.069C14.4898 159.225 14.4539 158.018 14.5052 157.144C14.5052 157.054 14.5052 156.969 14.5206 156.887C14.5641 156.339 14.6308 155.962 14.6308 155.962C14.6308 155.962 14.4231 155.682 14.1719 155.303C14.0309 155.093 13.8796 154.849 13.7438 154.608C13.4874 154.157 13.2874 153.701 13.3259 153.442C13.3311 153.397 13.3311 153.353 13.3259 153.308C13.3221 153.222 13.3092 153.136 13.2874 153.052C13.09 152.242 12.2389 150.85 11.4544 149.976C10.8699 149.332 10.834 146.927 10.8879 145.223C10.8879 145.136 10.8879 145.051 10.8879 144.966C10.9238 144.082 10.9776 143.443 10.9776 143.443C10.6879 143.318 10.4649 142.387 10.3213 141.393L10.2829 141.136C10.1188 139.96 10.0444 138.778 10.0444 138.778C8.14734 137.396 7.24494 135.24 6.82707 133.317C6.53595 131.97 6.42389 130.591 6.4938 129.215C6.4938 129.174 6.4938 129.151 6.4938 129.151C6.4938 129.151 6.71427 123.568 7.41671 121.396C7.44491 121.304 7.47567 121.219 7.50643 121.14C7.56795 121.007 7.6445 120.881 7.7346 120.766C8.12427 120.222 8.3832 118.915 8.5524 117.576L8.58316 117.32C8.79594 115.525 8.85491 113.764 8.85491 113.764L8.37807 111.426C8.24818 110.785 8.1482 110.143 8.07812 109.501C8.06531 109.416 8.05762 109.329 8.04736 109.245C7.92749 108.056 7.90605 106.86 7.98327 105.668C7.98327 105.581 7.98327 105.496 8.00122 105.412C8.20017 102.697 8.90991 100.044 10.0931 97.5927C10.1342 97.5056 10.1752 97.421 10.2213 97.3364C10.551 96.6705 10.9173 96.0235 11.3186 95.3983C11.457 95.1804 11.598 94.965 11.7467 94.7522C11.98 94.4138 12.2235 94.0806 12.4773 93.7575L12.6824 93.5012C13.4755 92.5132 14.3568 91.5994 15.3153 90.7709C18.1353 88.3534 20.6989 87.4202 23.0062 87.5048C32.0943 87.8304 37.196 103.925 38.0343 106.791C38.1163 107.073 38.1573 107.227 38.1573 107.227C38.1573 107.227 41.9849 111.054 40.8645 112.734C40.6473 113.103 40.5151 113.517 40.4774 113.944C40.1672 116.202 41.0517 119.922 41.0517 119.922C41.0517 119.922 41.3645 120.948 42.2771 123.403C42.3592 123.632 42.4489 123.87 42.5335 124.121C43.1052 125.66 43.2385 128.241 42.9103 130.553C42.595 132.771 41.8567 134.727 40.6672 135.23C38.2419 136.255 38.8931 137.281 39.4545 138.124C39.7866 138.729 40.0638 139.362 40.2826 140.016C40.7261 141.223 41.1337 142.51 41.1337 142.51C41.3015 142.446 41.4727 142.39 41.6465 142.344C42.0031 142.226 42.3808 142.187 42.754 142.228C42.8572 142.236 42.9553 142.277 43.0341 142.344C43.1128 142.411 43.1682 142.502 43.1923 142.603C43.2616 142.91 43.7922 143.292 44.4357 143.654C45.2712 144.108 46.1333 144.512 47.0173 144.864V144.864Z" fill="#CED7E7"/>
<path opacity="0.1" d="M13.2744 120.212C14.1614 120.166 23.6828 116.479 25.644 117.738C27.6052 118.997 39.744 127.164 39.744 127.164C39.744 127.164 32.1377 117.225 25.5107 114.892C18.8837 112.559 13.2744 120.212 13.2744 120.212Z" fill="black"/>
<path opacity="0.1" d="M26.9619 135.24C26.9619 135.24 36.4833 137.152 37.9292 138.46L26.9619 135.24Z" fill="black"/>
<path opacity="0.1" d="M25.1288 149.478C24.9904 149.619 21.5397 157.364 21.8166 157.364C22.0935 157.364 25.0365 152.749 25.0365 152.749L25.1288 149.478Z" fill="black"/>
<path opacity="0.1" d="M31.6174 140.185C31.6174 140.185 28.818 141.167 29.1435 141.259C29.4691 141.351 31.5226 140.605 31.6174 140.185Z" fill="black"/>
<path opacity="0.1" d="M28.8179 151.901C29.2845 152.88 30.7765 155.821 31.1046 155.354C31.4328 154.888 28.8179 151.901 28.8179 151.901Z" fill="black"/>
<path opacity="0.1" d="M63.7657 74.279L63.3658 74.8481C63.3658 74.8481 60.1894 72.6101 58.8846 71.4898C57.5797 70.3694 54.4982 75.5019 52.0704 76.9016C49.6426 78.3013 45.5382 78.6756 45.5382 78.6756C45.5382 78.6756 42.3644 75.5019 42.4619 74.5738C42.5593 73.6458 40.9698 73.3612 40.875 72.7075C40.7801 72.0538 40.2212 70.1874 39.4752 69.2543C39.0804 68.762 39.024 67.2213 39.0599 65.8805C39.3163 65.8292 39.4752 65.801 39.4752 65.801C39.8737 65.077 40.3774 64.4161 40.9698 63.8398C41.8107 63.0938 43.1156 58.5203 43.1156 58.5203C43.8616 56.0002 45.3537 56.7462 45.3537 56.7462C45.3537 60.5738 49.276 61.9735 51.2346 63.5604C53.1933 65.1473 56.2748 69.2543 58.7025 70.0951C60.6945 70.7745 63.0248 73.4022 63.7657 74.279Z" fill="black"/>
<path d="M63.7654 73.7175L63.3654 74.2892C63.3654 74.2892 60.1763 72.0563 58.8714 70.9283C57.5665 69.8003 54.485 74.9404 52.0572 76.3401C49.6294 77.7399 45.5251 78.1167 45.5251 78.1167C45.5251 78.1167 42.3513 74.9404 42.4487 74.0149C42.5461 73.0894 40.9566 72.8023 40.8618 72.146C40.7669 71.4897 40.2081 69.6259 39.462 68.6928C39.0672 68.2006 39.0108 66.6598 39.0467 65.319L39.462 65.2421C39.8605 64.5181 40.3642 63.8571 40.9566 63.2809C41.7975 62.5323 43.1024 57.9614 43.1024 57.9614C43.8484 55.4413 45.3405 56.1848 45.3405 56.1848C45.3405 60.0123 49.2628 61.4146 51.2215 63.0015C53.1801 64.5884 56.2616 68.6928 58.6894 69.5337C60.6941 70.2233 63.0245 72.8408 63.7654 73.7175Z" fill="#CED7E7"/>
<path opacity="0.1" d="M64.0037 74.4764C64.0037 74.4764 61.2529 75.9684 59.1045 76.1094C58.8233 76.1225 58.5415 76.1062 58.2637 76.0607C58.2637 76.0607 60.635 74.2892 62.8372 73.9277L64.0037 74.4764Z" fill="black"/>
<path opacity="0.1" d="M69.6053 82.0827C69.6053 82.0827 66.1367 80.7317 64.9907 82.7646C65.0292 81.8315 65.0446 81.0572 65.0446 81.0572L68.8259 80.3087C68.8259 80.3087 69.19 80.9829 69.6155 81.8904C69.6053 82.0109 69.6053 82.0827 69.6053 82.0827Z" fill="black"/>
<path d="M58.2637 76.0607C58.2637 76.0607 62.4193 73.5663 64.4164 73.7765C66.5109 73.9944 70.5692 74.1482 70.5692 74.1482C70.5692 74.1482 69.1694 77.322 69.3566 77.9757C69.5437 78.6295 69.5898 81.8033 69.5898 81.8033C69.5898 81.8033 65.3906 80.1702 64.6907 83.203C64.6907 83.203 62.404 79.7959 60.8632 78.7679C59.8408 78.0293 58.9602 77.1122 58.2637 76.0607Z" fill="#63667E"/>
<path opacity="0.1" d="M81.7394 78.9576C80.5268 78.9576 76.2327 76.2478 75.2995 74.4764C74.3663 72.7049 73.0589 74.6609 71.8463 75.3172C71.0772 75.7377 68.029 74.8583 66.3857 74.22C67.2189 73.6534 69.0647 72.0588 69.6057 71.6768C70.2568 71.2077 70.9131 63.6475 70.9131 63.6475C73.246 62.4349 75.7661 73.4483 75.7661 73.4483C75.7661 73.4483 80.1551 74.7558 80.5268 75.689C80.5986 75.8735 80.9293 76.2017 81.4266 76.599C81.9393 77.8911 82.2213 78.9576 81.7394 78.9576Z" fill="black"/>
<path d="M81.7393 78.3962C80.5267 78.3962 76.2326 75.689 75.2995 73.9175C74.3663 72.146 73.0589 74.1021 71.8462 74.7558C71.0772 75.1763 68.634 74.3636 66.9907 73.7304C67.8239 73.1664 69.0647 71.5051 69.6056 71.1206C70.2568 70.654 70.9131 63.0938 70.9131 63.0938C73.246 61.8812 75.7661 72.8946 75.7661 72.8946C75.7661 72.8946 80.155 74.2021 80.5267 75.1352C80.5985 75.3198 80.9292 75.648 81.4266 76.0453C81.9393 77.3297 82.2213 78.3962 81.7393 78.3962Z" fill="#CED7E7"/>
<path d="M98.3232 160.169L138.908 126.329C139.313 125.986 139.829 125.804 140.359 125.816L155.5 126.213C155.5 126.213 156.549 126.982 155.011 128.664L116.725 160.082C116.311 160.42 115.798 160.613 115.264 160.63L98.7078 161.179C98.5889 161.182 98.4718 161.149 98.3728 161.083C98.2738 161.017 98.1979 160.922 98.1556 160.811C98.1132 160.7 98.1067 160.578 98.1367 160.463C98.1668 160.348 98.232 160.245 98.3232 160.169Z" fill="#2790DA"/>
<path d="M117.956 156.005C117.956 156.005 126.821 168.701 136.67 156.892C146.52 145.084 143.671 138.88 140.685 138.552C137.698 138.224 120.893 151.152 117.956 156.005Z" fill="#FFA2A2"/>
<path opacity="0.1" d="M177.748 14.0154C177.748 14.0154 189.174 -8.16008 202.679 3.27632C202.679 3.27632 205.627 4.35049 205.404 7.46788C205.404 7.46788 204.268 6.84491 203.366 9.22654C203.035 10.0716 202.604 10.8745 202.084 11.6184C201.393 12.6234 200.394 13.3772 199.239 13.7667V13.7667C199.239 13.7667 193.178 18.307 181.952 14.805C181.952 14.805 178.778 15.2614 178.265 14.8665L181.955 12.1696C181.955 12.1696 183.829 14.9511 186.569 15.269C186.569 15.269 181.955 12.3721 182.483 11.744C182.59 11.6159 184.503 10.4032 184.503 10.4032C184.503 10.4032 187.782 15.2255 192.032 15.5818C192.032 15.5818 186.077 12.8669 185.223 9.94179L188.215 8.27286C188.215 8.27286 191.43 13.5411 196.257 14.1308C196.257 14.1308 190.13 11.0775 188.894 7.95241L192.06 6.71673C192.06 6.71673 195.298 11.7927 199.315 12.2568C199.315 12.2568 192.594 8.01393 192.804 6.48088C192.804 6.48088 195.78 5.52207 196.693 5.64769C196.693 5.64769 199.1 9.23679 201.459 9.30088C201.459 9.30088 197.267 5.98866 197.544 5.47849C197.544 5.47849 201.754 5.26058 203.953 6.27835C203.953 6.27835 200.825 4.53764 197.544 4.81964C197.544 4.81964 199.028 3.0738 200.964 2.68925C200.964 2.68925 198.644 1.73558 196.524 4.88373C196.524 4.88373 193.25 5.18367 192.845 5.54771C192.845 5.54771 194.501 2.14319 196.539 0.694736C196.539 0.694736 193.501 1.23054 191.996 5.84509L188.787 7.01668C188.787 7.01668 190.738 2.40212 192.458 0.976737C192.458 0.976737 189.443 2.00219 188.002 7.38584L185.049 8.99068C185.049 8.99068 186.425 4.88886 187.997 2.88665C187.997 2.88665 185.405 4.44022 184.218 9.48034L182.372 10.7801C182.372 10.7801 183.431 7.80115 183.813 6.9731C184.195 6.14504 184.003 5.97328 184.003 5.97328C182.72 7.49023 181.883 9.33353 181.585 11.298C181.585 11.298 177.96 14.2205 177.748 14.0154Z" fill="#2790DA"/>
<path opacity="0.1" d="M225.003 25.8749C225.003 25.8749 230.167 15.8536 236.268 21.0219C236.268 21.0219 237.601 21.5064 237.499 22.9138C237.499 22.9138 236.986 22.6344 236.578 23.7111C236.431 24.0925 236.238 24.4549 236.004 24.7904C235.692 25.2434 235.243 25.5841 234.722 25.762V25.762C234.722 25.762 231.982 27.813 226.908 26.2312C226.908 26.2312 225.475 26.4363 225.244 26.2594L226.911 25.0391C226.911 25.0391 227.757 26.2979 228.998 26.4389C228.998 26.4389 226.916 25.1314 227.152 24.8468C227.198 24.7904 228.062 24.2418 228.062 24.2418C228.062 24.2418 229.544 26.4209 231.466 26.5824C231.466 26.5824 228.775 25.3544 228.39 24.0188L229.744 23.2676C229.744 23.2676 231.195 25.6493 233.376 25.9159C233.376 25.9159 230.608 24.5366 230.044 23.1241L231.474 22.5652C231.474 22.5652 232.935 24.8596 234.75 25.0699C234.75 25.0699 231.712 23.1523 231.81 22.4601C231.81 22.4601 233.153 22.0268 233.566 22.0832C233.566 22.0832 234.653 23.706 235.719 23.7316C235.719 23.7316 233.825 22.237 233.951 22.0063C233.951 22.0063 235.853 21.9089 236.842 22.3678C236.842 22.3678 235.43 21.5807 233.951 21.7089C234.359 21.2448 234.893 20.9098 235.489 20.745C235.489 20.745 234.44 20.3143 233.481 21.7371C233.481 21.7371 232.002 21.873 231.82 22.0371C231.82 22.0371 232.569 20.4989 233.489 19.8452C233.489 19.8452 232.115 20.0861 231.438 22.1729L230.003 22.7113C230.003 22.7113 230.882 20.6271 231.661 19.981C231.661 19.981 230.297 20.4451 229.646 22.8754L228.313 23.5983C228.313 23.5983 228.933 21.7423 229.644 20.8399C229.644 20.8399 228.472 21.5423 227.939 23.8188L227.103 24.4059C227.103 24.4059 227.582 23.06 227.754 22.6857C227.926 22.3114 227.839 22.2345 227.839 22.2345C227.259 22.9223 226.881 23.7573 226.747 24.6469C226.747 24.6469 225.093 25.9671 225.003 25.8749Z" fill="#2790DA"/>
<path opacity="0.1" d="M169.057 37.5343C169.057 37.5343 174.22 27.513 180.337 32.6813C180.337 32.6813 181.667 33.1658 181.567 34.5758C181.567 34.5758 181.054 34.2938 180.647 35.3706C180.498 35.7515 180.305 36.1138 180.073 36.4499C179.757 36.905 179.303 37.2459 178.778 37.4215V37.4215C178.778 37.4215 176.04 39.4724 170.967 37.8906C170.967 37.8906 169.533 38.0983 169.303 37.9188L170.969 36.6985C170.969 36.6985 171.815 37.9573 173.053 38.1008C173.053 38.1008 170.972 36.7908 171.208 36.5063C171.256 36.4499 172.12 35.9012 172.12 35.9012C172.12 35.9012 173.602 38.0803 175.522 38.2418C175.522 38.2418 172.833 37.0139 172.446 35.6782L173.799 34.9296C173.799 34.9296 175.253 37.3087 177.435 37.5753C177.435 37.5753 174.666 36.1961 174.102 34.7835L175.532 34.2246C175.532 34.2246 176.996 36.5191 178.811 36.7293C178.811 36.7293 175.773 34.8117 175.868 34.1195C175.868 34.1195 177.214 33.6862 177.627 33.7426C177.627 33.7426 178.714 35.3654 179.78 35.3936C179.78 35.3936 177.886 33.8965 178.011 33.6657C178.011 33.6657 179.911 33.5683 180.903 34.0272C180.903 34.0272 179.488 33.2402 178.009 33.3684C178.417 32.9043 178.951 32.5693 179.547 32.4044C179.547 32.4044 178.501 31.9737 177.542 33.3966C177.542 33.3966 176.063 33.5324 175.881 33.6965C175.881 33.6965 176.627 32.1583 177.55 31.5046C177.55 31.5046 176.176 31.7456 175.499 33.8324L174.045 34.3707C174.045 34.3707 174.927 32.2865 175.704 31.643C175.704 31.643 174.343 32.1045 173.692 34.5348L172.356 35.2578C172.356 35.2578 172.979 33.4017 173.689 32.4993C173.689 32.4993 172.518 33.2017 171.982 35.4782L171.146 36.0653C171.146 36.0653 171.625 34.7194 171.797 34.3451C171.969 33.9708 171.884 33.8939 171.884 33.8939C171.303 34.581 170.925 35.4164 170.792 36.3063C170.792 36.3063 169.146 37.6266 169.057 37.5343Z" fill="#2790DA"/>
</g>
<defs>
<clipPath id="clip0">
<rect width="274.91" height="200" fill="white"/>
</clipPath>
</defs>
</svg>
