<svg width="331" height="200" viewBox="0 0 331 200" fill="none" xmlns="http://www.w3.org/2000/svg">
<g clip-path="url(#clip0)">
<path d="M27.3282 43.391C36.7235 43.391 44.34 35.7745 44.34 26.3792C44.34 16.9839 36.7235 9.36743 27.3282 9.36743C17.9328 9.36743 10.3164 16.9839 10.3164 26.3792C10.3164 35.7745 17.9328 43.391 27.3282 43.391Z" fill="#FF6584"/>
<path d="M164.202 200C254.888 200 328.403 197.02 328.403 193.343C328.403 189.667 254.888 186.686 164.202 186.686C73.5156 186.686 0 189.667 0 193.343C0 197.02 73.5156 200 164.202 200Z" fill="#E6E6E6"/>
<path d="M41.7898 109.918C64.8697 109.918 83.5796 91.2081 83.5796 68.1282C83.5796 45.0484 64.8697 26.3384 41.7898 26.3384C18.7099 26.3384 0 45.0484 0 68.1282C0 91.2081 18.7099 109.918 41.7898 109.918Z" fill="#2790DA"/>
<path d="M45.8183 194.001H37.2588L41.1608 61.8345L45.8183 194.001Z" fill="#3F3D56"/>
<path d="M41.915 86.8832L51.1039 74.1702L41.7892 90.03L40.7822 88.2678L41.915 86.8832Z" fill="#3F3D56"/>
<path d="M40.9083 99.7222L31.7197 87.0093L41.0344 102.869L42.0414 101.107L40.9083 99.7222Z" fill="#3F3D56"/>
<path d="M306.029 194.14H297.47L301.372 61.9735L306.029 194.14Z" fill="#3F3D56"/>
<path d="M302.127 87.0222L311.316 74.3093L302.001 90.169L300.994 88.4068L302.127 87.0222Z" fill="#3F3D56"/>
<path d="M301.12 99.8613L291.931 87.1483L301.246 103.008L302.253 101.246L301.12 99.8613Z" fill="#3F3D56"/>
<path d="M169.769 194.118C212.763 194.118 247.617 159.264 247.617 116.269C247.617 73.2746 212.763 38.4206 169.769 38.4206C126.774 38.4206 91.9199 73.2746 91.9199 116.269C91.9199 159.264 126.774 194.118 169.769 194.118Z" fill="#3F3D56"/>
<path d="M169.769 187.673C209.204 187.673 241.173 155.705 241.173 116.269C241.173 76.8338 209.204 44.865 169.769 44.865C130.333 44.865 98.3643 76.8338 98.3643 116.269C98.3643 155.705 130.333 187.673 169.769 187.673Z" fill="white"/>
<path d="M169.511 126.065C174.778 126.065 179.049 121.795 179.049 116.527C179.049 111.259 174.778 106.989 169.511 106.989C164.243 106.989 159.973 111.259 159.973 116.527C159.973 121.795 164.243 126.065 169.511 126.065Z" fill="#3F3D56"/>
<path d="M171.573 48.4739H167.448V56.2072H171.573V48.4739Z" fill="#3F3D56"/>
<path d="M171.573 176.847H167.448V184.58H171.573V176.847Z" fill="#3F3D56"/>
<path d="M109.19 118.589V114.465H101.457V118.589H109.19Z" fill="#3F3D56"/>
<path d="M237.564 118.589V114.465H229.831V118.589H237.564Z" fill="#3F3D56"/>
<path d="M166.761 120.667L170.286 112.608L214.452 137.069L166.761 120.667Z" fill="#3F3D56"/>
<path d="M179.822 19.6029H159.715V42.8028H179.822V19.6029Z" fill="#3F3D56"/>
<path d="M169.768 26.0473C182.581 26.0473 192.968 23.162 192.968 19.6029C192.968 16.0437 182.581 13.1584 169.768 13.1584C156.955 13.1584 146.568 16.0437 146.568 19.6029C146.568 23.162 156.955 26.0473 169.768 26.0473Z" fill="#3F3D56"/>
<path d="M213.204 130.06L211.915 131.865C211.915 131.865 205.986 138.825 205.728 135.474C205.47 132.123 210.11 129.803 210.11 129.803L212.688 128.256L213.204 130.06Z" fill="#FFB8B8"/>
<path d="M249.897 136.148L250.977 138.085C250.977 138.085 254.73 146.422 251.591 145.221C248.452 144.02 248.341 138.834 248.341 138.834L248.046 135.842L249.897 136.148Z" fill="#FFB8B8"/>
<path d="M244.094 101.799C248.429 101.799 251.943 98.2852 251.943 93.9502C251.943 89.6153 248.429 86.1011 244.094 86.1011C239.759 86.1011 236.245 89.6153 236.245 93.9502C236.245 98.2852 239.759 101.799 244.094 101.799Z" fill="#2F2E41"/>
<path d="M243.364 158.416L244.395 165.118V167.18H250.324V164.602C250.324 164.602 250.581 159.962 249.55 158.674C248.519 157.385 243.364 158.416 243.364 158.416Z" fill="#FFB8B8"/>
<path d="M232.795 158.416L233.826 165.118V167.18H239.755V164.602C239.755 164.602 240.013 159.962 238.982 158.674C237.95 157.385 232.795 158.416 232.795 158.416Z" fill="#FFB8B8"/>
<path d="M236.785 104.58C236.785 104.58 234.504 105.782 236.062 108.516C237.619 111.25 246.758 139.535 246.758 139.535L252.03 138.038L247.381 120.15L244.718 108.907L236.785 104.58Z" fill="#2790DA"/>
<path d="M243.235 102.091C246.509 102.091 249.164 99.4371 249.164 96.1626C249.164 92.8882 246.509 90.2338 243.235 90.2338C239.961 90.2338 237.306 92.8882 237.306 96.1626C237.306 99.4371 239.961 102.091 243.235 102.091Z" fill="#FFB8B8"/>
<path d="M245.942 97.0649L245.168 109.18L239.755 105.314C239.755 105.314 241.559 98.096 241.044 97.5804L245.942 97.0649Z" fill="#FFB8B8"/>
<path d="M245.942 108.149L240.11 103.831C240.11 103.831 237.435 102.736 236.662 104.025C235.888 105.314 232.022 124.389 234.084 127.998C234.084 127.998 245.168 130.318 247.488 129.029L248.519 122.327C248.519 122.327 249.808 118.203 247.746 115.625L245.942 108.149Z" fill="#2790DA"/>
<path d="M238.208 104.283C238.208 104.283 236.146 102.736 234.342 105.314C232.537 107.891 210.884 128.256 210.884 128.256L214.493 132.38L228.67 120.523L237.693 113.305L238.208 104.283Z" fill="#2790DA"/>
<path d="M247.617 128.9C247.617 128.9 234.857 126.451 233.568 128.256L233.311 131.091C233.311 131.091 230.475 136.505 232.022 145.269C233.568 154.034 232.537 159.447 232.537 159.447C232.537 159.447 239.497 158.674 244.653 159.447C249.808 160.22 250.582 159.447 250.582 159.447L247.617 128.9Z" fill="#2F2E41"/>
<path d="M250.839 166.149L243.364 166.407L245.942 185.74C245.942 185.74 243.879 193.989 246.199 194.505C247.812 194.83 249.452 195.003 251.097 195.02C251.097 195.02 253.417 197.34 255.995 197.082C257.707 196.864 259.366 196.34 260.893 195.536C260.893 195.536 261.408 193.989 259.604 193.473C257.799 192.958 252.902 191.411 251.87 185.998L250.839 166.149Z" fill="#2F2E41"/>
<path d="M240.27 166.149L232.795 166.407L235.373 185.74C235.373 185.74 233.31 193.989 235.63 194.505C237.243 194.83 238.883 195.003 240.528 195.02C240.528 195.02 242.848 197.34 245.426 197.082C247.138 196.864 248.797 196.34 250.324 195.536C250.324 195.536 250.839 193.989 249.035 193.473C247.23 192.958 242.333 191.411 241.302 185.998L240.27 166.149Z" fill="#2F2E41"/>
<path d="M246.84 88.937C248.634 88.937 250.088 87.4829 250.088 85.6891C250.088 83.8953 248.634 82.4412 246.84 82.4412C245.046 82.4412 243.592 83.8953 243.592 85.6891C243.592 87.4829 245.046 88.937 246.84 88.937Z" fill="#2F2E41"/>
<path d="M251.171 83.9298C251.171 83.1269 250.873 82.3526 250.336 81.756C249.799 81.1595 249.06 80.7831 248.261 80.6994C248.374 80.6877 248.487 80.6819 248.6 80.6818C249.461 80.6818 250.287 81.024 250.896 81.6331C251.505 82.2422 251.847 83.0683 251.847 83.9298C251.847 84.7912 251.505 85.6173 250.896 86.2264C250.287 86.8355 249.461 87.1777 248.6 87.1777C248.487 87.1777 248.374 87.1718 248.261 87.1601C249.06 87.0764 249.799 86.7 250.336 86.1035C250.873 85.507 251.171 84.7326 251.171 83.9298V83.9298Z" fill="#2F2E41"/>
<path d="M243.181 95.5339C246.171 95.5339 248.594 94.0798 248.594 92.286C248.594 90.4922 246.171 89.0381 243.181 89.0381C240.192 89.0381 237.768 90.4922 237.768 92.286C237.768 94.0798 240.192 95.5339 243.181 95.5339Z" fill="#2F2E41"/>
<path d="M328.446 15.5884C328.224 11.679 326.622 7.97512 323.924 5.13723C321.226 2.29934 317.608 0.511871 313.715 0.0935086C309.822 -0.324854 305.906 0.65309 302.667 2.85297C299.428 5.05286 297.075 8.33169 296.028 12.1049C295.828 12.0977 295.628 12.0897 295.426 12.0897C291.857 12.0903 288.383 13.2467 285.526 15.3859C282.668 17.5251 280.58 20.532 279.573 23.9568C277.208 22.9175 274.565 22.692 272.057 23.3157C269.55 23.9393 267.321 25.3769 265.718 27.4033H317.257C318.76 27.4075 320.249 27.1083 321.635 26.5236C323.02 25.9389 324.273 25.0806 325.319 24.0003C326.364 22.9199 327.181 21.6397 327.721 20.2361C328.26 18.8326 328.51 17.3347 328.457 15.8321C328.454 15.751 328.45 15.6697 328.446 15.5884Z" fill="#E6E6E6"/>
<path d="M285.359 50.3615C287.81 50.3615 289.797 48.3746 289.797 45.9237C289.797 43.4727 287.81 41.4858 285.359 41.4858C282.908 41.4858 280.921 43.4727 280.921 45.9237C280.921 48.3746 282.908 50.3615 285.359 50.3615Z" fill="#E6E6E6"/>
<path d="M298.759 39.1557C300.799 39.1557 302.454 37.5014 302.454 35.4606C302.454 33.4198 300.799 31.7654 298.759 31.7654C296.718 31.7654 295.063 33.4198 295.063 35.4606C295.063 37.5014 296.718 39.1557 298.759 39.1557Z" fill="#E6E6E6"/>
<path d="M316.794 59.9768C319.245 59.9768 321.232 57.9899 321.232 55.539C321.232 53.088 319.245 51.1011 316.794 51.1011C314.343 51.1011 312.356 53.088 312.356 55.539C312.356 57.9899 314.343 59.9768 316.794 59.9768Z" fill="#E6E6E6"/>
<path d="M283.14 80.317C285.591 80.317 287.578 78.3301 287.578 75.8792C287.578 73.4282 285.591 71.4413 283.14 71.4413C280.689 71.4413 278.702 73.4282 278.702 75.8792C278.702 78.3301 280.689 80.317 283.14 80.317Z" fill="#E6E6E6"/>
<path d="M316.794 105.835C319.245 105.835 321.232 103.848 321.232 101.397C321.232 98.9459 319.245 96.959 316.794 96.959C314.343 96.959 312.356 98.9459 312.356 101.397C312.356 103.848 314.343 105.835 316.794 105.835Z" fill="#E6E6E6"/>
<path d="M309.76 186.969C309.762 186.921 309.768 186.874 309.768 186.825C309.769 186.082 309.583 185.35 309.227 184.697C308.87 184.044 308.356 183.492 307.73 183.09C307.104 182.688 306.388 182.45 305.646 182.398C304.904 182.347 304.161 182.482 303.485 182.793C302.851 182.061 301.995 181.557 301.047 181.359C300.099 181.161 299.113 181.278 298.238 181.695C297.364 182.111 296.65 182.802 296.207 183.663C295.763 184.523 295.613 185.505 295.781 186.459C295.759 186.459 295.737 186.456 295.714 186.456C295.008 186.455 294.311 186.622 293.683 186.944C293.054 187.267 292.511 187.735 292.1 188.309C291.688 188.883 291.42 189.547 291.317 190.246C291.214 190.945 291.279 191.659 291.508 192.327C291.736 192.996 292.12 193.6 292.629 194.09C293.138 194.58 293.757 194.942 294.434 195.145C295.11 195.347 295.826 195.386 296.52 195.256C297.215 195.127 297.868 194.834 298.427 194.401C298.779 195.087 299.304 195.669 299.95 196.091C300.596 196.512 301.341 196.757 302.111 196.803C302.881 196.848 303.65 196.692 304.341 196.35C305.033 196.008 305.623 195.491 306.053 194.851C306.581 195.235 307.188 195.498 307.829 195.62C308.47 195.743 309.131 195.722 309.763 195.56C310.396 195.398 310.985 195.098 311.488 194.682C311.991 194.266 312.396 193.743 312.674 193.152C312.952 192.561 313.096 191.916 313.096 191.263C313.096 190.61 312.951 189.965 312.673 189.375C312.394 188.784 311.989 188.262 311.486 187.846C310.982 187.43 310.393 187.131 309.76 186.969V186.969Z" fill="#E6E6E6"/>
<path d="M320.862 85.4945C321.883 85.4945 322.711 84.6667 322.711 83.6454C322.711 82.6242 321.883 81.7963 320.862 81.7963C319.841 81.7963 319.013 82.6242 319.013 83.6454C319.013 84.6667 319.841 85.4945 320.862 85.4945Z" fill="#E6E6E6"/>
<path d="M309.028 41.116C310.049 41.116 310.877 40.2881 310.877 39.2669C310.877 38.2457 310.049 37.4178 309.028 37.4178C308.007 37.4178 307.179 38.2457 307.179 39.2669C307.179 40.2881 308.007 41.116 309.028 41.116Z" fill="#E6E6E6"/>
<path d="M302.741 86.9738C303.762 86.9738 304.59 86.1459 304.59 85.1247C304.59 84.1034 303.762 83.2756 302.741 83.2756C301.719 83.2756 300.892 84.1034 300.892 85.1247C300.892 86.1459 301.719 86.9738 302.741 86.9738Z" fill="#E6E6E6"/>
<path d="M304.22 85.1247C305.241 85.1247 306.069 84.2969 306.069 83.2756C306.069 82.2544 305.241 81.4265 304.22 81.4265C303.199 81.4265 302.371 82.2544 302.371 83.2756C302.371 84.2969 303.199 85.1247 304.22 85.1247Z" fill="#E6E6E6"/>
<path d="M305.33 83.2756C306.351 83.2756 307.179 82.4477 307.179 81.4265C307.179 80.4053 306.351 79.5774 305.33 79.5774C304.308 79.5774 303.48 80.4053 303.48 81.4265C303.48 82.4477 304.308 83.2756 305.33 83.2756Z" fill="#E6E6E6"/>
<path d="M300.892 98.8081C301.913 98.8081 302.741 97.9802 302.741 96.959C302.741 95.9377 301.913 95.1099 300.892 95.1099C299.87 95.1099 299.042 95.9377 299.042 96.959C299.042 97.9802 299.87 98.8081 300.892 98.8081Z" fill="#E6E6E6"/>
<path d="M328.258 119.518C329.28 119.518 330.107 118.69 330.107 117.669C330.107 116.648 329.28 115.82 328.258 115.82C327.237 115.82 326.409 116.648 326.409 117.669C326.409 118.69 327.237 119.518 328.258 119.518Z" fill="#E6E6E6"/>
<path d="M288.687 120.628C289.709 120.628 290.537 119.8 290.537 118.778C290.537 117.757 289.709 116.929 288.687 116.929C287.666 116.929 286.838 117.757 286.838 118.778C286.838 119.8 287.666 120.628 288.687 120.628Z" fill="#E6E6E6"/>
<path d="M290.906 63.6751C291.927 63.6751 292.755 62.8472 292.755 61.826C292.755 60.8047 291.927 59.9769 290.906 59.9769C289.885 59.9769 289.057 60.8047 289.057 61.826C289.057 62.8472 289.885 63.6751 290.906 63.6751Z" fill="#E6E6E6"/>
<path d="M299.412 96.9589C300.433 96.9589 301.261 96.1311 301.261 95.1098C301.261 94.0886 300.433 93.2607 299.412 93.2607C298.391 93.2607 297.563 94.0886 297.563 95.1098C297.563 96.1311 298.391 96.9589 299.412 96.9589Z" fill="#E6E6E6"/>
<path d="M297.563 94.0004C298.584 94.0004 299.412 93.1725 299.412 92.1513C299.412 91.1301 298.584 90.3022 297.563 90.3022C296.542 90.3022 295.714 91.1301 295.714 92.1513C295.714 93.1725 296.542 94.0004 297.563 94.0004Z" fill="#E6E6E6"/>
</g>
<defs>
<clipPath id="clip0">
<rect width="330.107" height="200" fill="white"/>
</clipPath>
</defs>
</svg>
