<svg width="321" height="200" viewBox="0 0 321 200" fill="none" xmlns="http://www.w3.org/2000/svg">
<g clip-path="url(#clip0)">
<path d="M83.7225 121.888C117.381 121.888 144.667 94.6028 144.667 60.9442C144.667 27.2857 117.381 0 83.7225 0C50.064 0 22.7783 27.2857 22.7783 60.9442C22.7783 94.6028 50.064 121.888 83.7225 121.888Z" fill="#F2F2F2"/>
<path d="M0 14.633C0 36.8069 13.9108 54.7498 31.1018 54.7498Z" fill="#2F2E41"/>
<path d="M31.1016 54.7498C31.1016 32.3267 46.6252 14.1823 65.8094 14.1823Z" fill="#2790DA"/>
<path d="M11.2686 16.6431C11.2686 37.706 20.1392 54.7498 31.1016 54.7498Z" fill="#2790DA"/>
<path d="M31.1016 54.7498C31.1016 26.0981 49.0444 2.91351 71.2184 2.91351Z" fill="#2F2E41"/>
<path d="M24.5586 55.0326C24.5586 55.0326 28.9693 54.8968 30.2986 53.9502C31.6279 53.0037 37.0835 51.8734 37.4132 53.3915C37.743 54.9096 44.0417 60.9418 39.062 60.982C34.0823 61.0221 27.4914 60.2063 26.1647 59.3981C24.838 58.59 24.5586 55.0326 24.5586 55.0326Z" fill="#A8A8A8"/>
<path opacity="0.2" d="M39.1509 60.4535C34.1712 60.4937 27.5803 59.6778 26.2536 58.8697C25.2432 58.2542 24.8406 56.0458 24.7058 55.0269C24.6125 55.0309 24.5586 55.0326 24.5586 55.0326C24.5586 55.0326 24.838 58.5899 26.1647 59.3981C27.4914 60.2063 34.0823 61.0221 39.0621 60.9819C40.4995 60.9703 40.996 60.4589 40.9687 59.7015C40.769 60.1591 40.2208 60.4449 39.1509 60.4535Z" fill="black"/>
<path d="M56.8263 128.738C86.3763 128.738 110.331 125.479 110.331 121.459C110.331 117.439 86.3763 114.18 56.8263 114.18C27.2763 114.18 3.32129 117.439 3.32129 121.459C3.32129 125.479 27.2763 128.738 56.8263 128.738Z" fill="#3F3D56"/>
<path opacity="0.1" d="M56.8266 127.57C81.6359 127.57 101.748 124.834 101.748 121.459C101.748 118.084 81.6359 115.348 56.8266 115.348C32.0172 115.348 11.9053 118.084 11.9053 121.459C11.9053 124.834 32.0172 127.57 56.8266 127.57Z" fill="black"/>
<path d="M239.373 200C284.093 200 320.346 195.068 320.346 188.984C320.346 182.9 284.093 177.969 239.373 177.969C194.653 177.969 158.4 182.9 158.4 188.984C158.4 195.068 194.653 200 239.373 200Z" fill="#3F3D56"/>
<path d="M88.8724 191.31C115.736 191.31 137.513 188.347 137.513 184.692C137.513 181.038 115.736 178.075 88.8724 178.075C62.0087 178.075 40.2314 181.038 40.2314 184.692C40.2314 188.347 62.0087 191.31 88.8724 191.31Z" fill="#3F3D56"/>
<path d="M132.363 179.113C158.114 185.694 207.614 170.529 213.05 153.362" stroke="#2F2E41" stroke-width="2" stroke-miterlimit="10"/>
<path d="M88.5859 74.1059C88.5859 74.1059 125.782 63.8055 128.071 96.9957C130.36 130.186 97.4558 139.628 123.207 146.209" stroke="#2F2E41" stroke-width="2" stroke-miterlimit="10"/>
<path d="M52.6494 153.729C52.6494 153.729 63.8289 150.633 64.5169 160.609C65.2048 170.584 55.3153 173.422 63.0549 175.4" stroke="#2F2E41" stroke-width="2" stroke-miterlimit="10"/>
<path d="M222.805 161.156L220.551 175.547C220.551 175.547 209.455 181.441 217.257 181.615C225.059 181.788 261.816 181.615 261.816 181.615C261.816 181.615 268.924 181.615 257.655 175.373L255.401 160.289L222.805 161.156Z" fill="#2F2E41"/>
<path opacity="0.1" d="M215.688 181.459C217.46 179.882 220.552 178.239 220.552 178.239L222.806 163.849L255.401 163.879L257.655 178.066C260.283 179.521 261.911 180.637 262.864 181.493C264.311 181.163 265.893 179.936 257.655 175.373L255.401 160.289L222.806 161.156L220.552 175.546C220.552 175.546 211.227 180.501 215.688 181.459Z" fill="black"/>
<path d="M307.193 60.8551H170.666C167.815 60.8551 165.503 63.1668 165.503 66.0184V157.986C165.503 160.838 167.815 163.15 170.666 163.15H307.193C310.045 163.15 312.356 160.838 312.356 157.986V66.0184C312.356 63.1668 310.045 60.8551 307.193 60.8551Z" fill="#2F2E41"/>
<path d="M307.415 66.3167H170.444V142.951H307.415V66.3167Z" fill="#3F3D56"/>
<path d="M238.929 64.7561C239.408 64.7561 239.796 64.368 239.796 63.8892C239.796 63.4105 239.408 63.0223 238.929 63.0223C238.451 63.0223 238.062 63.4105 238.062 63.8892C238.062 64.368 238.451 64.7561 238.929 64.7561Z" fill="#F2F2F2"/>
<path d="M312.356 149.019V157.986C312.356 158.665 312.223 159.336 311.964 159.962C311.704 160.589 311.324 161.158 310.844 161.638C310.365 162.117 309.796 162.497 309.169 162.757C308.543 163.016 307.871 163.15 307.193 163.15H170.666C169.988 163.15 169.317 163.016 168.69 162.757C168.064 162.497 167.495 162.117 167.015 161.638C166.536 161.158 166.155 160.589 165.896 159.962C165.636 159.336 165.503 158.665 165.503 157.986V149.019H312.356Z" fill="#2F2E41"/>
<path d="M277.247 190.977V192.711H183.968V191.324L184.096 190.977L186.395 184.736H275.339L277.247 190.977Z" fill="#2F2E41"/>
<path d="M313.143 189.28C312.974 190.006 312.332 190.773 310.883 191.498C305.681 194.098 295.105 190.804 295.105 190.804C295.105 190.804 286.956 189.417 286.956 185.776C287.185 185.619 287.423 185.477 287.67 185.351C289.857 184.194 297.108 181.339 309.964 185.472C310.912 185.769 311.758 186.324 312.408 187.074C312.929 187.683 313.338 188.457 313.143 189.28Z" fill="#2F2E41"/>
<path opacity="0.1" d="M313.144 189.28C306.777 191.719 301.103 191.902 295.279 187.857C292.342 185.818 289.673 185.313 287.671 185.351C289.858 184.194 297.108 181.339 309.965 185.472C310.912 185.769 311.758 186.324 312.409 187.074C312.93 187.683 313.338 188.457 313.144 189.28Z" fill="black"/>
<path d="M305.161 187.857C306.406 187.857 307.415 187.546 307.415 187.163C307.415 186.78 306.406 186.469 305.161 186.469C303.916 186.469 302.907 186.78 302.907 187.163C302.907 187.546 303.916 187.857 305.161 187.857Z" fill="#F2F2F2"/>
<path d="M238.93 159.422C240.749 159.422 242.224 157.947 242.224 156.128C242.224 154.309 240.749 152.834 238.93 152.834C237.111 152.834 235.636 154.309 235.636 156.128C235.636 157.947 237.111 159.422 238.93 159.422Z" fill="#F2F2F2"/>
<path opacity="0.1" d="M277.247 190.977V192.711H183.968V191.324L184.096 190.977H277.247Z" fill="black"/>
<path d="M90.5888 45.4935H31.0752V114.735H90.5888V45.4935Z" fill="#2F2E41"/>
<path d="M96.5981 38.6266H25.0674V63.2332H96.5981V38.6266Z" fill="#3F3D56"/>
<path d="M96.5981 67.8112H25.0674V92.4177H96.5981V67.8112Z" fill="#3F3D56"/>
<path d="M96.5981 96.9957H25.0674V121.602H96.5981V96.9957Z" fill="#3F3D56"/>
<path opacity="0.4" d="M82.2919 42.9185H77.7139V47.4964H82.2919V42.9185Z" fill="#2790DA"/>
<path opacity="0.8" d="M88.8719 42.9185H84.2939V47.4964H88.8719V42.9185Z" fill="#2790DA"/>
<path d="M95.453 42.9185H90.875V47.4964H95.453V42.9185Z" fill="#2790DA"/>
<path opacity="0.4" d="M82.2919 71.8169H77.7139V76.3949H82.2919V71.8169Z" fill="#2790DA"/>
<path opacity="0.8" d="M88.8719 71.8169H84.2939V76.3949H88.8719V71.8169Z" fill="#2790DA"/>
<path d="M95.453 71.8169H90.875V76.3949H95.453V71.8169Z" fill="#2790DA"/>
<path opacity="0.4" d="M82.2919 100.715H77.7139V105.293H82.2919V100.715Z" fill="#2790DA"/>
<path opacity="0.8" d="M88.8719 100.715H84.2939V105.293H88.8719V100.715Z" fill="#2790DA"/>
<path d="M95.453 100.715H90.875V105.293H95.453V100.715Z" fill="#2790DA"/>
<path d="M90.5891 176.538C103.073 176.538 113.193 166.418 113.193 153.934C113.193 141.451 103.073 131.331 90.5891 131.331C78.1054 131.331 67.9854 141.451 67.9854 153.934C67.9854 166.418 78.1054 176.538 90.5891 176.538Z" fill="#2F2E41"/>
<path d="M87.156 171.674H80.2891V183.977H87.156V171.674Z" fill="#2F2E41"/>
<path d="M100.889 171.674H94.0225V183.977H100.889V171.674Z" fill="#2F2E41"/>
<path d="M86.0115 186.266C89.1719 186.266 91.734 185.305 91.734 184.12C91.734 182.935 89.1719 181.974 86.0115 181.974C82.8511 181.974 80.2891 182.935 80.2891 184.12C80.2891 185.305 82.8511 186.266 86.0115 186.266Z" fill="#2F2E41"/>
<path d="M99.7449 185.98C102.905 185.98 105.467 185.019 105.467 183.834C105.467 182.649 102.905 181.688 99.7449 181.688C96.5845 181.688 94.0225 182.649 94.0225 183.834C94.0225 185.019 96.5845 185.98 99.7449 185.98Z" fill="#2F2E41"/>
<path d="M91.1618 155.937C95.4284 155.937 98.8872 152.478 98.8872 148.212C98.8872 143.945 95.4284 140.486 91.1618 140.486C86.8953 140.486 83.4365 143.945 83.4365 148.212C83.4365 152.478 86.8953 155.937 91.1618 155.937Z" fill="white"/>
<path d="M91.1611 150.787C92.5833 150.787 93.7362 149.634 93.7362 148.212C93.7362 146.79 92.5833 145.637 91.1611 145.637C89.7389 145.637 88.5859 146.79 88.5859 148.212C88.5859 149.634 89.7389 150.787 91.1611 150.787Z" fill="#3F3D56"/>
<path d="M68.6623 132.913C66.8371 124.739 72.6714 116.48 81.6935 114.466C90.7155 112.451 99.509 117.444 101.334 125.618C103.159 133.792 97.18 136.807 88.1579 138.821C79.1359 140.836 70.4874 141.087 68.6623 132.913Z" fill="#2790DA"/>
<path d="M111.789 149.426C117.527 146.97 121.554 143.519 120.783 141.717C120.012 139.916 114.735 140.446 108.997 142.902C103.258 145.358 99.2315 148.81 100.003 150.611C100.774 152.413 106.05 151.882 111.789 149.426Z" fill="#2F2E41"/>
<path d="M69.443 164.59C75.1814 162.134 79.2082 158.683 78.4372 156.882C77.6661 155.08 72.3893 155.611 66.6509 158.067C60.9126 160.523 56.8858 163.974 57.6568 165.776C58.4278 167.577 63.7047 167.046 69.443 164.59Z" fill="#2F2E41"/>
<path d="M103.751 160.515C103.751 162.727 98.0548 167.096 91.7339 167.096C85.4131 167.096 79.4307 163.013 79.4307 160.801C79.4307 158.589 85.4131 159.084 91.7339 159.084C98.0548 159.084 103.751 158.303 103.751 160.515Z" fill="white"/>
</g>
<defs>
<clipPath id="clip0">
<rect width="320.346" height="200" fill="white"/>
</clipPath>
</defs>
</svg>
