<svg width="240" height="200" viewBox="0 0 240 200" fill="none" xmlns="http://www.w3.org/2000/svg">
<g clip-path="url(#clip0)">
<path d="M108.907 0H0V121.552H108.907V0Z" fill="url(#paint0_linear)"/>
<path d="M107.105 81.1558H1.79883V118.905H107.105V81.1558Z" fill="white"/>
<path d="M14.5241 90.1095H10.4434V109.453H14.5241V90.1095Z" fill="#64FFDA"/>
<g opacity="0.7">
<path opacity="0.7" d="M22.5788 90.1095H18.498V109.453H22.5788V90.1095Z" fill="#64FFDA"/>
</g>
<g opacity="0.6">
<path opacity="0.6" d="M30.6374 90.1095H26.5566V109.453H30.6374V90.1095Z" fill="#64FFDA"/>
</g>
<g opacity="0.5">
<path opacity="0.5" d="M38.693 90.1095H34.6123V109.453H38.693V90.1095Z" fill="#64FFDA"/>
</g>
<g opacity="0.5">
<path opacity="0.5" d="M46.7477 90.1095H42.667V109.453H46.7477V90.1095Z" fill="#64FFDA"/>
</g>
<g opacity="0.4">
<path opacity="0.4" d="M54.8034 90.1095H50.7227V109.453H54.8034V90.1095Z" fill="#64FFDA"/>
</g>
<g opacity="0.3">
<path opacity="0.3" d="M62.862 90.1095H58.7812V109.453H62.862V90.1095Z" fill="#64FFDA"/>
</g>
<path d="M92.1973 109.504C97.6355 109.504 102.044 105.095 102.044 99.6569C102.044 94.2187 97.6355 89.8102 92.1973 89.8102C86.7591 89.8102 82.3506 94.2187 82.3506 99.6569C82.3506 105.095 86.7591 109.504 92.1973 109.504Z" fill="#EB5757"/>
<path d="M107.105 41.9359H1.79883V79.6851H107.105V41.9359Z" fill="white"/>
<path d="M14.5241 50.8896H10.4434V70.2333H14.5241V50.8896Z" fill="#64FFDA"/>
<g opacity="0.7">
<path opacity="0.7" d="M22.5788 50.8896H18.498V70.2333H22.5788V50.8896Z" fill="#64FFDA"/>
</g>
<g opacity="0.6">
<path opacity="0.6" d="M30.6374 50.8896H26.5566V70.2333H30.6374V50.8896Z" fill="#64FFDA"/>
</g>
<g opacity="0.5">
<path opacity="0.5" d="M38.693 50.8896H34.6123V70.2333H38.693V50.8896Z" fill="#64FFDA"/>
</g>
<g opacity="0.5">
<path opacity="0.5" d="M46.7477 50.8896H42.667V70.2333H46.7477V50.8896Z" fill="#64FFDA"/>
</g>
<g opacity="0.4">
<path opacity="0.4" d="M54.8034 50.8896H50.7227V70.2333H54.8034V50.8896Z" fill="#64FFDA"/>
</g>
<g opacity="0.3">
<path opacity="0.3" d="M62.862 50.8896H58.7812V70.2333H62.862V50.8896Z" fill="#64FFDA"/>
</g>
<path d="M92.1973 70.2864C97.6355 70.2864 102.044 65.8779 102.044 60.4397C102.044 55.0015 97.6355 50.593 92.1973 50.593C86.7591 50.593 82.3506 55.0015 82.3506 60.4397C82.3506 65.8779 86.7591 70.2864 92.1973 70.2864Z" fill="#EB5757"/>
<path d="M107.105 2.71606H1.79883V40.4653H107.105V2.71606Z" fill="white"/>
<path d="M14.5241 11.6724H10.4434V31.0161H14.5241V11.6724Z" fill="#64FFDA"/>
<g opacity="0.7">
<path opacity="0.7" d="M22.5788 11.6724H18.498V31.0161H22.5788V11.6724Z" fill="#64FFDA"/>
</g>
<g opacity="0.6">
<path opacity="0.6" d="M30.6374 11.6724H26.5566V31.0161H30.6374V11.6724Z" fill="#64FFDA"/>
</g>
<g opacity="0.5">
<path opacity="0.5" d="M38.693 11.6724H34.6123V31.0161H38.693V11.6724Z" fill="#64FFDA"/>
</g>
<g opacity="0.5">
<path opacity="0.5" d="M46.7477 11.6724H42.667V31.0161H46.7477V11.6724Z" fill="#64FFDA"/>
</g>
<g opacity="0.4">
<path opacity="0.4" d="M54.8034 11.6724H50.7227V31.0161H54.8034V11.6724Z" fill="#64FFDA"/>
</g>
<g opacity="0.3">
<path opacity="0.3" d="M62.862 11.6724H58.7812V31.0161H62.862V11.6724Z" fill="#64FFDA"/>
</g>
<path d="M92.1972 31.8349C98.0598 31.8349 102.812 27.0823 102.812 21.2197C102.812 15.3571 98.0598 10.6046 92.1972 10.6046C86.3346 10.6046 81.582 15.3571 81.582 21.2197C81.582 27.0823 86.3346 31.8349 92.1972 31.8349Z" fill="url(#paint1_linear)"/>
<path d="M92.6152 71.2303C98.4777 71.2303 103.23 66.4778 103.23 60.6152C103.23 54.7526 98.4777 50 92.6152 50C86.7526 50 82 54.7526 82 60.6152C82 66.4778 86.7526 71.2303 92.6152 71.2303Z" fill="url(#paint2_linear)"/>
<path d="M92.6152 110.534C98.4777 110.534 103.23 105.782 103.23 99.9192C103.23 94.0566 98.4777 89.304 92.6152 89.304C86.7526 89.304 82 94.0566 82 99.9192C82 105.782 86.7526 110.534 92.6152 110.534Z" fill="url(#paint3_linear)"/>
<path d="M92.1973 31.0664C97.6355 31.0664 102.044 26.6579 102.044 21.2197C102.044 15.7815 97.6355 11.373 92.1973 11.373C86.7591 11.373 82.3506 15.7815 82.3506 21.2197C82.3506 26.6579 86.7591 31.0664 92.1973 31.0664Z" fill="#EB5757"/>
<g opacity="0.7">
<path opacity="0.7" d="M122.156 42.0446H123.746" stroke="#2790DA" stroke-width="4" stroke-linecap="round" stroke-linejoin="round"/>
<path opacity="0.7" d="M154 42.0446H155.59" stroke="#2790DA" stroke-width="4" stroke-linecap="round" stroke-linejoin="round"/>
<path opacity="0.7" d="M168 42.0446H169.59" stroke="#2790DA" stroke-width="4" stroke-linecap="round" stroke-linejoin="round"/>
<path opacity="0.7" d="M133 42H145" stroke="#2790DA" stroke-width="4" stroke-linecap="round" stroke-linejoin="round" stroke-dasharray="12.52 33.38"/>
<path opacity="0.7" d="M181.247 42.0446H182.837V43.6344" stroke="#2790DA" stroke-width="4" stroke-linecap="round" stroke-linejoin="round"/>
<path opacity="0.7" d="M183 63L183 76" stroke="#2790DA" stroke-width="4" stroke-linecap="round" stroke-linejoin="round" stroke-dasharray="11.93 31.8"/>
<path opacity="0.7" d="M182.837 86.8264V88.4163" stroke="#2790DA" stroke-width="4" stroke-linecap="round" stroke-linejoin="round"/>
<path opacity="0.7" d="M182.837 52V53.5899" stroke="#2790DA" stroke-width="4" stroke-linecap="round" stroke-linejoin="round"/>
</g>
<g opacity="0.7">
<path opacity="0.7" d="M97.4014 162.081L95.8115 162.073" stroke="#2790DA" stroke-width="4" stroke-linecap="round" stroke-linejoin="round"/>
<path opacity="0.7" d="M87 162L73 162" stroke="#2790DA" stroke-width="4" stroke-linecap="round" stroke-linejoin="round" stroke-dasharray="12.52 33.38"/>
<path opacity="0.7" d="M62 162L48 162" stroke="#2790DA" stroke-width="4" stroke-linecap="round" stroke-linejoin="round" stroke-dasharray="12.52 33.38"/>
<path opacity="0.7" d="M38.3106 161.8L36.7207 161.792L36.7313 160.202" stroke="#2790DA" stroke-width="4" stroke-linecap="round" stroke-linejoin="round"/>
<path opacity="0.7" d="M37 151L37 138" stroke="#2790DA" stroke-width="4" stroke-linecap="round" stroke-linejoin="round" stroke-dasharray="11.55 30.79"/>
<path opacity="0.7" d="M36.9326 129.608L36.9432 128.018" stroke="#2790DA" stroke-width="4" stroke-linecap="round" stroke-linejoin="round"/>
</g>
<path d="M191.107 167.06C191.107 167.06 194.266 188.386 212.907 195.495H137.388C156.029 188.386 159.188 167.06 159.188 167.06H191.107Z" fill="#E0E0E0"/>
<path d="M213.241 195.495H137.019V200H213.241V195.495Z" fill="url(#paint4_linear)"/>
<path d="M212.907 195.495H137.398V198.972H212.907V195.495Z" fill="#F5F5F5"/>
<path d="M236.694 91.2543H114.141C113.385 91.2543 112.661 91.5544 112.126 92.0886C111.592 92.6228 111.292 93.3473 111.292 94.1028V171.316C111.292 172.22 111.651 173.086 112.29 173.725C112.929 174.364 113.796 174.723 114.7 174.723H236.135C236.583 174.723 237.026 174.635 237.439 174.464C237.853 174.293 238.228 174.042 238.545 173.725C238.861 173.409 239.112 173.033 239.284 172.62C239.455 172.206 239.543 171.763 239.543 171.316V94.1028C239.543 93.3473 239.243 92.6228 238.709 92.0886C238.174 91.5544 237.45 91.2543 236.694 91.2543V91.2543Z" fill="url(#paint5_linear)"/>
<path d="M115.683 92.4202H234.623C235.378 92.4202 236.103 92.7203 236.637 93.2545C237.171 93.7887 237.471 94.5132 237.471 95.2687V161.374H112.834V95.2714C112.834 94.8971 112.908 94.5264 113.051 94.1805C113.194 93.8346 113.403 93.5202 113.668 93.2554C113.932 92.9906 114.247 92.7806 114.592 92.6373C114.938 92.4939 115.309 92.4202 115.683 92.4202V92.4202Z" fill="white"/>
<path d="M234.063 172.747H116.242C115.338 172.747 114.472 172.388 113.833 171.749C113.193 171.11 112.834 170.243 112.834 169.339V161.374H237.471V169.339C237.471 170.243 237.112 171.11 236.473 171.749C235.834 172.388 234.967 172.747 234.063 172.747Z" fill="#F5F5F5"/>
<path d="M231.784 98.006H118.995V153.668H231.784V98.006Z" fill="#2790DA"/>
<path opacity="0.2" d="M123.458 101.7H231.856V97.9874H119.067V153.649H123.458V101.7Z" fill="white"/>
<path d="M92 25V21" stroke="white" stroke-width="2" stroke-linecap="round" stroke-linejoin="round"/>
<path d="M92 17H92.01" stroke="white" stroke-width="2" stroke-linecap="round" stroke-linejoin="round"/>
<path d="M92 65V61" stroke="white" stroke-width="2" stroke-linecap="round" stroke-linejoin="round"/>
<path d="M92 57H92.01" stroke="white" stroke-width="2" stroke-linecap="round" stroke-linejoin="round"/>
<path d="M92 103V99" stroke="white" stroke-width="2" stroke-linecap="round" stroke-linejoin="round"/>
<path d="M92 95H92.01" stroke="white" stroke-width="2" stroke-linecap="round" stroke-linejoin="round"/>
</g>
<defs>
<linearGradient id="paint0_linear" x1="54.4537" y1="121.552" x2="54.4537" y2="0" gradientUnits="userSpaceOnUse">
<stop stop-color="#808080" stop-opacity="0.25"/>
<stop offset="0.54" stop-color="#808080" stop-opacity="0.12"/>
<stop offset="1" stop-color="#808080" stop-opacity="0.1"/>
</linearGradient>
<linearGradient id="paint1_linear" x1="7468.46" y1="2561.21" x2="7468.46" y2="860.242" gradientUnits="userSpaceOnUse">
<stop stop-color="#808080" stop-opacity="0.25"/>
<stop offset="0.54" stop-color="#808080" stop-opacity="0.12"/>
<stop offset="1" stop-color="#808080" stop-opacity="0.1"/>
</linearGradient>
<linearGradient id="paint2_linear" x1="7468.87" y1="5763.93" x2="7468.87" y2="4062.96" gradientUnits="userSpaceOnUse">
<stop stop-color="#808080" stop-opacity="0.25"/>
<stop offset="0.54" stop-color="#808080" stop-opacity="0.12"/>
<stop offset="1" stop-color="#808080" stop-opacity="0.1"/>
</linearGradient>
<linearGradient id="paint3_linear" x1="7468.87" y1="8945.32" x2="7468.87" y2="7244.35" gradientUnits="userSpaceOnUse">
<stop stop-color="#808080" stop-opacity="0.25"/>
<stop offset="0.54" stop-color="#808080" stop-opacity="0.12"/>
<stop offset="1" stop-color="#808080" stop-opacity="0.1"/>
</linearGradient>
<linearGradient id="paint4_linear" x1="50512.8" y1="3595.5" x2="50512.8" y2="3518.92" gradientUnits="userSpaceOnUse">
<stop stop-color="#808080" stop-opacity="0.25"/>
<stop offset="0.54" stop-color="#808080" stop-opacity="0.12"/>
<stop offset="1" stop-color="#808080" stop-opacity="0.1"/>
</linearGradient>
<linearGradient id="paint5_linear" x1="103995" y1="61190.7" x2="103995" y2="34897.9" gradientUnits="userSpaceOnUse">
<stop stop-color="#808080" stop-opacity="0.25"/>
<stop offset="0.54" stop-color="#808080" stop-opacity="0.12"/>
<stop offset="1" stop-color="#808080" stop-opacity="0.1"/>
</linearGradient>
<clipPath id="clip0">
<rect width="239.543" height="200" fill="white"/>
</clipPath>
</defs>
</svg>
