<svg width="326" height="200" viewBox="0 0 326 200" fill="none" xmlns="http://www.w3.org/2000/svg">
<g clip-path="url(#clip0)">
<path opacity="0.1" d="M325.153 128.455C325.159 133.874 324.503 139.273 323.202 144.533C322.763 146.306 322.255 148.041 321.675 149.74C320.966 151.837 320.144 153.893 319.212 155.902C318.743 156.917 318.247 157.913 317.724 158.889C317.733 164.445 316.589 169.943 314.365 175.036C310.344 184.172 303.174 191.559 294.162 195.851C288.528 198.539 282.37 199.953 276.127 199.992H61.7248C52.1856 200.012 42.8112 197.506 34.5546 192.729L34.4276 192.657C33.2516 191.968 32.105 191.24 30.9878 190.47C28.4743 188.734 26.1128 186.787 23.9289 184.651C20.9729 181.762 18.3682 178.535 16.1687 175.036C11.003 166.833 8.26646 157.335 8.27606 147.642C3.04465 138.463 -0.00585938 127.467 -0.00585938 115.651C-0.00585938 100.744 4.84182 87.1451 12.8063 76.8507C14.4667 74.6999 16.2855 72.6763 18.2475 70.7966C20.1833 68.9365 22.2641 67.2334 24.47 65.7032C26.2348 64.4777 28.0794 63.371 29.9912 62.3904C30.7891 61.9846 31.5897 61.6009 32.404 61.2448C33.1191 60.9273 33.8423 60.6319 34.5739 60.3531C35.4518 60.02 36.3407 59.7135 37.2407 59.4338C38.1407 59.154 39.0287 58.9093 39.9047 58.6995C41.193 58.3848 42.5034 58.1289 43.8359 57.932C44.9401 57.7691 46.0444 57.6559 47.1486 57.5704C48.0265 57.5041 48.9127 57.4682 49.8044 57.4572H50.2875C51.2703 57.4572 52.2475 57.4958 53.2165 57.5621C53.3186 57.3578 53.4291 57.1507 53.5312 56.9492C53.9177 56.2121 54.318 55.4778 54.721 54.76C54.7201 54.7536 54.7201 54.7471 54.721 54.7407C54.7901 54.6137 54.8591 54.4895 54.9309 54.368C55.2566 53.78 55.5962 53.1975 55.944 52.6205C56.1041 52.3445 56.2615 52.085 56.4244 51.8255C56.4588 51.761 56.4966 51.6983 56.5376 51.6377C56.7032 51.3617 56.8716 51.0856 57.0427 50.8096C57.8949 49.4476 58.781 48.1096 59.7012 46.7956L59.9359 46.4588C60.0795 46.2545 60.212 46.0557 60.3721 45.8514C60.753 45.3186 61.1451 44.7831 61.5398 44.2586C61.8159 43.8831 62.092 43.5104 62.3901 43.1543C63.1079 42.2341 63.844 41.3139 64.5986 40.3937C65.3532 39.4734 66.1372 38.5652 66.9507 37.6689C67.0611 37.5447 67.1715 37.4232 67.2875 37.3017L68.4663 36.0153C68.5242 35.9546 68.5739 35.8993 68.6292 35.8441C68.7699 35.6923 68.9052 35.5405 69.057 35.3941C69.6892 34.7233 70.338 34.0663 70.9895 33.412C74.3052 30.1096 77.8374 27.032 81.5627 24.1998C81.7091 24.0838 81.8581 23.9734 82.0045 23.863C82.7057 23.3357 83.4179 22.8139 84.1301 22.3004C88.0478 19.49 92.143 16.9356 96.3901 14.6535C96.6828 14.4851 96.9809 14.3277 97.2818 14.1731C101.089 12.1587 105.005 10.356 109.012 8.7733C111.195 7.90922 113.429 7.09759 115.676 6.35498C117.172 5.86359 118.674 5.39704 120.195 4.9581C122.573 4.27346 124.967 3.65968 127.378 3.11675C134.481 1.52299 141.707 0.538472 148.978 0.17391C151.186 0.0616439 153.419 0.00367128 155.678 -9.57321e-06C166.574 -0.014435 177.428 1.35852 187.977 4.08574C188.086 4.25057 188.235 4.38495 188.411 4.47622C188.586 4.5675 188.782 4.61268 188.979 4.6075H189.907C190.31 4.71792 190.71 4.82835 191.113 4.94429C193.364 5.59212 195.583 6.29977 197.769 7.06723L198.321 7.26599C203.718 9.1849 208.968 11.4914 214.032 14.1676C218.597 16.5742 222.992 19.2896 227.186 22.2949C227.832 22.7587 228.469 23.2262 229.097 23.6973C229.859 23.2096 230.634 22.7421 231.421 22.2949C234.463 20.5624 237.694 19.1851 241.05 18.1898C248.067 16.1133 255.492 15.823 262.65 17.3451C271.829 19.2913 280.138 24.1225 286.849 30.9937C289.582 33.8051 292.014 36.8934 294.107 40.2087C294.259 40.4461 294.411 40.6863 294.557 40.9292C296.356 43.8635 297.902 46.9453 299.178 50.1415C299.225 50.2602 299.272 50.3706 299.314 50.4866C300.492 53.4794 301.443 56.5571 302.157 59.6933C302.19 59.8534 302.229 60.0108 302.262 60.1709C302.93 63.206 303.384 66.2843 303.62 69.3831C303.62 69.4936 303.62 69.6067 303.642 69.7227C303.758 71.3257 303.817 72.9453 303.819 74.5814C303.819 76.0446 303.769 77.4967 303.678 78.9377C303.678 79.0951 303.656 79.2579 303.642 79.4208C303.618 79.8377 303.582 80.249 303.546 80.6686C305.654 82.3693 307.627 84.231 309.448 86.2368C310.252 87.1147 311.031 88.0257 311.784 88.9699C314.076 91.8435 316.091 94.928 317.802 98.1821C322.47 106.994 325.153 117.36 325.153 128.455Z" fill="#2790DA"/>
<path opacity="0.1" d="M293.958 194.829C293.958 196.715 287.462 198.482 276.127 200H61.7249C52.1858 200.02 42.8113 197.514 34.5547 192.737L34.4277 192.665C37.6853 191.478 43.5654 190.371 51.5685 189.372L51.9274 189.327C55.5163 188.888 59.5275 188.472 63.9114 188.077C64.0218 188.077 64.135 188.06 64.2454 188.046C67.7238 187.737 71.424 187.447 75.3459 187.177C75.4702 187.177 75.5916 187.155 75.7158 187.149C77.2287 187.041 78.7728 186.938 80.3482 186.84L80.9555 186.801C92.426 186.089 105.464 185.52 119.604 185.145H119.621C121.601 185.09 123.603 185.041 125.625 184.999C127.874 184.945 130.151 184.898 132.455 184.858C134.214 184.819 135.994 184.792 137.781 184.764H137.822C145.88 184.643 154.206 184.582 162.72 184.582C183.773 184.582 203.671 184.966 221.304 185.656H221.353C224.064 185.761 226.726 185.877 229.321 185.995L231.529 186.1C234.457 186.24 237.31 186.39 240.087 186.55C272.745 188.408 293.958 191.425 293.958 194.829Z" fill="#2790DA"/>
<g opacity="0.2">
<path opacity="0.2" d="M187.801 183.315C187.792 183.612 187.758 183.909 187.699 184.201C185.777 183.895 183.845 183.619 181.901 183.373C181.901 183.295 181.901 183.215 181.901 183.135C181.919 182.307 182.158 181.499 182.592 180.794C183.16 179.894 184.024 179.331 184.977 179.361C185.929 179.392 186.755 180.007 187.265 180.938C187.652 181.668 187.836 182.489 187.801 183.315V183.315Z" fill="#3F3D56"/>
<path opacity="0.2" d="M187.96 178.597C188.027 176.462 186.76 174.69 185.129 174.638C183.499 174.587 182.122 176.276 182.055 178.411C181.987 180.546 183.254 182.318 184.885 182.37C186.516 182.421 187.892 180.732 187.96 178.597Z" fill="#3F3D56"/>
<path opacity="0.2" d="M188.11 173.871C188.177 171.736 186.91 169.963 185.28 169.912C183.649 169.86 182.273 171.549 182.205 173.684C182.138 175.819 183.405 177.592 185.035 177.643C186.666 177.695 188.043 176.006 188.11 173.871Z" fill="#3F3D56"/>
<path opacity="0.2" d="M188.257 169.145C188.325 167.01 187.058 165.237 185.427 165.186C183.797 165.134 182.42 166.823 182.353 168.958C182.285 171.093 183.552 172.866 185.183 172.917C186.813 172.969 188.19 171.28 188.257 169.145Z" fill="#3F3D56"/>
<path opacity="0.2" d="M188.406 164.418C188.473 162.283 187.206 160.511 185.576 160.459C183.945 160.408 182.569 162.097 182.501 164.232C182.434 166.367 183.701 168.139 185.331 168.191C186.962 168.242 188.338 166.553 188.406 164.418Z" fill="#3F3D56"/>
<path opacity="0.2" d="M175.405 131.624C175.016 131.098 174.666 130.545 174.356 129.968L182.158 128.938L173.76 128.737C173.01 126.959 172.632 125.047 172.646 123.118C172.661 121.189 173.069 119.284 173.845 117.518L184.921 123.715L174.776 115.754C175.799 114.098 177.153 112.672 178.753 111.563C180.352 110.454 182.163 109.688 184.072 109.31C185.982 108.933 187.948 108.953 189.849 109.37C191.75 109.787 193.545 110.591 195.121 111.733C196.697 112.875 198.021 114.329 199.01 116.005C199.999 117.681 200.631 119.544 200.868 121.475C201.105 123.407 200.941 125.367 200.386 127.232C199.832 129.098 198.899 130.829 197.645 132.317C198.25 133.136 198.763 134.018 199.177 134.948L188.938 139.862L199.796 136.596C200.479 138.853 200.589 141.244 200.116 143.553C199.643 145.862 198.601 148.017 197.085 149.823C198.661 151.961 199.604 154.501 199.805 157.15C200.006 159.799 199.457 162.452 198.222 164.804C196.987 167.156 195.114 169.113 192.819 170.451C190.524 171.79 187.898 172.455 185.243 172.371C182.587 172.288 180.009 171.458 177.802 169.978C175.596 168.498 173.85 166.427 172.766 164.001C171.681 161.576 171.301 158.894 171.668 156.263C172.036 153.631 173.137 151.157 174.845 149.121C172.962 146.565 171.992 143.451 172.092 140.277C172.192 137.104 173.356 134.057 175.397 131.624H175.405Z" fill="#2790DA"/>
<path opacity="0.1" d="M200.397 141.171C200.301 144.346 199.133 147.395 197.085 149.823C198.661 151.961 199.604 154.501 199.805 157.15C200.006 159.799 199.457 162.452 198.222 164.804C196.987 167.156 195.114 169.113 192.819 170.452C190.524 171.79 187.898 172.455 185.243 172.371C182.587 172.288 180.009 171.458 177.802 169.978C175.596 168.498 173.85 166.427 172.766 164.001C171.681 161.576 171.301 158.894 171.668 156.263C172.036 153.631 173.137 151.157 174.845 149.121C173.031 146.656 200.447 139.583 200.397 141.171Z" fill="black"/>
</g>
<g opacity="0.2">
<path opacity="0.2" d="M145.839 183.315C145.83 183.612 145.796 183.909 145.737 184.201C143.815 183.895 141.883 183.619 139.939 183.373C139.939 183.295 139.939 183.215 139.939 183.135C139.957 182.307 140.196 181.499 140.63 180.794C141.198 179.894 142.062 179.331 143.015 179.361C143.967 179.392 144.793 180.007 145.303 180.938C145.69 181.668 145.875 182.489 145.839 183.315V183.315Z" fill="#3F3D56"/>
<path opacity="0.2" d="M145.994 178.598C146.061 176.463 144.794 174.691 143.164 174.639C141.533 174.588 140.156 176.277 140.089 178.412C140.021 180.547 141.289 182.319 142.919 182.371C144.55 182.422 145.926 180.733 145.994 178.598Z" fill="#3F3D56"/>
<path opacity="0.2" d="M146.145 173.872C146.213 171.737 144.945 169.965 143.315 169.913C141.684 169.862 140.308 171.55 140.24 173.685C140.173 175.82 141.44 177.593 143.071 177.644C144.701 177.696 146.078 176.007 146.145 173.872Z" fill="#3F3D56"/>
<path opacity="0.2" d="M146.293 169.146C146.36 167.011 145.093 165.238 143.462 165.187C141.832 165.135 140.455 166.824 140.388 168.959C140.32 171.094 141.587 172.867 143.218 172.918C144.849 172.97 146.225 171.281 146.293 169.146Z" fill="#3F3D56"/>
<path opacity="0.2" d="M146.44 164.419C146.508 162.284 145.24 160.512 143.61 160.46C141.979 160.409 140.603 162.098 140.535 164.233C140.468 166.368 141.735 168.14 143.365 168.192C144.996 168.243 146.373 166.554 146.44 164.419Z" fill="#3F3D56"/>
<path opacity="0.2" d="M133.443 131.624C133.055 131.098 132.704 130.545 132.394 129.968L140.196 128.938L131.798 128.737C131.049 126.959 130.67 125.047 130.684 123.118C130.699 121.189 131.107 119.284 131.884 117.518L142.959 123.715L132.814 115.754C133.837 114.098 135.191 112.672 136.791 111.563C138.39 110.454 140.201 109.688 142.11 109.31C144.02 108.933 145.986 108.953 147.887 109.37C149.788 109.787 151.583 110.591 153.159 111.733C154.735 112.875 156.059 114.329 157.048 116.005C158.037 117.681 158.669 119.544 158.906 121.475C159.143 123.407 158.979 125.367 158.424 127.232C157.87 129.098 156.937 130.829 155.683 132.317C156.288 133.136 156.801 134.018 157.215 134.948L146.976 139.862L157.834 136.596C158.517 138.853 158.627 141.244 158.154 143.553C157.681 145.862 156.639 148.017 155.123 149.823C156.699 151.961 157.642 154.501 157.843 157.15C158.044 159.799 157.495 162.452 156.26 164.804C155.025 167.156 153.152 169.113 150.857 170.451C148.562 171.79 145.936 172.455 143.281 172.371C140.625 172.288 138.047 171.458 135.84 169.978C133.634 168.498 131.889 166.427 130.804 164.001C129.719 161.576 129.339 158.894 129.707 156.263C130.074 153.631 131.175 151.157 132.883 149.121C131 146.565 130.03 143.451 130.13 140.277C130.23 137.104 131.394 134.057 133.435 131.624H133.443Z" fill="#2790DA"/>
<path opacity="0.1" d="M158.435 141.171C158.339 144.346 157.171 147.395 155.123 149.823C156.699 151.961 157.642 154.501 157.843 157.15C158.044 159.799 157.496 162.452 156.26 164.804C155.025 167.156 153.152 169.113 150.857 170.452C148.562 171.79 145.936 172.455 143.281 172.371C140.625 172.288 138.047 171.458 135.84 169.978C133.634 168.498 131.889 166.427 130.804 164.001C129.719 161.576 129.339 158.894 129.707 156.263C130.074 153.631 131.175 151.157 132.883 149.121C131.069 146.656 158.485 139.583 158.435 141.171Z" fill="black"/>
</g>
<g opacity="0.2">
<path opacity="0.2" d="M260.461 186.335C260.44 186.899 260.373 187.46 260.26 188.013C256.561 187.423 252.835 186.894 249.082 186.429C249.082 186.28 249.082 186.128 249.082 185.973C249.117 184.379 249.576 182.823 250.413 181.465C251.517 179.734 253.173 178.649 255.004 178.704C256.834 178.76 258.427 179.949 259.421 181.741C260.17 183.152 260.529 184.738 260.461 186.335V186.335Z" fill="#3F3D56"/>
<path opacity="0.2" d="M260.761 177.246C260.891 173.134 258.45 169.721 255.31 169.622C252.169 169.522 249.518 172.775 249.388 176.886C249.258 180.998 251.698 184.411 254.839 184.511C257.98 184.61 260.631 181.357 260.761 177.246Z" fill="#3F3D56"/>
<path opacity="0.2" d="M261.048 168.147C261.178 164.035 258.738 160.622 255.597 160.522C252.456 160.423 249.805 163.676 249.675 167.787C249.545 171.899 251.986 175.312 255.126 175.411C258.267 175.511 260.918 172.258 261.048 168.147Z" fill="#3F3D56"/>
<path opacity="0.2" d="M261.338 159.047C261.468 154.936 259.028 151.523 255.887 151.423C252.746 151.324 250.095 154.577 249.965 158.688C249.835 162.8 252.276 166.213 255.416 166.312C258.557 166.411 261.209 163.159 261.338 159.047Z" fill="#3F3D56"/>
<path opacity="0.2" d="M261.301 149.534C261.424 145.421 258.977 142.01 255.835 141.915C252.692 141.821 250.045 145.079 249.922 149.193C249.798 153.306 252.246 156.717 255.388 156.812C258.53 156.906 261.178 153.648 261.301 149.534Z" fill="#3F3D56"/>
<path opacity="0.2" d="M236.596 86.8248C235.851 85.8114 235.176 84.7479 234.577 83.6418L249.595 81.6597L233.432 81.2704C231.988 77.8486 231.258 74.1682 231.285 70.4543C231.313 66.7404 232.098 63.0712 233.592 59.6712L254.918 71.5999L235.389 56.2728C237.364 53.0937 239.972 50.3553 243.051 48.2283C246.13 46.1013 249.615 44.6314 253.287 43.91C256.959 43.1887 260.741 43.2314 264.396 44.0355C268.051 44.8397 271.501 46.388 274.532 48.584C277.562 50.78 280.108 53.5766 282.01 56.7996C283.912 60.0226 285.13 63.6028 285.588 67.3171C286.046 71.0314 285.734 74.8003 284.672 78.3888C283.609 81.9772 281.819 85.3085 279.413 88.1748C280.576 89.7523 281.565 91.4508 282.364 93.2406L262.65 102.707L283.551 96.4125C284.868 100.751 285.083 105.349 284.175 109.791C283.268 114.233 281.266 118.378 278.353 121.852C281.387 125.969 283.201 130.857 283.588 135.957C283.975 141.057 282.919 146.163 280.541 150.691C278.162 155.219 274.558 158.987 270.139 161.563C265.721 164.139 260.666 165.42 255.554 165.258C250.442 165.097 245.479 163.501 241.231 160.652C236.984 157.802 233.624 153.815 231.535 149.146C229.447 144.478 228.715 139.315 229.422 134.25C230.129 129.184 232.248 124.42 235.535 120.502C231.912 115.581 230.046 109.586 230.239 103.479C230.431 97.3709 232.67 91.5049 236.596 86.8221V86.8248Z" fill="#2790DA"/>
<path opacity="0.1" d="M284.713 105.2C284.532 111.309 282.295 117.178 278.364 121.857C281.398 125.975 283.212 130.863 283.599 135.963C283.986 141.063 282.93 146.169 280.551 150.697C278.173 155.225 274.569 158.992 270.15 161.568C265.732 164.144 260.677 165.425 255.565 165.264C250.453 165.103 245.489 163.506 241.242 160.657C236.994 157.808 233.634 153.821 231.546 149.152C229.458 144.483 228.725 139.321 229.433 134.255C230.14 129.19 232.259 124.426 235.546 120.507C232.029 115.756 284.81 102.144 284.713 105.2Z" fill="black"/>
</g>
<path d="M43.5684 186.821L46.4643 186.812H50.5473L55.7096 102.95L106.834 17.6378L104.612 15.2526V9.21228L49.3215 100.973L43.5684 186.821Z" fill="#F1C0C0"/>
<path opacity="0.1" d="M46.7734 186.812H50.5472L55.7096 102.95L106.834 17.6377L104.612 15.2525L51.8779 101.672L46.7734 186.812Z" fill="black"/>
<path d="M35.0352 187.519L167.504 197.656L167.618 197.665L295.819 189.78L295.916 189.775V184.361L154.654 181.769L36.7992 181.656H35.9379L35.844 182.263L35.0352 187.519Z" fill="#F1C0C0"/>
<path opacity="0.1" d="M35.0352 187.519L167.504 197.656L167.618 197.665L295.819 189.78L295.916 189.675V184.474H295.802L167.504 188.759L36.7992 181.656H36.7799L36.548 181.807L35.844 182.263L35.0352 187.519Z" fill="black"/>
<path opacity="0.1" d="M35.0352 187.519L167.504 197.656V188.759L36.548 181.807L35.844 182.263L35.0352 187.519Z" fill="black"/>
<path d="M104.595 15.1394L162.996 77.8224L161.191 188.082L166.151 188.681L166.234 188.692H171.195L171.789 82.5569L281.146 119.086L282.99 184.126L286.982 184.574L288.335 184.725L285.204 114.575L170.886 74.4406L108.203 9.27576H104.595V15.1394Z" fill="#F1C0C0"/>
<path opacity="0.1" d="M171.339 80.5279L171.789 82.557L281.146 119.086L282.99 184.126L286.982 184.574L283.851 117.733L171.339 80.5279Z" fill="black"/>
<path opacity="0.1" d="M104.595 15.1394L162.996 77.8224L161.191 188.082L166.151 188.681L167.504 74.2143L104.595 9.27576V15.1394Z" fill="black"/>
<path d="M171.552 124.778L211.661 132.676L211.675 132.679L281.925 146.518L285.141 145.229L285.13 145.003L284.92 140.516L171.593 117.617L171.552 124.778Z" fill="#F1C0C0"/>
<path opacity="0.1" d="M211.675 132.679L281.925 146.518L285.141 145.229L285.13 145.003L211.675 132.679Z" fill="black"/>
<path d="M214.361 96.7769L215.446 156.501L216.007 187.141L220.945 186.975L224.054 186.87L223.088 97.641L220.945 96.9287L220.476 96.7769H214.361Z" fill="#F1C0C0"/>
<path opacity="0.1" d="M214.405 96.7632V96.777L215.446 156.501L216.006 187.141L220.945 186.975V96.7632H214.405Z" fill="black"/>
<path d="M136.999 112.029C137.289 112.187 137.566 112.367 137.828 112.568C138.137 112.839 138.415 113.143 138.656 113.476C139.84 115.008 140.933 116.789 140.817 118.721C140.82 119.002 140.767 119.281 140.661 119.542C140.555 119.802 140.399 120.04 140.202 120.24C139.713 120.657 139.012 120.676 138.371 120.676C137.676 120.676 136.944 120.676 136.342 120.317C135.741 119.958 135.238 119.26 134.526 119.276C134.425 119.293 134.323 119.293 134.222 119.276C133.977 119.196 133.927 118.873 133.767 118.669C133.491 118.302 132.908 118.393 132.475 118.553C132.041 118.713 131.561 118.953 131.133 118.768C130.885 118.637 130.682 118.434 130.551 118.186C129.526 116.529 129.308 114.539 129.115 112.615C128.996 111.444 128.091 107.452 130.589 108.361C131.694 108.758 132.726 109.553 133.731 110.136L136.999 112.029Z" fill="#3F3D56"/>
<path d="M134.532 112.424C134.755 112.585 135.025 112.666 135.3 112.655C135.574 112.644 135.838 112.541 136.047 112.364C136.458 111.992 136.72 111.484 136.784 110.934C137.06 110.848 137.201 111.21 137.378 111.43C137.687 111.806 138.316 111.8 138.598 112.201C138.794 112.477 138.75 112.86 138.888 113.172C139.067 113.575 139.512 113.785 139.815 114.111C140.102 114.467 140.309 114.88 140.423 115.323L140.875 116.681C141.092 117.246 141.231 117.838 141.29 118.44C141.318 118.741 141.286 119.044 141.196 119.333C141.106 119.622 140.96 119.89 140.765 120.121C140.158 120.775 139.161 120.844 138.28 120.825C137.986 120.831 137.693 120.797 137.408 120.723C136.627 120.48 136.127 119.693 135.92 118.901C135.713 118.108 135.735 117.277 135.614 116.466C135.482 115.669 135.251 114.891 134.924 114.152C134.681 113.578 134.013 112.722 134.024 112.112C134.222 112.112 134.366 112.295 134.532 112.424Z" fill="#3F3D56"/>
<path d="M135.523 109.628C135.394 109.236 135.318 108.828 135.299 108.416C135.299 107.588 135.677 106.809 136.058 106.069L132.903 106.497C132.522 106.55 132.097 106.627 131.881 106.944C131.8 107.102 131.757 107.276 131.757 107.454C131.757 107.631 131.8 107.806 131.881 107.963C132.04 108.278 132.165 108.608 132.257 108.949C132.264 109.247 132.298 109.543 132.359 109.835C132.457 110.049 132.595 110.243 132.765 110.406C133.667 111.406 134.344 112.584 135.017 113.752C134.998 113.719 136.919 112.231 136.842 111.745C136.798 111.469 136.243 111.138 136.066 110.873C135.822 110.488 135.639 110.068 135.523 109.628V109.628Z" fill="#BE6F72"/>
<path d="M162.576 98.8419V101.561L116.013 110.644L113.597 112.107H105.263V110.575L151.012 99.521L162.576 98.8419Z" fill="#F1C0C0"/>
<path opacity="0.1" d="M162.576 101.561L116.013 110.644L113.597 112.107H105.263L151.352 102.243L162.576 101.561Z" fill="black"/>
<path d="M125.192 176.035C124.674 175.407 123.957 174.972 123.16 174.803C122.363 174.634 121.533 174.739 120.803 175.102C120.647 175.175 120.509 175.283 120.4 175.416C120.124 175.803 120.301 176.336 120.325 176.813C120.389 177.978 119.461 178.925 118.628 179.74C118.18 180.176 117.725 180.642 117.523 181.236C117.322 181.829 117.471 182.583 118.012 182.892C118.248 183.011 118.505 183.082 118.768 183.102C119.651 183.274 120.556 183.299 121.446 183.177C122.327 183.008 123.191 182.509 123.572 181.697C123.645 181.477 123.767 181.276 123.928 181.109C124.414 180.725 125.159 181.175 125.711 180.902C126.167 180.676 126.186 180.319 126.192 179.85C126.208 178.553 126.015 177.084 125.192 176.035Z" fill="#2790DA"/>
<path d="M131.818 175.985C132.158 176.88 132.205 177.854 132.249 178.809C132.274 179.361 132.29 179.952 131.992 180.419C131.694 180.885 131.112 181.131 130.554 181.247C129.403 181.484 128.069 181.261 127.327 180.347C126.758 179.649 126.639 178.691 126.744 177.785C126.833 177.043 127.02 176.173 126.487 175.646C126.349 175.505 126.17 175.405 126.043 175.254C125.767 174.917 125.811 174.409 125.96 173.995C126.154 173.599 126.3 173.181 126.394 172.75C126.416 172.545 130.131 172.893 130.474 173.062C130.94 173.291 130.869 173.675 131.009 174.138C131.205 174.784 131.581 175.367 131.818 175.985Z" fill="#2790DA"/>
<path d="M132.5 136.326C133.229 136.798 133.51 137.726 133.624 138.587C133.936 140.947 133.389 143.332 133.348 145.715C133.309 149.052 134.275 152.451 133.45 155.684C132.956 157.616 133.375 159.824 132.911 161.776C132.773 162.356 132.519 162.903 132.387 163.482C132.111 164.738 132.401 166.052 132.79 167.281C132.914 167.612 132.993 167.958 133.025 168.311C133.006 168.853 132.868 169.384 132.622 169.868L130.965 173.785C130.78 174.224 130.051 174.296 129.585 174.354C128.707 174.459 127.727 174.533 127.028 173.989C126.33 173.445 126.162 172.534 126.054 171.684C125.847 170.052 125.755 168.407 125.778 166.762C125.808 166.333 125.77 165.901 125.665 165.484C125.513 165.012 125.179 164.603 125.088 164.103C124.972 163.457 125.3 162.823 125.422 162.171C125.505 161.576 125.496 160.972 125.394 160.379C125.287 159.496 125.162 158.613 125.022 157.735C124.823 156.506 125.107 155.294 125.298 154.063C125.477 152.906 125.248 151.728 125.022 150.579C125.041 151.511 124.925 152.441 124.676 153.34C124.53 153.779 124.32 154.198 124.193 154.645C123.627 156.652 124.834 158.759 124.663 160.838C124.583 161.809 124.202 162.77 124.309 163.728C124.384 164.429 124.71 165.072 124.933 165.741C125.157 166.409 125.273 167.173 124.933 167.797C124.036 169.492 124.707 171.797 125.51 173.537C125.673 173.845 125.815 174.164 125.935 174.492C126.173 175.276 125.974 176.118 126.037 176.935C125.806 176.973 125.569 176.957 125.345 176.89C125.121 176.822 124.915 176.705 124.743 176.546C124.621 176.419 124.522 176.27 124.403 176.137C124.071 175.821 123.679 175.576 123.249 175.417C122.997 175.275 122.71 175.209 122.421 175.226C122.118 175.311 121.845 175.48 121.634 175.715C121.361 175.955 121.071 176.175 120.767 176.375C120.638 176.474 120.486 176.541 120.326 176.571C120.245 176.583 120.162 176.57 120.089 176.533C120.016 176.495 119.957 176.436 119.92 176.363C119.903 176.317 119.892 176.269 119.889 176.22C119.787 175.386 119.733 174.548 119.727 173.708C119.727 172.264 117.998 171.27 117.78 169.843C117.606 168.692 117.929 167.518 117.822 166.359C117.769 165.763 117.604 165.177 117.615 164.581C117.615 164.195 117.703 163.816 117.733 163.433C117.759 163.007 117.752 162.579 117.714 162.154L117.629 160.821C117.546 159.504 117.455 158.16 116.936 156.956C116.32 155.551 115.956 154.048 115.859 152.517C115.804 151.551 115.84 150.585 115.729 149.616C115.63 148.74 115.409 147.871 115.472 146.993C115.525 146.314 115.749 145.657 115.801 144.978C115.909 143.672 115.412 142.402 115.022 141.151C114.633 139.901 114.346 138.515 114.857 137.309C114.93 137.111 115.051 136.934 115.21 136.795C115.406 136.666 115.629 136.583 115.862 136.552C120.598 135.557 125.453 135.248 130.278 135.633C131.064 135.678 131.828 135.916 132.5 136.326Z" fill="#3F3D56"/>
<path d="M116.828 107.005C119.27 107.005 121.25 105.025 121.25 102.583C121.25 100.14 119.27 98.16 116.828 98.16C114.385 98.16 112.405 100.14 112.405 102.583C112.405 105.025 114.385 107.005 116.828 107.005Z" fill="#BE6F72"/>
<path d="M115.972 108.107C116.035 108.359 116.035 108.624 115.972 108.877C115.902 109.053 115.804 109.218 115.682 109.363C115.254 109.915 114.78 110.43 114.266 110.903C114.528 111.488 114.999 111.954 115.588 112.209C116.172 112.458 116.785 112.633 117.413 112.731C117.726 112.813 118.052 112.835 118.373 112.797C118.67 112.722 118.95 112.595 119.202 112.421L121.659 110.95C122.029 110.749 122.373 110.502 122.68 110.213C123.131 109.75 123.386 109.131 123.392 108.485C123.404 108.369 123.372 108.253 123.304 108.159C123.21 108.077 123.092 108.028 122.967 108.018C122.103 107.828 121.421 107.127 121.035 106.332C120.685 105.516 120.459 104.654 120.364 103.772L117.744 105.153C117.355 105.36 116.968 105.567 116.565 105.746C116.308 105.862 115.789 105.959 115.607 106.193C115.259 106.627 115.881 107.585 115.972 108.107Z" fill="#BE6F72"/>
<path d="M114.282 110.1C113.909 110.406 113.618 110.799 113.435 111.245C113.263 111.798 113.435 112.38 113.589 112.927C114.314 115.256 114.867 117.636 115.246 120.046C115.477 121.703 115.563 123.384 115.676 125.06C115.908 128.477 116.245 133.927 116.695 137.322C118.351 137.397 119.966 136.914 121.609 136.737C124.679 136.411 127.84 137.157 130.846 136.461C130.117 133.582 129.388 128.665 128.66 125.789C128.337 124.655 128.113 123.496 127.991 122.324C127.928 121.482 127.967 120.637 127.978 119.79C128.002 118.133 127.911 116.477 127.82 114.821C127.715 112.888 127.61 110.956 127.152 109.065C127.12 108.824 127.007 108.601 126.832 108.432C126.556 108.231 126.197 108.303 125.869 108.347C124.863 108.475 123.845 108.233 123.003 107.668C122.639 107.419 122.15 107.116 121.81 107.392C121.665 107.558 121.57 107.762 121.534 107.98C121.384 108.37 121.152 108.724 120.854 109.018C120.556 109.312 120.199 109.538 119.806 109.683C119.019 109.968 118.196 110.137 117.36 110.185C117.105 110.24 116.838 110.21 116.601 110.1C116.209 109.86 116.181 108.996 115.687 108.938C115.254 108.888 114.575 109.821 114.282 110.1Z" fill="#3F3D56"/>
<path d="M120.814 116.841C119.795 115.867 119.348 114.453 118.605 113.252C118.1 112.445 117.454 111.734 116.698 111.154C116.318 110.903 115.969 110.608 115.66 110.274C115.397 109.951 115.199 109.52 114.801 109.396C114.637 109.36 114.466 109.365 114.304 109.409C114.142 109.454 113.993 109.538 113.871 109.653C113.627 109.884 113.397 110.13 113.181 110.387C112.01 111.599 109.953 111.767 109.026 113.17C108.776 113.467 108.606 113.823 108.532 114.205C108.265 116.246 108.792 118.312 110.006 119.975C110.241 120.36 110.602 120.653 111.027 120.803C110.97 121.318 111.038 121.839 111.226 122.321C111.737 124.068 112.365 125.779 113.106 127.442C112.929 128.093 112.805 128.756 112.736 129.427C112.543 131.114 112.722 132.825 112.54 134.515C112.391 135.895 111.988 137.24 111.974 138.623C111.974 138.844 111.994 139.106 112.184 139.219C112.285 139.271 112.399 139.295 112.513 139.288L115.908 139.39C117.879 139.448 119.87 139.506 121.81 139.142C122.069 139.103 122.319 139.024 122.553 138.907C123.21 138.54 123.428 137.712 123.533 136.975C123.67 136.018 123.725 135.052 123.696 134.087C124.107 135.387 124.596 136.732 125.838 137.295C126.495 137.593 127.246 137.571 127.967 137.552C129.52 137.482 131.067 137.323 132.602 137.074C132.696 137.086 132.792 137.075 132.882 137.043C132.972 137.011 133.053 136.958 133.118 136.889C133.184 136.821 133.233 136.737 133.261 136.646C133.288 136.555 133.294 136.458 133.278 136.364L133.295 134.857C133.328 131.796 132.569 128.869 132.273 125.822C132.179 124.861 132.188 123.889 131.953 122.948C131.856 122.553 131.716 122.167 131.63 121.769C131.556 121.38 131.51 120.986 131.492 120.59L131.277 117.553C131.174 116.148 131.028 114.793 130.92 113.39C130.861 112.025 130.663 110.669 130.33 109.343C130.09 108.515 129.59 107.577 128.726 107.474C128.265 107.422 127.818 107.623 127.379 107.764C126.3 108.104 125.142 108.099 124.066 107.75C123.733 107.619 123.387 107.527 123.033 107.474C122.855 107.45 122.674 107.474 122.508 107.543C122.342 107.611 122.198 107.723 122.089 107.866C121.982 108.082 121.932 108.322 121.943 108.562C121.813 111.32 121.573 114.161 120.814 116.841Z" fill="#2790DA"/>
<path d="M116.372 116.924C115.099 115.582 113.793 114.216 112.154 113.363C111.508 113.026 110.773 112.772 110.058 112.899C109.343 113.026 108.678 113.647 108.711 114.373C108.733 114.823 109.007 115.221 109.092 115.663C109.192 116.159 109.048 116.689 109.203 117.17C109.328 117.486 109.516 117.775 109.755 118.017L111.709 120.334C112.537 121.3 113.366 122.28 114.431 122.948C115.497 123.616 116.877 123.928 118.048 123.453C118.88 123.066 119.573 122.43 120.03 121.634C120.516 120.861 120.858 120.016 121.313 119.218C122.022 117.943 122.958 116.809 124.074 115.87C123.5 115.721 122.779 115.511 122.418 115.041C122.315 114.892 122.227 114.733 122.155 114.567L121.708 113.6C121.556 113.592 121.404 113.616 121.262 113.67C121.119 113.723 120.989 113.806 120.88 113.912C120.688 114.134 120.483 114.343 120.264 114.539C119.875 114.832 119.348 114.912 118.995 115.246C118.858 115.389 118.734 115.544 118.625 115.709C118.357 116.061 118.018 116.351 117.63 116.56C117.241 116.77 116.812 116.894 116.372 116.924V116.924Z" fill="#3F3D56"/>
<path d="M124.177 111.152C125.135 109.404 125.09 107.309 125.364 105.335C125.393 104.812 125.577 104.31 125.891 103.891C126.443 103.267 127.418 103.259 128.251 103.339C128.497 103.367 128.803 103.483 128.79 103.728C128.77 103.816 128.727 103.897 128.665 103.963C127.857 105.006 127.382 106.268 127.302 107.585C127.735 107.886 128.406 107.267 128.823 107.585C129.099 107.817 128.972 108.275 128.806 108.606C128.422 109.374 128.025 110.136 127.616 110.892C127.29 111.559 126.865 112.172 126.355 112.711C126.004 113.048 125.593 113.313 125.237 113.644C124.408 114.42 123.909 115.516 123.053 116.273C122.981 116.351 122.883 116.401 122.777 116.413C122.668 116.406 122.565 116.36 122.487 116.284C122.06 115.936 121.705 115.507 121.444 115.022C121.118 114.42 121.167 114.244 121.681 113.818C122.642 113.059 123.578 112.245 124.177 111.152Z" fill="#BE6F72"/>
<path d="M114.771 115.737C114.937 115.839 115.141 115.955 115.323 115.869C115.398 115.824 115.461 115.763 115.508 115.69C115.824 115.269 116.087 114.811 116.292 114.326C116.327 114.258 116.347 114.182 116.35 114.105C116.35 113.929 116.193 113.799 116.046 113.697C115.262 113.197 114.419 112.797 113.537 112.504C112.808 112.228 112.046 111.988 111.273 112.057C110.983 112.077 110.699 112.155 110.44 112.286C110.18 112.418 109.95 112.601 109.763 112.825C109.211 113.534 110.136 113.749 110.716 114.006C112.057 114.616 113.509 114.97 114.771 115.737Z" fill="#2790DA"/>
<path opacity="0.1" d="M113.901 120.43C113.892 120.493 113.897 120.557 113.917 120.618C113.937 120.678 113.972 120.733 114.017 120.778C114.097 120.386 113.992 119.972 114.075 119.577C114.196 118.983 114.773 118.536 114.823 117.94C113.766 117.733 113.909 119.79 113.901 120.43Z" fill="black"/>
<path opacity="0.2" d="M162.577 98.8419V101.561L151.352 102.243L151.013 99.521L162.577 98.8419Z" fill="black"/>
<path d="M112.847 103.24C113.548 102.668 113.142 101.47 113.617 100.703C113.893 100.283 114.36 100.062 114.818 99.8744C115.371 99.6156 115.964 99.4514 116.571 99.3885C116.875 99.3593 117.182 99.399 117.469 99.5046C117.756 99.6102 118.015 99.7791 118.227 99.9986C118.407 100.203 118.528 100.451 118.697 100.664C118.905 100.912 119.177 101.099 119.483 101.205C119.789 101.311 120.119 101.332 120.436 101.266C120.803 101.183 121.184 100.904 121.159 100.529C121.118 100.3 121.001 100.092 120.828 99.9379L120.038 99.0628C119.141 98.0689 118.145 97.0144 116.828 96.7659C115.911 96.592 114.973 96.8377 114.089 97.1331C113.733 97.2518 113.333 97.4285 113.233 97.7901C113.167 98.0386 113.267 98.3091 113.209 98.5603C113.095 99.06 112.455 99.2284 112.157 99.648C111.859 100.068 111.95 100.565 111.864 101.028C111.779 101.492 111.53 101.945 111.5 102.425C111.48 102.715 111.627 103.253 111.952 103.358C112.278 103.463 112.645 102.895 112.847 103.24Z" fill="#3F3D56"/>
<path d="M120.891 100.131C120.658 98.9166 120.156 97.7695 119.422 96.7742C118.77 95.8443 117.862 95.1233 116.808 94.6982C116.281 94.4924 115.715 94.4086 115.151 94.4531C114.587 94.4975 114.041 94.6691 113.553 94.955C112.829 95.472 112.265 96.183 111.927 97.0061C111.212 98.5466 110.947 100.429 111.778 101.909C112.109 101.506 112.678 101.688 113.181 101.542C113.81 101.362 114.343 100.943 114.942 100.681C116.75 99.8827 118.959 100.529 120.891 100.131Z" fill="#FED253"/>
<path opacity="0.1" d="M112.2 100.046C112.137 99.5486 112.095 98.9717 112.449 98.6183C112.466 98.5966 112.489 98.5794 112.514 98.5679C112.54 98.5564 112.567 98.551 112.595 98.552C112.62 98.56 112.642 98.573 112.662 98.5901C112.681 98.6072 112.697 98.628 112.708 98.6514C112.912 98.9733 113.086 99.3134 113.227 99.6673C113.022 99.6199 112.806 99.6353 112.609 99.7116C112.413 99.7879 112.243 99.9215 112.123 100.095" fill="black"/>
<path opacity="0.1" d="M118.652 98.6431L118.553 97.6576C118.537 97.5764 118.543 97.4923 118.572 97.4146C118.614 97.3496 118.678 97.3024 118.752 97.282C118.827 97.2616 118.906 97.2695 118.975 97.3042C119.111 97.3795 119.223 97.4914 119.298 97.6272C119.528 97.98 119.719 98.3567 119.867 98.7508C119.422 98.6651 118.965 98.6708 118.522 98.7673" fill="black"/>
<path opacity="0.1" d="M121.123 138.642V140.895L119.221 141.022H109.217V138.642H121.123Z" fill="black"/>
<path d="M121.123 138.642V141.022H109.216L77.585 101.398V99.5265H84.216L121.123 138.642Z" fill="#F1C0C0"/>
<path opacity="0.1" d="M121.123 138.642V141.022H109.216L77.585 101.398V99.5265H84.216L121.123 138.642Z" fill="black"/>
<path opacity="0.1" d="M121.123 138.642V141.022H109.216L77.585 101.398V99.5265L109.388 138.642H121.123Z" fill="black"/>
<path d="M81.7317 178.357C81.7525 178.469 81.75 178.584 81.7244 178.695C81.6987 178.806 81.6504 178.91 81.5825 179.002C81.5146 179.093 81.4286 179.169 81.3299 179.226C81.2311 179.283 81.1217 179.319 81.0085 179.331C80.241 179.591 79.4266 179.847 78.8828 180.435C78.3389 181.023 78.2312 182.114 78.8828 182.591C79.2158 182.792 79.5981 182.897 79.987 182.892C81.2376 182.978 82.5406 182.961 83.6752 182.431C84.4869 182.056 85.2516 181.415 86.1432 181.473C86.6043 181.501 87.0957 181.716 87.507 181.507C87.9183 181.297 88.0343 180.711 88.037 180.223C88.0475 179.203 87.8937 178.188 87.5815 177.216C87.5401 177.084 85.7844 176.982 85.5746 176.94L83.4461 176.664C83.043 176.612 82.1734 176.308 81.856 176.645C81.5385 176.982 81.7317 177.956 81.7317 178.357Z" fill="#2790DA"/>
<path d="M94.4332 171.466C94.5233 171.963 94.6696 172.448 94.8694 172.913C95.1648 173.663 95.543 174.461 96.2662 174.826C96.9233 175.154 97.7294 175.036 98.3975 174.724C98.6763 174.608 98.9206 174.423 99.1069 174.185C99.3225 173.81 99.4187 173.377 99.383 172.946C99.383 171.877 99.3195 170.773 98.8309 169.823C98.4113 168.995 97.6797 168.283 97.6687 167.366L95.1537 167.852C95.0191 167.865 94.8908 167.916 94.7838 167.999C94.7041 168.083 94.6488 168.187 94.6237 168.3C94.3551 169.333 94.2904 170.408 94.4332 171.466V171.466Z" fill="#2790DA"/>
<path d="M64.3997 145.24C64.2948 146.129 64.3389 147.081 64.8027 147.849C65.2665 148.616 66.2438 149.124 67.0885 148.818C67.1318 148.807 67.1724 148.787 67.208 148.76C67.2436 148.733 67.2733 148.699 67.2956 148.66C67.318 148.567 67.3053 148.469 67.2597 148.384C66.8867 147.389 66.9175 146.287 67.3453 145.314C67.4005 145.187 67.5192 145.038 67.6489 145.088C67.7032 145.116 67.7469 145.16 67.7732 145.215C67.9068 145.446 67.9737 145.71 67.9664 145.977C67.9274 146.219 67.92 146.465 67.9443 146.709C67.9968 146.946 68.2508 147.17 68.4716 147.067C68.5355 147.028 68.5907 146.976 68.6338 146.915C68.677 146.854 68.7073 146.785 68.7228 146.711C69.3384 144.931 69.0596 142.985 68.778 141.121C68.7804 141.078 68.7733 141.035 68.7573 140.996C68.7413 140.956 68.7168 140.92 68.6855 140.891C68.6541 140.862 68.6167 140.84 68.576 140.827C68.5352 140.813 68.492 140.809 68.4495 140.815C67.1465 140.685 66.4342 140.373 65.6889 141.585C65.0484 142.606 64.3997 144.011 64.3997 145.24Z" fill="#2790DA"/>
<path d="M79.6336 140.71C79.2471 142.316 78.8579 143.942 78.833 145.593C78.8398 146.622 78.9173 147.648 79.0649 148.666L79.3548 151.057C79.4542 151.863 79.5508 152.666 79.6916 153.464C79.7814 153.875 79.8304 154.294 79.8379 154.714C79.8108 155.129 79.7452 155.54 79.6419 155.943C79.4683 156.788 79.3713 157.648 79.352 158.51C79.3216 159.891 79.4928 161.271 79.6005 162.651C79.8154 165.402 79.7831 168.166 79.5038 170.911C79.3924 171.652 79.5532 172.408 79.9566 173.04C80.1203 173.239 80.255 173.46 80.3569 173.697C80.5639 174.329 80.0808 174.961 79.9566 175.61C79.8771 176.116 80.0017 176.632 80.303 177.046C80.6042 177.461 81.0575 177.738 81.5633 177.818C83.7718 178.081 86.041 177.962 88.0315 178.972C88.2413 178.359 87.783 177.664 87.9928 177.04C88.1253 176.653 88.4897 176.402 88.7382 176.076C89.072 175.58 89.2383 174.99 89.213 174.392C89.2228 173.612 89.0841 172.838 88.8044 172.109C88.5698 171.502 88.233 170.903 88.2523 170.251C88.2523 169.931 88.3655 169.594 88.2357 169.299C88.1468 169.129 88.0258 168.978 87.8796 168.854C87.0546 167.951 86.5475 166.802 86.4358 165.583C86.3282 164.374 86.3671 163.156 86.5518 161.956C86.687 160.813 86.8692 159.606 87.5953 158.715C87.2586 156.011 87.4565 153.267 88.1778 150.64C88.2496 150.397 88.3627 150.115 88.6112 150.057C88.7099 150.047 88.8096 150.061 88.9018 150.097C88.9941 150.134 89.0762 150.192 89.1412 150.267C89.5747 150.673 89.7817 151.261 89.9694 151.824C90.1765 152.434 90.3863 153.086 90.2289 153.71C90.1627 153.986 90.0302 154.229 89.9529 154.494C89.7849 155.026 89.8143 155.601 90.0357 156.114C90.1436 156.302 90.2113 156.509 90.2345 156.724C90.2089 156.909 90.1529 157.088 90.0688 157.254C89.9664 157.581 89.9339 157.926 89.9734 158.266C90.0129 158.606 90.1234 158.934 90.2979 159.228C90.6498 159.814 91.084 160.347 91.5872 160.81C91.3468 161.87 91.4089 162.975 91.7666 164.001C91.7924 164.048 91.8089 164.098 91.815 164.151C91.8212 164.204 91.8169 164.257 91.8025 164.308C91.7528 164.413 91.6258 164.451 91.5264 164.526C91.2504 164.752 91.4215 165.18 91.6065 165.475C92.1134 166.286 92.6732 167.063 93.2822 167.8C93.8343 168.46 93.7846 169.732 94.6073 169.97C94.953 170.044 95.3107 170.044 95.6564 169.97C96.468 169.846 97.3735 169.611 97.771 168.893C97.9339 168.598 98.0001 168.239 98.2541 168.018C98.5081 167.797 98.8366 167.759 98.9774 167.493C99.1182 167.228 98.9608 166.881 99.0078 166.574C99.0547 166.268 99.3225 166.022 99.4081 165.699C99.6123 164.954 98.7427 164.341 98.624 163.579C98.4529 162.475 99.8442 161.646 99.7863 160.542C99.6648 158.143 99.5875 155.733 99.4633 153.334C99.3074 151.185 99.2852 149.029 99.397 146.877C99.4936 145.538 99.6731 144.136 99.1817 142.891C98.475 141.135 96.526 140.149 94.6404 139.962C92.7549 139.774 90.8749 140.221 89.006 140.514C85.9041 140.992 82.7527 141.058 79.6336 140.71V140.71Z" fill="#3F3D56"/>
<path d="M85.237 114.324C87.6795 114.324 89.6595 112.344 89.6595 109.901C89.6595 107.459 87.6795 105.479 85.237 105.479C82.7945 105.479 80.8145 107.459 80.8145 109.901C80.8145 112.344 82.7945 114.324 85.237 114.324Z" fill="#FBBEBE"/>
<path d="M83.4374 115.149C83.2872 115.499 83.0346 115.795 82.7128 115.998C82.3911 116.202 82.0152 116.303 81.6347 116.289C81.4746 116.952 81.8584 117.62 82.2973 118.142C83.2088 119.202 84.3867 120.001 85.7095 120.454C87.0323 120.908 88.4522 121.001 89.8228 120.723C90.3562 120.627 90.8622 120.416 91.3053 120.104C91.9026 119.606 92.3037 118.911 92.4371 118.144C92.5642 117.383 92.6003 116.609 92.5448 115.839C92.5603 115.687 92.5168 115.535 92.4233 115.414C92.3129 115.329 92.1765 115.284 92.0369 115.287C91.1038 115.204 90.1292 115.168 89.3093 114.71C88.4894 114.252 87.9069 113.217 88.3017 112.366C88.2382 112.499 86.626 112.562 86.4134 112.59C85.7481 112.684 85.0828 112.789 84.4202 112.91C84.1019 112.928 83.7872 112.987 83.4844 113.087C83.0841 113.294 83.2332 113.192 83.327 113.567C83.4678 114.141 83.6749 114.553 83.4374 115.149Z" fill="#FBBEBE"/>
<path d="M86.8026 117.838C86.2069 117.845 85.6127 117.779 85.033 117.642C84.4477 117.505 83.9318 117.161 83.5809 116.673C83.3766 116.364 83.2441 115.974 82.9183 115.801C82.3855 115.524 81.7782 115.991 81.3531 116.419C80.966 116.841 80.5174 117.202 80.0224 117.49C79.4317 117.802 78.7415 117.912 78.1838 118.28C77.7482 118.609 77.3743 119.013 77.0796 119.472L73.1678 124.8C71.597 126.942 70.2305 129.242 68.8308 131.503C67.6189 133.46 66.9839 135.713 66.0702 137.825C65.9978 137.954 65.9679 138.103 65.9846 138.25C66.0177 138.394 66.1916 138.51 66.3131 138.427C65.9018 138.835 66.2634 139.531 66.1668 140.105C66.057 140.507 65.8279 140.866 65.5098 141.135C66.1174 141.056 66.7343 141.085 67.3318 141.221C67.9493 141.396 68.5321 141.676 69.0544 142.049C69.3885 141.996 69.3581 141.403 69.6066 141.182C69.7556 141.052 69.9765 141.069 70.1725 141.03C70.9096 140.886 71.2022 140 71.7681 139.501C72.2402 139.084 72.9083 138.949 73.4079 138.557C74.2196 137.919 74.3935 136.784 74.8186 135.843C75.1803 135.045 75.749 134.349 76.0664 133.532C76.2735 133.002 76.3729 132.428 76.6683 131.939C77.1403 131.15 78.0293 130.73 78.8768 130.352C79.4123 130.112 79.981 129.863 80.558 129.902C80.5276 131.186 80.3648 132.45 80.6436 133.703C80.7402 134.145 80.8755 134.576 80.9914 135.015C81.5187 136.991 81.6429 139.051 81.6678 141.088C82.9362 140.798 84.2316 140.642 85.5327 140.624C86.5569 140.594 87.5783 140.726 88.6025 140.707C89.8172 140.685 91.0181 140.45 92.2327 140.367C93.4474 140.285 94.7173 140.367 95.7912 140.92C95.704 139.17 95.7529 137.416 95.9375 135.674L96.2301 132.93C96.2962 132.133 96.4189 131.342 96.5973 130.562C96.7574 129.932 96.9893 129.325 97.166 128.698C97.7871 126.49 97.6739 124.132 97.5552 121.833C97.4945 120.651 97.039 119.489 96.5034 118.437C96.3096 118.046 96.0882 117.67 95.8409 117.311C95.1937 116.419 94.3312 115.706 93.3339 115.237C92.3366 114.769 91.2369 114.561 90.1374 114.633C89.997 114.637 89.8585 114.667 89.7288 114.721C89.4958 114.87 89.3138 115.087 89.2071 115.342C88.6359 116.369 87.8072 117.229 86.8026 117.838Z" fill="#3F3D56"/>
<path d="M81.3479 111.367C81.4721 111.091 81.8062 110.989 82.0104 110.768C82.4025 110.348 82.2258 109.677 82.2865 109.112C82.3859 108.283 83.0733 107.59 83.8601 107.295C84.6624 107.038 85.5162 106.983 86.3446 107.138C86.7434 107.167 87.1287 107.295 87.4655 107.51C87.609 107.615 87.7415 107.751 87.8768 107.847C88.1234 107.996 88.4185 108.043 88.699 107.977C88.9796 107.912 89.2235 107.739 89.3786 107.497C88.4013 106.321 87.3192 105.078 85.8339 104.717C85.3244 104.613 84.8052 104.564 84.2852 104.57C83.5978 104.556 82.8883 104.545 82.2534 104.808C81.3893 105.164 80.782 105.984 80.47 106.867C80.1972 107.763 80.0513 108.692 80.0366 109.628C79.98 110.252 79.98 110.881 80.0366 111.505C80.1433 112.358 80.4601 113.171 80.9586 113.871C81.026 113.98 81.1214 114.068 81.2347 114.128C82.4936 114.68 81.2457 111.596 81.3479 111.367Z" fill="#3F3D56"/>
<path d="M89.235 106.815C89.0832 105.514 88.1556 104.44 87.17 103.576C86.3757 102.827 85.4295 102.258 84.3956 101.906C83.3548 101.6 82.1567 101.666 81.265 102.287C80.5473 102.787 80.0918 103.582 79.7412 104.382C79.2806 105.327 79.0525 106.368 79.0758 107.419C79.1449 108.463 79.6528 109.52 80.5583 110.047C80.8841 109.567 81.45 109.319 81.9938 109.123C84.3642 108.223 86.7814 107.453 89.235 106.815V106.815Z" fill="#FED253"/>
<path opacity="0.1" d="M80.8618 106.274C80.9501 106.274 81.0081 106.365 81.0523 106.439C81.277 106.789 81.4701 107.159 81.6292 107.543C81.3062 107.612 80.7513 107.69 80.5912 107.405C80.5056 107.262 80.6078 106.26 80.8618 106.274Z" fill="black"/>
<path opacity="0.1" d="M87.1536 105.65C87.0874 105.713 87.0101 105.583 87.0101 105.49V104.418C87.0083 104.389 87.015 104.359 87.0294 104.333C87.0408 104.32 87.0548 104.309 87.0704 104.302C87.0861 104.294 87.1031 104.29 87.1205 104.289C87.3441 104.264 87.5291 104.454 87.6726 104.637C87.8905 104.932 88.0799 105.247 88.2385 105.578L87.0708 105.542" fill="black"/>
<path d="M101.727 123.387C101.981 123.146 102.252 122.923 102.538 122.721C103.303 122.211 104.228 122.009 105.086 121.683C105.945 121.358 106.817 120.83 107.151 119.975C107.319 119.439 107.373 118.876 107.311 118.318C107.319 118.085 107.278 117.853 107.19 117.636C107.085 117.445 106.935 117.282 106.754 117.162C105.589 116.3 104.026 116.231 102.58 116.32C99.3905 116.517 96.2645 117.298 93.3565 118.622C93.2027 118.673 93.0679 118.769 92.97 118.898C92.9134 119.018 92.8877 119.15 92.8954 119.282C92.844 120.096 92.9499 120.912 93.2074 121.686C93.5884 122.669 94.3724 123.461 94.7009 124.463C94.85 124.913 94.8997 125.391 95.0294 125.844C95.1359 126.311 95.4124 126.723 95.8052 126.998C96.8956 127.649 97.9253 126.774 98.6817 126.095L101.727 123.387Z" fill="#3F3D56"/>
<path d="M87.4464 127.21L86.0467 124.157C85.8415 123.734 85.6644 123.298 85.5167 122.851C85.3566 122.318 85.2793 121.766 85.1302 121.231C84.6388 119.447 83.3993 117.962 82.7947 116.215C82.7565 116.057 82.6785 115.911 82.5683 115.792C82.4801 115.73 82.3792 115.688 82.2728 115.669C82.1664 115.649 82.0571 115.654 81.9527 115.682C81.108 115.828 80.4482 116.471 79.6752 116.836C79.3163 117.001 78.9298 117.112 78.5709 117.302C78.3915 117.387 78.2326 117.51 78.1049 117.662C77.9772 117.814 77.8838 117.992 77.8311 118.183C77.7455 118.605 77.9553 119.011 78.132 119.423C78.8829 121.118 79.054 123.011 79.0872 124.867C79.112 126.114 79.0485 127.453 78.3114 128.455C76.8952 130.388 77.8007 133.226 78.3307 135.564C78.3942 135.84 78.4688 136.138 78.5129 136.431C78.5597 136.797 78.5809 137.166 78.5764 137.535C78.5764 138.775 78.5074 140.053 77.9884 141.176C78.5008 141.449 79.0656 141.609 79.6448 141.646C81.2478 141.85 82.8573 141.994 84.4732 142.076C84.9794 142.124 85.49 142.098 85.9888 141.999C86.5811 141.839 87.1033 141.486 87.4727 140.996C87.8422 140.506 88.0379 139.907 88.0289 139.294C88.1172 140.058 88.2801 140.889 88.835 141.419C89.3899 141.949 90.1987 142.029 90.9524 142.071C93.0794 142.184 95.2121 142.124 97.3295 141.891C97.4646 141.885 97.5975 141.854 97.7215 141.8C98.1301 141.596 98.1522 141.033 98.119 140.58C98.0583 139.733 97.9948 138.885 97.8927 138.043C97.806 137.506 97.7617 136.963 97.7601 136.42C97.8022 135.86 97.8946 135.306 98.0362 134.763C98.4061 133.041 98.6988 131.282 98.5745 129.518C98.5254 129.088 98.5079 128.656 98.5221 128.223C98.5939 127.249 99.1073 126.321 99.0107 125.352C98.7346 122.503 98.511 119.58 97.716 116.83C97.5724 116.339 97.3902 115.812 96.9623 115.53C96.4102 115.16 95.6344 115.353 95.0023 115.119C94.7056 114.981 94.4236 114.813 94.1603 114.619C93.5882 114.261 92.9324 114.059 92.2582 114.034C91.7502 114.014 91.1843 114.128 90.8779 114.536C90.736 114.766 90.6421 115.023 90.6018 115.29C90.2015 116.974 89.7322 118.639 89.2629 120.303L88.8129 121.899L87.6065 126.183C87.4878 126.639 87.5679 126.78 87.4464 127.21Z" fill="#2790DA"/>
<path d="M94.5054 110.495L121.209 138.556V140.936H109.302L89.2354 114.746" fill="#F1C0C0"/>
<path opacity="0.1" d="M94.5054 110.495L121.209 138.556V140.936H109.302L89.2354 114.746" fill="black"/>
<path opacity="0.1" d="M89.6605 114.376L89.7461 114.406L109.474 138.556H121.209V140.936H109.302L89.2354 114.746L89.6605 114.376Z" fill="black"/>
<path d="M92.733 114.967C91.7668 115.389 90.6929 115.93 90.4031 116.946C90.3458 117.124 90.3335 117.314 90.3672 117.498C90.4378 117.715 90.5724 117.905 90.7533 118.043C90.9342 118.182 91.1528 118.262 91.3803 118.274C91.8349 118.285 92.2869 118.202 92.7082 118.031L98.4089 116.148C98.5635 116.099 98.7402 116.024 98.7788 115.872C98.7888 115.777 98.7695 115.681 98.7236 115.596C98.547 115.166 98.373 114.285 98.0031 113.984C97.6994 113.741 97.0976 113.827 96.7305 113.832C95.317 113.843 93.9891 114.415 92.733 114.967Z" fill="#2790DA"/>
<path d="M97.8151 116.372C98.7755 116.369 99.7303 116.517 100.645 116.811C101.563 117.109 102.377 117.665 102.989 118.412C103.167 118.621 103.293 118.869 103.358 119.135C103.414 119.411 104.314 119.577 104.115 119.765C104.719 119.668 104.576 119.953 105.189 119.947C105.802 119.942 106.464 119.784 106.831 119.296C107.086 118.894 107.2 118.419 107.154 117.946C107.162 117.618 107.1 117.292 106.972 116.99C106.696 116.411 106.061 116.099 105.476 115.831L100.545 113.575C100.259 113.423 99.9523 113.314 99.6344 113.252C99.3667 113.227 99.0971 113.234 98.831 113.272L96.5977 113.529C97.0861 113.845 97.4837 114.282 97.7514 114.799C98.0191 115.315 98.1476 115.893 98.1243 116.474" fill="#3F3D56"/>
</g>
<defs>
<clipPath id="clip0">
<rect width="325.154" height="200" fill="white"/>
</clipPath>
</defs>
</svg>
