<svg width="32" height="32" viewBox="0 0 32 32" fill="none" xmlns="http://www.w3.org/2000/svg">
<path d="M23.81 12.62C23.81 12.62 23.81 12.55 23.81 12.51C23.8074 10.5225 23.018 8.61685 21.6145 7.20959C20.211 5.80234 18.3075 5.00793 16.32 5L14.78 5C12.789 5.00265 10.8804 5.79473 9.47255 7.20255C8.06473 8.61038 7.27265 10.519 7.27 12.51C7.27 12.51 7.27 12.58 7.27 12.61C6.63761 12.7161 6.06303 13.0422 5.64769 13.5307C5.23235 14.0192 5.00295 14.6388 5 15.28V19.46C4.99998 20.1753 5.28275 20.8616 5.78666 21.3692C6.29056 21.8769 6.97473 22.1647 7.69 22.17L9.75 22.23C10.0123 22.2289 10.2637 22.1247 10.45 21.94C10.5445 21.8474 10.6197 21.7369 10.6712 21.6151C10.7227 21.4932 10.7495 21.3623 10.75 21.23V13.62C10.75 13.3548 10.6446 13.1004 10.4571 12.9129C10.2696 12.7254 10.0152 12.62 9.75 12.62H9.25C9.25559 12.5869 9.25559 12.5531 9.25 12.52C9.24868 11.7939 9.39089 11.0747 9.66845 10.4037C9.94601 9.73274 10.3535 9.12325 10.8674 8.61028C11.3813 8.09731 11.9915 7.69097 12.663 7.41462C13.3344 7.13827 14.0539 6.99736 14.78 7H16.32C17.7813 7 19.1828 7.58052 20.2162 8.61384C21.2495 9.64717 21.83 11.0487 21.83 12.51C21.83 12.51 21.83 12.58 21.83 12.61H21.3C21.0348 12.61 20.7804 12.7154 20.5929 12.9029C20.4054 13.0904 20.3 13.3448 20.3 13.61V21.22C20.3005 21.3523 20.3273 21.4832 20.3788 21.6051C20.4303 21.7269 20.5055 21.8374 20.6 21.93C20.7863 22.1147 21.0377 22.2189 21.3 22.22H22.66V23.58C22.6575 23.7764 22.579 23.9642 22.4411 24.104C22.3031 24.2439 22.1164 24.3248 21.92 24.33H19.51C19.4469 24.1293 19.3221 23.9535 19.1533 23.8279C18.9845 23.7022 18.7804 23.6329 18.57 23.63H16.24C15.9748 23.63 15.7204 23.7354 15.5329 23.9229C15.3454 24.1104 15.24 24.3648 15.24 24.63V26.17C15.24 26.4352 15.3454 26.6896 15.5329 26.8771C15.7204 27.0646 15.9748 27.17 16.24 27.17H18.62C18.8597 27.1731 19.0925 27.09 19.2761 26.9358C19.4596 26.7816 19.5817 26.5666 19.62 26.33H22.04C22.7598 26.3144 23.445 26.018 23.9495 25.5043C24.4539 24.9905 24.7376 24.3 24.74 23.58V21.82C25.1611 21.5863 25.5121 21.2443 25.7565 20.8293C26.0009 20.4144 26.1298 19.9416 26.13 19.46V15.28C26.1248 14.6326 25.888 14.0084 25.4624 13.5205C25.0369 13.0326 24.4507 12.7132 23.81 12.62ZM8.81 20.2H7.74C7.64169 20.2042 7.54357 20.188 7.45186 20.1523C7.36016 20.1166 7.27687 20.0623 7.20729 19.9927C7.13771 19.9231 7.08335 19.8398 7.04767 19.7481C7.01198 19.6564 6.99575 19.5583 7 19.46V15.28C6.99993 15.0951 7.07198 14.9175 7.20083 14.7849C7.32969 14.6523 7.50518 14.5752 7.69 14.57H8.78L8.81 20.2ZM22.32 14.6H23.39C23.4832 14.6 23.5756 14.6184 23.6617 14.654C23.7478 14.6897 23.8261 14.742 23.892 14.808C23.958 14.8739 24.0103 14.9522 24.046 15.0383C24.0816 15.1244 24.1 15.2168 24.1 15.31V19.49C24.0987 19.5854 24.0785 19.6796 24.0405 19.7671C24.0024 19.8547 23.9474 19.9338 23.8785 19.9998C23.8097 20.0659 23.7284 20.1176 23.6394 20.152C23.5503 20.1863 23.4554 20.2027 23.36 20.2H22.36L22.32 14.6Z" fill="#F36702"/>
</svg>
