<svg width="32" height="32" viewBox="0 0 32 32" fill="none" xmlns="http://www.w3.org/2000/svg">
<path d="M26.54 8.51998C26.4729 8.32136 26.3451 8.14885 26.1746 8.02682C26.0042 7.9048 25.7996 7.83944 25.59 7.83998H6.41C6.19193 7.8286 5.97613 7.88891 5.79556 8.0117C5.61499 8.13448 5.47958 8.313 5.41 8.51998L3.41 14.31C3.359 14.4596 3.34418 14.6192 3.36678 14.7756C3.38938 14.9321 3.44874 15.0809 3.54 15.21C3.633 15.3406 3.75604 15.4469 3.89875 15.52C4.04146 15.5931 4.19966 15.6308 4.36 15.63H4.59V24.16C4.59 24.4252 4.69536 24.6796 4.88289 24.8671C5.07043 25.0546 5.32478 25.16 5.59 25.16H26.36C26.6252 25.16 26.8796 25.0546 27.0671 24.8671C27.2546 24.6796 27.36 24.4252 27.36 24.16V15.63H27.59C27.7503 15.6308 27.9085 15.5931 28.0512 15.52C28.194 15.4469 28.317 15.3406 28.41 15.21C28.5013 15.0809 28.5606 14.9321 28.5832 14.7756C28.6058 14.6192 28.591 14.4596 28.54 14.31L26.54 8.51998ZM24.88 9.83998L26.19 13.63H19.76L17.69 9.83998H24.88ZM7.12 9.83998H14.3L12.19 13.63H5.81L7.12 9.83998ZM25.36 23.16H17V21C17 20.7348 16.8946 20.4804 16.7071 20.2929C16.5196 20.1053 16.2652 20 16 20C15.7348 20 15.4804 20.1053 15.2929 20.2929C15.1054 20.4804 15 20.7348 15 21V23.2H6.64V15.63H12.77C12.9489 15.6315 13.1249 15.5849 13.2797 15.4952C13.4345 15.4055 13.5623 15.2759 13.65 15.12L15 12.69V18.53C15 18.7952 15.1054 19.0496 15.2929 19.2371C15.4804 19.4246 15.7348 19.53 16 19.53C16.2652 19.53 16.5196 19.4246 16.7071 19.2371C16.8946 19.0496 17 18.7952 17 18.53V12.76L18.29 15.11C18.3763 15.2678 18.5037 15.3994 18.6585 15.4909C18.8134 15.5824 18.9901 15.6305 19.17 15.63H25.36V23.16Z" fill="#F36702"/>
<path d="M12.32 20.3H9.32C9.05478 20.3 8.80043 20.4054 8.61289 20.5929C8.42536 20.7805 8.32 21.0348 8.32 21.3C8.32 21.5653 8.42536 21.8196 8.61289 22.0072C8.80043 22.1947 9.05478 22.3 9.32 22.3H12.32C12.5852 22.3 12.8396 22.1947 13.0271 22.0072C13.2146 21.8196 13.32 21.5653 13.32 21.3C13.32 21.0348 13.2146 20.7805 13.0271 20.5929C12.8396 20.4054 12.5852 20.3 12.32 20.3Z" fill="#F36702"/>
</svg>
