<svg width="32" height="32" viewBox="0 0 32 32" fill="none" xmlns="http://www.w3.org/2000/svg">
<path d="M27.75 22H25.29C25.7403 21.7052 26.0894 21.2794 26.29 20.78H27.58C27.8452 20.78 28.0996 20.6746 28.2871 20.4871C28.4746 20.2996 28.58 20.0452 28.58 19.78V15.16C28.5811 15.0188 28.5522 14.8789 28.4953 14.7496C28.4385 14.6204 28.3548 14.5046 28.25 14.41L24.25 10.78C24.0666 10.6133 23.8278 10.5206 23.58 10.52H21V8C21 7.73478 20.8946 7.48043 20.7071 7.29289C20.5196 7.10536 20.2652 7 20 7H7.67C7.40478 7 7.15043 7.10536 6.96289 7.29289C6.77536 7.48043 6.67 7.73478 6.67 8V9.84C6.40478 9.84 6.15043 9.94536 5.96289 10.1329C5.77536 10.3204 5.67 10.5748 5.67 10.84C5.67 11.1052 5.77536 11.3596 5.96289 11.5471C6.15043 11.7346 6.40478 11.84 6.67 11.84V12.91H4C3.73478 12.91 3.48043 13.0154 3.29289 13.2029C3.10536 13.3904 3 13.6448 3 13.91C3 14.1752 3.10536 14.4296 3.29289 14.6171C3.48043 14.8046 3.73478 14.91 4 14.91H6.67V16H5.18C4.91478 16 4.66043 16.1054 4.47289 16.2929C4.28536 16.4804 4.18 16.7348 4.18 17C4.18 17.2652 4.28536 17.5196 4.47289 17.7071C4.66043 17.8946 4.91478 18 5.18 18H6.67V19.79C6.67 20.0552 6.77536 20.3096 6.96289 20.4971C7.15043 20.6846 7.40478 20.79 7.67 20.79H10.12C10.3218 21.2887 10.6706 21.7143 11.12 22.01H6.43C6.29868 22.01 6.16864 22.0359 6.04732 22.0861C5.92599 22.1364 5.81575 22.21 5.72289 22.3029C5.63003 22.3958 5.55638 22.506 5.50612 22.6273C5.45587 22.7486 5.43 22.8787 5.43 23.01C5.43 23.1413 5.45587 23.2714 5.50612 23.3927C5.55638 23.514 5.63003 23.6242 5.72289 23.7171C5.81575 23.81 5.92599 23.8836 6.04732 23.9339C6.16864 23.9841 6.29868 24.01 6.43 24.01H27.75C28.0152 24.01 28.2696 23.9046 28.4571 23.7171C28.6446 23.5296 28.75 23.2752 28.75 23.01C28.75 22.7448 28.6446 22.4904 28.4571 22.3029C28.2696 22.1154 28.0152 22.01 27.75 22.01V22ZM23.07 19.78C23.07 19.6435 23.1105 19.5101 23.1863 19.3967C23.2621 19.2832 23.3699 19.1947 23.4959 19.1425C23.622 19.0903 23.7608 19.0766 23.8946 19.1033C24.0285 19.1299 24.1514 19.1956 24.2479 19.2921C24.3444 19.3886 24.4101 19.5115 24.4367 19.6454C24.4634 19.7792 24.4497 19.918 24.3975 20.0441C24.3453 20.1701 24.2568 20.2779 24.1433 20.3537C24.0299 20.4295 23.8965 20.47 23.76 20.47C23.5837 20.4703 23.414 20.4031 23.2857 20.2822C23.1574 20.1614 23.0802 19.996 23.07 19.82V19.78ZM23.13 12.48L26.54 15.6V18.82H26.25C26.0551 18.3153 25.7119 17.8814 25.2657 17.5754C24.8195 17.2694 24.2911 17.1056 23.75 17.1056C23.2089 17.1056 22.6805 17.2694 22.2343 17.5754C21.7881 17.8814 21.4449 18.3153 21.25 18.82H21V12.52L23.13 12.48ZM8.67 18H9.58C9.84522 18 10.0996 17.8946 10.2871 17.7071C10.4746 17.5196 10.58 17.2652 10.58 17C10.58 16.7348 10.4746 16.4804 10.2871 16.2929C10.0996 16.1054 9.84522 16 9.58 16H8.67V14.91H13.44C13.7052 14.91 13.9596 14.8046 14.1471 14.6171C14.3346 14.4296 14.44 14.1752 14.44 13.91C14.44 13.6448 14.3346 13.3904 14.1471 13.2029C13.9596 13.0154 13.7052 12.91 13.44 12.91H8.67V11.84H12C12.2652 11.84 12.5196 11.7346 12.7071 11.5471C12.8946 11.3596 13 11.1052 13 10.84C13 10.5748 12.8946 10.3204 12.7071 10.1329C12.5196 9.94536 12.2652 9.84 12 9.84H8.67V9H19V18.82H15.1C14.9051 18.3153 14.5619 17.8814 14.1157 17.5754C13.6695 17.2694 13.1411 17.1056 12.6 17.1056C12.0589 17.1056 11.5305 17.2694 11.0843 17.5754C10.6381 17.8814 10.2949 18.3153 10.1 18.82H8.67V18ZM13.3 19.79C13.3 19.9265 13.2595 20.0599 13.1837 20.1733C13.1079 20.2868 13.0001 20.3753 12.8741 20.4275C12.748 20.4797 12.6092 20.4934 12.4754 20.4667C12.3415 20.4401 12.2186 20.3744 12.1221 20.2779C12.0256 20.1814 11.9599 20.0585 11.9333 19.9246C11.9066 19.7908 11.9203 19.652 11.9725 19.5259C12.0247 19.3999 12.1132 19.2921 12.2267 19.2163C12.3401 19.1405 12.4735 19.1 12.61 19.1C12.7032 19.0999 12.7954 19.1187 12.8812 19.1552C12.9669 19.1918 13.0443 19.2453 13.1088 19.3126C13.1733 19.3799 13.2235 19.4595 13.2563 19.5467C13.2892 19.6339 13.3041 19.7269 13.3 19.82V19.79ZM15.1 20.79H21.27C21.4755 21.2865 21.8235 21.711 22.27 22.01H14.13C14.5637 21.7177 14.9012 21.3037 15.1 20.82V20.79Z" fill="#F36702"/>
</svg>
