<svg width="32" height="32" viewBox="0 0 32 32" fill="none" xmlns="http://www.w3.org/2000/svg">
<path d="M23.1 6.52995H18.62C18.6881 6.29239 18.725 6.04701 18.73 5.79995C18.73 5.07591 18.4424 4.38152 17.9304 3.86954C17.4184 3.35757 16.724 3.06995 16 3.06995C15.276 3.06995 14.5816 3.35757 14.0696 3.86954C13.5576 4.38152 13.27 5.07591 13.27 5.79995C13.275 6.04701 13.3119 6.29239 13.38 6.52995H8.9C8.14944 6.52995 7.42962 6.82811 6.89889 7.35883C6.36816 7.88956 6.07 8.60938 6.07 9.35995V26.0899C6.07 26.4616 6.1432 26.8296 6.28542 27.1729C6.42764 27.5163 6.6361 27.8283 6.89889 28.0911C7.16168 28.3539 7.47365 28.5623 7.81701 28.7045C8.16036 28.8467 8.52836 28.92 8.9 28.92H23.1C23.8506 28.92 24.5704 28.6218 25.1011 28.0911C25.6318 27.5603 25.93 26.8405 25.93 26.0899V9.35995C25.93 8.60938 25.6318 7.88956 25.1011 7.35883C24.5704 6.82811 23.8506 6.52995 23.1 6.52995ZM15.27 5.79995C15.27 5.65557 15.3128 5.51443 15.393 5.39438C15.4732 5.27433 15.5872 5.18077 15.7206 5.12551C15.854 5.07026 16.0008 5.05581 16.1424 5.08397C16.284 5.11214 16.4141 5.18167 16.5162 5.28376C16.6183 5.38585 16.6878 5.51592 16.716 5.65753C16.7441 5.79914 16.7297 5.94592 16.6744 6.07931C16.6192 6.2127 16.5256 6.32671 16.4056 6.40692C16.2855 6.48713 16.1444 6.52995 16 6.52995C15.8064 6.52995 15.6207 6.45304 15.4838 6.31613C15.3469 6.17923 15.27 5.99355 15.27 5.79995ZM18.68 8.52995V9.64995H13.32V8.52995H18.68ZM23.93 26.0899C23.93 26.3101 23.8426 26.5212 23.6869 26.6768C23.5312 26.8325 23.3201 26.9199 23.1 26.9199H8.9C8.67987 26.9199 8.46876 26.8325 8.3131 26.6768C8.15745 26.5212 8.07 26.3101 8.07 26.0899V9.35995C8.07 9.13982 8.15745 8.9287 8.3131 8.77305C8.46876 8.61739 8.67987 8.52995 8.9 8.52995H11.32V10.6499C11.32 10.9152 11.4254 11.1695 11.6129 11.3571C11.8004 11.5446 12.0548 11.6499 12.32 11.6499H19.68C19.9452 11.6499 20.1996 11.5446 20.3871 11.3571C20.5746 11.1695 20.68 10.9152 20.68 10.6499V8.52995H23.1C23.3201 8.52995 23.5312 8.61739 23.6869 8.77305C23.8426 8.9287 23.93 9.13982 23.93 9.35995V26.0899Z" fill="#F36702"/>
<path d="M21.16 14.72H16.67C16.5387 14.72 16.4086 14.7458 16.2873 14.7961C16.166 14.8463 16.0558 14.92 15.9629 15.0129C15.87 15.1057 15.7964 15.216 15.7461 15.3373C15.6959 15.4586 15.67 15.5886 15.67 15.72C15.67 15.8513 15.6959 15.9813 15.7461 16.1027C15.7964 16.224 15.87 16.3342 15.9629 16.4271C16.0558 16.5199 16.166 16.5936 16.2873 16.6439C16.4086 16.6941 16.5387 16.72 16.67 16.72H21.16C21.4252 16.72 21.6796 16.6146 21.8671 16.4271C22.0547 16.2395 22.16 15.9852 22.16 15.72C22.16 15.4548 22.0547 15.2004 21.8671 15.0129C21.6796 14.8253 21.4252 14.72 21.16 14.72Z" fill="#F36702"/>
<path d="M11 17.5001C11.1772 17.6972 11.4254 17.8159 11.69 17.8301H11.75C11.9965 17.8322 12.2351 17.7431 12.42 17.5801L14.68 15.5801C14.8773 15.4035 14.9965 15.1559 15.0115 14.8916C15.0265 14.6273 14.936 14.3678 14.76 14.1701C14.6724 14.0709 14.5661 13.9901 14.4471 13.9324C14.3281 13.8746 14.1988 13.8411 14.0667 13.8336C13.9346 13.8262 13.8024 13.845 13.6777 13.889C13.5529 13.9331 13.4382 14.0014 13.34 14.0901L11.84 15.4401L11.61 15.1801C11.435 14.9798 11.1875 14.8573 10.9222 14.8395C10.6568 14.8217 10.3952 14.91 10.195 15.0851C9.99477 15.2601 9.87227 15.5075 9.85445 15.7729C9.83663 16.0383 9.92496 16.2998 10.1 16.5001L11 17.5001Z" fill="#F36702"/>
<path d="M21.16 21.13H16.67C16.4048 21.13 16.1504 21.2354 15.9629 21.4229C15.7754 21.6104 15.67 21.8648 15.67 22.13C15.67 22.3952 15.7754 22.6496 15.9629 22.8371C16.1504 23.0246 16.4048 23.13 16.67 23.13H21.16C21.4252 23.13 21.6796 23.0246 21.8671 22.8371C22.0547 22.6496 22.16 22.3952 22.16 22.13C22.16 21.8648 22.0547 21.6104 21.8671 21.4229C21.6796 21.2354 21.4252 21.13 21.16 21.13Z" fill="#F36702"/>
<path d="M13.33 20.14L11.83 21.49L11.6 21.23C11.5133 21.1309 11.408 21.0498 11.29 20.9913C11.1719 20.9329 11.0436 20.8983 10.9122 20.8895C10.7808 20.8806 10.6489 20.8978 10.5242 20.9399C10.3994 20.9821 10.2842 21.0483 10.185 21.135C9.98477 21.3101 9.86227 21.5575 9.84445 21.8228C9.83563 21.9542 9.85278 22.0861 9.89491 22.2109C9.93704 22.3356 10.0033 22.4509 10.09 22.55L10.99 23.55C11.0769 23.6494 11.1826 23.7307 11.301 23.789C11.4194 23.8474 11.5482 23.8817 11.68 23.89H11.74C11.9878 23.8894 12.2266 23.7967 12.41 23.63L14.67 21.63C14.8676 21.4523 14.9865 21.2034 15.0006 20.9381C15.0146 20.6727 14.9227 20.4126 14.745 20.215C14.5673 20.0174 14.3184 19.8985 14.053 19.8845C13.7877 19.8704 13.5276 19.9623 13.33 20.14Z" fill="#F36702"/>
</svg>
