<svg width="32" height="32" viewBox="0 0 32 32" fill="none" xmlns="http://www.w3.org/2000/svg">
<path d="M24 13.9399C23.106 13.874 22.2121 14.0695 21.4272 14.5028C20.6424 14.936 20.0006 15.5883 19.58 16.3799C19.4352 16.5546 19.3541 16.7732 19.35 17V18.57C18.3949 17.9034 17.2546 17.5536 16.09 17.57C15.2152 17.5093 14.3411 17.6967 13.5681 18.1107C12.795 18.5246 12.1545 19.1483 11.72 19.91C11.5437 20.0928 11.4436 20.3359 11.44 20.59V22.28C10.4468 21.5465 9.23374 21.1727 8.00001 21.2199C5.40001 21.2199 3.35001 22.7599 3.35001 24.7199C3.35001 26.6799 5.44001 28.2299 8.00001 28.2299C8.75408 28.2622 9.50566 28.1233 10.1984 27.8237C10.8912 27.5241 11.5071 27.0715 12 26.5C12.4929 27.0715 13.1089 27.5241 13.8016 27.8237C14.4943 28.1233 15.2459 28.2622 16 28.2299C16.7472 28.2671 17.4933 28.1384 18.1849 27.8531C18.8764 27.5678 19.4963 27.133 20 26.58C20.5054 27.1308 21.1256 27.5641 21.8167 27.8492C22.5079 28.1343 23.2532 28.2643 24 28.2299C26.6 28.2299 28.65 26.6899 28.65 24.7299V17C28.6431 16.772 28.5584 16.5532 28.41 16.3799C27.9931 15.5874 27.3535 14.9341 26.5699 14.5005C25.7863 14.067 24.893 13.8721 24 13.9399V13.9399ZM8.00001 26.2299C6.44001 26.2299 5.35001 25.4399 5.35001 24.7199C5.35001 23.9999 6.44001 23.2199 8.00001 23.2199C9.56001 23.2199 10.65 24.0099 10.65 24.7199C10.65 25.4299 9.60001 26.2299 8.00001 26.2299ZM18.66 24.7299C18.66 25.4399 17.57 26.2299 16.01 26.2299C14.45 26.2299 13.36 25.4399 13.36 24.7299V24C14.1857 24.4015 15.0919 24.6101 16.01 24.6101C16.9282 24.6101 17.8343 24.4015 18.66 24V24.7299ZM16.01 22.59C14.45 22.59 13.36 21.8 13.36 21.08C13.36 20.36 14.45 19.58 16.01 19.58C17.57 19.58 18.66 20.37 18.66 21.08C18.66 21.79 17.61 22.59 16.05 22.59H16.01ZM24 15.9399C25.56 15.9399 26.65 16.73 26.65 17.44C26.65 18.15 25.52 19 24 19C22.48 19 21.35 18.21 21.35 17.49C21.35 16.77 22.4 15.9399 24 15.9399ZM21.35 20.34C22.1757 20.7415 23.0819 20.9501 24 20.9501C24.9182 20.9501 25.8243 20.7415 26.65 20.34V21.08C26.65 21.8 25.56 22.59 24 22.59C22.44 22.59 21.35 21.8 21.35 21.08V20.34ZM26.65 24.7299C26.65 25.4399 25.56 26.2299 24 26.2299C22.44 26.2299 21.35 25.4399 21.35 24.7299V24C22.1757 24.4015 23.0819 24.6101 24 24.6101C24.9182 24.6101 25.8243 24.4015 26.65 24V24.7199V24.7299Z" fill="#F36702"/>
<path d="M5.79999 19.18C5.93879 19.1809 6.07627 19.153 6.20367 19.0979C6.33107 19.0428 6.44561 18.9618 6.53999 18.86L11.59 13.32L16.82 15.21C16.9982 15.2802 17.1929 15.2977 17.3808 15.2605C17.5687 15.2233 17.742 15.1329 17.88 15L24 8.51L23.77 9.75C23.7454 9.87938 23.7466 10.0123 23.7735 10.1413C23.8005 10.2702 23.8526 10.3925 23.9269 10.5012C24.0012 10.6099 24.0963 10.7029 24.2067 10.7747C24.317 10.8466 24.4405 10.896 24.57 10.92H24.75C24.9854 10.9243 25.2147 10.8454 25.3976 10.6972C25.5805 10.5491 25.7053 10.3411 25.75 10.11L26.75 5C26.7819 4.82814 26.7683 4.65091 26.7104 4.48598C26.6525 4.32105 26.5524 4.17417 26.42 4.06C26.2856 3.9417 26.1219 3.86167 25.946 3.82824C25.7701 3.79482 25.5884 3.80924 25.42 3.87L20.46 5.6C20.3357 5.6437 20.2212 5.71153 20.1232 5.7996C20.0252 5.88768 19.9456 5.99425 19.8889 6.11319C19.8322 6.23214 19.7996 6.36112 19.7929 6.49271C19.7862 6.62431 19.8056 6.75592 19.85 6.88C19.9383 7.12869 20.1214 7.33236 20.3593 7.44663C20.5972 7.5609 20.8706 7.57649 21.12 7.49L22.73 6.93L16.88 13.1L11.64 11.22C11.4544 11.1517 11.2528 11.14 11.0606 11.1862C10.8683 11.2325 10.6941 11.3347 10.56 11.48L5.06999 17.48C4.89149 17.6752 4.79758 17.9331 4.80883 18.1974C4.82007 18.4616 4.93555 18.7107 5.12999 18.89C5.3088 19.0676 5.54809 19.1712 5.79999 19.18V19.18Z" fill="#F36702"/>
</svg>
