<svg width="32" height="32" viewBox="0 0 32 32" fill="none" xmlns="http://www.w3.org/2000/svg">
<path d="M22.18 8.09L21 7C19.4776 5.72901 17.5631 5.02255 15.58 5C13.5606 5.00543 11.6057 5.71241 10.05 7L9 8.12C7.71814 9.65173 7.01083 11.5827 7 13.58C7 18.67 14.52 27.05 14.84 27.4C14.9335 27.5036 15.0476 27.5865 15.1751 27.6433C15.3025 27.7001 15.4405 27.7297 15.58 27.73C15.7195 27.7297 15.8575 27.7001 15.9849 27.6433C16.1124 27.5865 16.2265 27.5036 16.32 27.4C16.64 27.05 24.17 18.69 24.17 13.58C24.1639 11.5745 23.4604 9.63358 22.18 8.09ZM15.58 25.21C13.23 22.44 9 16.79 9 13.58C8.9911 12.0865 9.496 10.6354 10.43 9.47L11.43 8.47C12.6053 7.50902 14.0768 6.98403 15.595 6.98403C17.1132 6.98403 18.5847 7.50902 19.76 8.47L20.7 9.4C21.6745 10.5744 22.2054 12.0539 22.2 13.58C22.17 16.81 17.93 22.45 15.58 25.21Z" fill="#F36702"/>
<path d="M15.58 16.93C17.3694 16.93 18.82 15.4794 18.82 13.69C18.82 11.9005 17.3694 10.45 15.58 10.45C13.7906 10.45 12.34 11.9005 12.34 13.69C12.34 15.4794 13.7906 16.93 15.58 16.93Z" fill="#F36702"/>
</svg>
