<svg width="32" height="32" viewBox="0 0 32 32" fill="none" xmlns="http://www.w3.org/2000/svg">
<path d="M26 25H24.63V17.27C24.63 17.0048 24.5246 16.7504 24.3371 16.5629C24.1496 16.3754 23.8952 16.27 23.63 16.27C23.3648 16.27 23.1104 16.3754 22.9229 16.5629C22.7354 16.7504 22.63 17.0048 22.63 17.27V25H18.92V20.4C18.92 20.1348 18.8146 19.8804 18.6271 19.6929C18.4396 19.5054 18.1852 19.4 17.92 19.4C17.6548 19.4 17.4004 19.5054 17.2129 19.6929C17.0254 19.8804 16.92 20.1348 16.92 20.4V25H13.22V18.61C13.22 18.3448 13.1146 18.0904 12.9271 17.9029C12.7396 17.7154 12.4852 17.61 12.22 17.61C11.9548 17.61 11.7004 17.7154 11.5129 17.9029C11.3254 18.0904 11.22 18.3448 11.22 18.61V25H7V17.05L12.45 13.35L14.84 16.35C14.9954 16.5417 15.2161 16.6692 15.4598 16.7079C15.7034 16.7467 15.9528 16.694 16.16 16.56L23.81 11.56L23.72 12.43C23.7062 12.5614 23.7186 12.6943 23.7564 12.8209C23.7943 12.9476 23.8569 13.0654 23.9406 13.1677C24.0243 13.27 24.1274 13.3547 24.244 13.4169C24.3606 13.4791 24.4884 13.5175 24.62 13.53H24.72C24.9688 13.5312 25.2091 13.4397 25.394 13.2733C25.5789 13.1069 25.6951 12.8775 25.72 12.63L26.01 9.63C26.0153 9.5768 26.0153 9.5232 26.01 9.47C26.0149 9.42012 26.0149 9.36988 26.01 9.32C25.9893 9.21643 25.9485 9.11792 25.89 9.03C25.8192 8.91989 25.7275 8.82476 25.62 8.75C25.5354 8.68768 25.4406 8.64033 25.34 8.61L22.5 7.84C22.2523 7.79641 21.9973 7.84776 21.7857 7.9838C21.5742 8.11985 21.4217 8.33061 21.3586 8.57408C21.2956 8.81754 21.3265 9.07584 21.4454 9.29748C21.5643 9.51912 21.7623 9.68784 22 9.77L22.68 9.96L15.91 14.35L13.5 11.35C13.3425 11.1546 13.1173 11.0255 12.869 10.9885C12.6208 10.9514 12.3677 11.0091 12.16 11.15L7 14.64V6C7 5.73478 6.89464 5.48043 6.70711 5.29289C6.51957 5.10536 6.26522 5 6 5C5.73478 5 5.48043 5.10536 5.29289 5.29289C5.10536 5.48043 5 5.73478 5 6V26C5 26.2652 5.10536 26.5196 5.29289 26.7071C5.48043 26.8946 5.73478 27 6 27H26C26.2652 27 26.5196 26.8946 26.7071 26.7071C26.8946 26.5196 27 26.2652 27 26C27 25.7348 26.8946 25.4804 26.7071 25.2929C26.5196 25.1054 26.2652 25 26 25Z" fill="#F36702"/>
</svg>
