<svg width="32" height="32" viewBox="0 0 32 32" fill="none" xmlns="http://www.w3.org/2000/svg">
<path d="M27.4731 8.34305C27.376 8.2325 27.2558 8.14472 27.121 8.08595C26.9862 8.02718 26.8401 7.99887 26.6931 8.00305H9.56305L9.17305 6.00305C9.1387 5.83521 9.0618 5.67901 8.94973 5.54943C8.83766 5.41985 8.69418 5.32124 8.53305 5.26305L5.35305 4.06305C5.10375 3.97022 4.82778 3.98023 4.58586 4.09088C4.34394 4.20152 4.15588 4.40374 4.06305 4.65305C3.97023 4.90235 3.98024 5.17832 4.09089 5.42024C4.20153 5.66216 4.40375 5.85022 4.65305 5.94305L6.55305 6.65305L7.45305 7.65305L7.76305 9.21305L9.39305 19.413L9.93305 23.193C9.96921 23.4315 10.0903 23.6488 10.2741 23.805C10.4579 23.9613 10.6919 24.0458 10.9331 24.043H23.5831C23.8483 24.043 24.1026 23.9377 24.2902 23.7502C24.4777 23.5626 24.5831 23.3083 24.5831 23.043C24.5831 22.7778 24.4777 22.5235 24.2902 22.3359C24.1026 22.1484 23.8483 22.043 23.5831 22.043H11.7931L11.5331 20.263H24.6131C24.847 20.2678 25.0752 20.1903 25.2579 20.0441C25.4406 19.8979 25.5663 19.6923 25.6131 19.463L27.6731 9.17305C27.703 9.02851 27.7007 8.87913 27.6661 8.73563C27.6315 8.59213 27.5656 8.45806 27.4731 8.34305ZM23.7931 18.263H11.2331L9.91305 10.003H25.4731L23.7931 18.263Z" fill="#F36702"/>
<path d="M21.2831 25.123C21.1061 25.1074 20.9279 25.1287 20.7596 25.1856C20.5914 25.2426 20.4368 25.3339 20.3058 25.4538C20.1748 25.5738 20.0702 25.7196 19.9986 25.8822C19.927 26.0447 19.89 26.2204 19.89 26.398C19.89 26.5757 19.927 26.7513 19.9986 26.9139C20.0702 27.0765 20.1748 27.2223 20.3058 27.3423C20.4368 27.4622 20.5914 27.5535 20.7596 27.6105C20.9279 27.6674 21.1061 27.6887 21.2831 27.673C21.6017 27.6448 21.8982 27.4982 22.1142 27.2623C22.3302 27.0263 22.45 26.718 22.45 26.398C22.45 26.0781 22.3302 25.7698 22.1142 25.5338C21.8982 25.2978 21.6017 25.1513 21.2831 25.123Z" fill="#F36702"/>
<path d="M13.0931 25.123C12.8399 25.123 12.5924 25.1981 12.3819 25.3388C12.1714 25.4794 12.0074 25.6793 11.9105 25.9132C11.8136 26.1471 11.7883 26.4045 11.8376 26.6528C11.887 26.9011 12.0089 27.1291 12.188 27.3081C12.367 27.4872 12.595 27.6091 12.8433 27.6585C13.0916 27.7078 13.349 27.6825 13.5829 27.5856C13.8168 27.4887 14.0167 27.3247 14.1573 27.1142C14.298 26.9037 14.3731 26.6562 14.3731 26.403C14.3731 26.0636 14.2382 25.738 13.9982 25.4979C13.7581 25.2579 13.4325 25.123 13.0931 25.123Z" fill="#F36702"/>
<path d="M13.1031 13.2731H22.2531C22.5183 13.2731 22.7726 13.1677 22.9602 12.9802C23.1477 12.7926 23.2531 12.5383 23.2531 12.2731C23.2531 12.0079 23.1477 11.7535 22.9602 11.566C22.7726 11.3784 22.5183 11.2731 22.2531 11.2731H13.1031C12.8378 11.2731 12.5835 11.3784 12.3959 11.566C12.2084 11.7535 12.1031 12.0079 12.1031 12.2731C12.1031 12.5383 12.2084 12.7926 12.3959 12.9802C12.5835 13.1677 12.8378 13.2731 13.1031 13.2731Z" fill="#F36702"/>
<path d="M21.5031 14.6731H13.8531C13.5878 14.6731 13.3335 14.7785 13.1459 14.966C12.9584 15.1535 12.8531 15.4079 12.8531 15.6731C12.8531 15.9383 12.9584 16.1927 13.1459 16.3802C13.3335 16.5677 13.5878 16.6731 13.8531 16.6731H21.5031C21.7683 16.6731 22.0226 16.5677 22.2102 16.3802C22.3977 16.1927 22.5031 15.9383 22.5031 15.6731C22.5031 15.4079 22.3977 15.1535 22.2102 14.966C22.0226 14.7785 21.7683 14.6731 21.5031 14.6731Z" fill="#F36702"/>
</svg>
