<svg width="32" height="32" viewBox="0 0 32 32" fill="none" xmlns="http://www.w3.org/2000/svg">
<path d="M25.86 13.12V9.22C25.86 8.63122 25.6261 8.06655 25.2098 7.65022C24.7934 7.23389 24.2288 7 23.64 7H9C7.93913 7 6.92172 7.42143 6.17157 8.17157C5.42143 8.92172 5 9.93913 5 11C5 11 5 11.1 5 11.17C5 11.24 5 11.17 5 11.17V22.82C5.00199 23.1669 5.07284 23.5099 5.20846 23.8292C5.34407 24.1485 5.54174 24.4377 5.79 24.68C6.38032 25.2592 7.17303 25.5856 8 25.59H24.8C25.5636 25.6145 26.3061 25.3377 26.8674 24.8195C27.4287 24.3013 27.7636 23.5831 27.8 22.82V15.7C27.7839 15.1219 27.5886 14.5632 27.241 14.1009C26.8935 13.6387 26.4109 13.296 25.86 13.12ZM9 9H23.64C23.6983 9 23.7543 9.02318 23.7956 9.06444C23.8368 9.10569 23.86 9.16165 23.86 9.22V12.94H9C8.53647 12.8588 8.11642 12.6167 7.81373 12.2564C7.51105 11.8961 7.34511 11.4406 7.34511 10.97C7.34511 10.4994 7.51105 10.0439 7.81373 9.68357C8.11642 9.32325 8.53647 9.0812 9 9ZM24.8 23.59H8C7.6893 23.5952 7.38852 23.4806 7.16 23.27C7.03945 23.1503 6.9681 22.9897 6.96 22.82V14.4C7.56656 14.7552 8.2571 14.9416 8.96 14.94H24.8C25.36 14.94 25.8 15.29 25.8 15.7V16.75H23.67C22.9524 16.7928 22.2783 17.108 21.7853 17.6312C21.2924 18.1544 21.0179 18.8461 21.0179 19.565C21.0179 20.2839 21.2924 20.9756 21.7853 21.4988C22.2783 22.022 22.9524 22.3372 23.67 22.38H25.84V22.82C25.84 23.24 25.36 23.59 24.8 23.59ZM25.8 20.38H23.67C23.4694 20.3577 23.2841 20.2623 23.1495 20.1119C23.0148 19.9616 22.9404 19.7668 22.9404 19.565C22.9404 19.3632 23.0148 19.1684 23.1495 19.0181C23.2841 18.8677 23.4694 18.7723 23.67 18.75H25.84L25.8 20.38Z" fill="#F36702"/>
<path d="M9.55 12H21.86C22.1252 12 22.3796 11.8946 22.5671 11.7071C22.7546 11.5196 22.86 11.2652 22.86 11C22.86 10.7348 22.7546 10.4804 22.5671 10.2929C22.3796 10.1054 22.1252 10 21.86 10H9.55C9.28478 10 9.03043 10.1054 8.84289 10.2929C8.65536 10.4804 8.55 10.7348 8.55 11C8.55 11.2652 8.65536 11.5196 8.84289 11.7071C9.03043 11.8946 9.28478 12 9.55 12Z" fill="#F36702"/>
</svg>
